<svg height="43" viewBox="0 0 134 43" width="134" xmlns="http://www.w3.org/2000/svg" xmlns:xlink="http://www.w3.org/1999/xlink"><mask id="a" fill="#fff"><path d="m0 .1754h24.0698896v31.87714h-24.0698896z" fill="#fff" fill-rule="evenodd"/></mask><g fill="#ad340e" fill-rule="evenodd"><path d="m11.4433807 27.23794c2.0777976 0 3.6475119-.3916 4.7093422-1.1752 1.0614316-.7832 1.5926458-1.9356 1.5926458-3.457 0-1.3538-.5274255-2.4222-1.5812797-3.206-1.054253-.7832-2.4684316-1.1752-4.2429345-1.1752h-5.77855063v9.0134zm-1.4331221-13.828c1.6225566 0 2.904131-.388 3.8447232-1.1636.9401935-.776 1.4103899-1.8558 1.4103899-3.2404 0-1.232-.4321101-2.2094-1.2967291-2.932-.8644197-.7224-2.0020238-1.084-3.4124137-1.084h-4.41362503v8.42zm1.6379107-13.2346c2.9121072 0 5.2856221.7608 7.1209435 2.2818 1.8349226 1.5214 2.7525833 3.4228 2.7525833 5.7046 0 1.4604-.3830565 2.746-1.1487708 3.8562-.7661131 1.1108-1.8767976 1.9932-3.3328512 2.647v.2738c2.2141905.5022 3.9392411 1.4948 5.1755506 2.9778 1.2361101 1.4832 1.8542649 3.2214 1.8542649 5.214 0 1.765-.4514524 3.343-1.3537589 4.7348-.902506 1.392-2.1537709 2.438-3.7535953 3.1376-1.6004226.6998-3.484997 1.0496-5.6537232 1.0496h-13.30887202v-31.8772z" mask="url(#a)" transform="translate(0 .0246)"/><path d="m32.6294586 26.3725c0 .7756.2462649 1.3998.7393929 1.871.4927292.4718 1.1035059.7076 1.8315327.7076 1.2285328 0 2.4568661-.5628 3.6853988-1.6886v-5.6136c-1.5621369.5328-2.7868809 1.0348-3.6740327 1.5062-.8873512.4718-1.5396042.951-1.9565595 1.4376-.4175536.487-.6257322 1.0802-.6257322 1.7798m3.4126131-16.0184c2.7300506 0 4.8152262.5818 6.2563244 1.7456 1.4406994 1.1638 2.1613482 2.7878 2.1613482 4.8718v10.4278c0 .8064.3258274 1.2096.9782798 1.2096.2729851 0 .6558423-.1178 1.1487708-.3538.2279197-.109.4386905-.2252.6327113-.349.2634137-.168.6071875.0266.6071875.3398v2.4394c-1.9565595 1.2018-3.7462172 1.8026-5.3689732 1.8026-1.0010119 0-1.7711131-.1676-2.3091071-.5022-.5387917-.3342-.9140714-.9276-1.1262381-1.7798-2.1386161 1.5214-4.2850089 2.282-6.438381 2.282-1.5320267 0-2.8476994-.517-3.9472172-1.5518-1.0999167-1.0344-1.6492768-2.2738-1.6492768-3.7194 0-1.8404.5457708-3.2932 1.6379107-4.3582 1.0919405-1.0646 3.0030357-1.9928 5.7330863-2.7838l4.5272857-1.3234v-.9812c0-2.084-1.2590416-3.1262-3.7765268-3.1262-1.2893511 0-2.5709255.2966-3.8447232.89-1.0071934.469-1.9433988 1.114-2.808616 1.9348-.2542411.2414-.6723929.0622-.6723929-.289v-4.0646c2.3206726-1.8406 5.0734554-2.761 8.2585476-2.761"/><path d="m52.295853 10.7648 5.0277916 11.4548 5.0961875-11.4548h6.0060715l-14.6739971 32.0598h-5.3825327c-.2911309 0-.4841548-.3026-.362119-.5678l6.4954107-14.1044-8.2583482-17.3876z"/><path d="m77.3921188 5.1059h.4548422v5.6588h7.2802679v4.2444h-7.2802679v9.8344c0 .9584.2879405 1.7344.8644197 2.3278.5764791.593 1.365125.8896 2.3663363.8896 1.1537559 0 2.4620506-.3686 3.9246845-1.107.2656071-.134.5796696.0568.5796696.3552v3.8324c-2.0171785.8978-3.9127202 1.3464-5.687622 1.3464-2.3964464 0-4.2652678-.654-5.6076607-1.9624-1.3421935-1.3082-2.0133899-3.0806-2.0133899-5.3166v-10.1998h-3.3214851v-.9128z"/><path d="m92.9721711 21.32954c0 2.1302.51925 3.8302 1.5585477 5.1 1.0386994 1.2704 2.4301458 1.9054 4.174738 1.9054 1.8197682 0 3.2530892-.6082 4.2995652-1.8256 1.046676-1.2168 1.569914-2.9584 1.569914-5.2254 0-2.1598-.527226-3.8294-1.58108-5.0086-1.054253-1.1786-2.483985-1.7684-4.2883992-1.7684-1.6991279 0-3.0792083.624-4.1406398 1.8712-1.0618304 1.2474-1.5926459 2.898-1.5926459 4.9514m5.7785506-10.9754c2.2143903 0 4.2237913.4642 6.0292023 1.392 1.804414.9278 3.199848 2.2286 4.185905 3.9018.985658 1.6736 1.478786 3.5676 1.478786 5.6816 0 2.206-.474384 4.138-1.421956 5.7958-.948169 1.6584-2.343405 2.9666-4.186104 3.925-1.842699.9582-3.871443 1.4376-6.0858333 1.4376-2.2295446 0-4.2541012-.4794-6.0742678-1.4376-1.8201667-.9584-3.2042351-2.2666-4.1518066-3.925-.9481696-1.6578-1.4217559-3.5898-1.4217559-5.7958 0-2.1446.5003065-4.05 1.5013184-5.716 1.0012113-1.6656 2.3960476-2.9584 4.1859048-3.879 1.7896577-.9202 3.7767262-1.3804 5.9606071-1.3804"/><path d="m126.418731 10.35406c2.275009 0 4.091387.7494 5.448735 2.2476 1.357348 1.4986 2.036321 3.4724 2.036321 5.9214v13.554h-5.573961v-12.9834c0-1.3844-.329616-2.4796-.989447-3.286-.660029-.8062-1.558547-1.2094-2.695753-1.2094-.864818 0-1.676196.255-2.434532.7644-.758536.5098-1.592247 1.3578-2.502729 2.5444v14.17h-5.596494v-21.3122h5.022806l.573688 2.9892c1.031321-1.2168 2.089363-2.088 3.173925-2.6128 1.084363-.5248 2.263444-.7872 3.537441-.7872"/></g></svg>