<svg xmlns="http://www.w3.org/2000/svg" version="1.1" viewBox="0 0 332 159" fill="#FF931E">
	<g>
		<path d="M113.9,1.3L148,42.2l34-40.9h17.9V105h-20V32.2h-0.6l-30,36.5h-2.8l-30-36.5h-0.6V105h-20V1.3H113.9z"/>
		<path d="M38.4,1.3c9.5,0,17.2,2.5,23.2,7.4s9,11.1,9,18.5c0.1,4.5-1.2,8.9-3.8,12.6c-2.8,3.8-6.5,6.8-10.9,8.6v0.9    c7.2,1.6,12.8,4.8,16.9,9.6c4,4.8,6.1,10.8,6,17c0.1,5.5-1.4,10.8-4.4,15.4c-3,4.6-7.2,8.1-12.2,10.2c-5.9,2.4-12.1,3.5-18.5,3.4    H0.4V1.3H38.4z M33,44.3c5.3,0,9.5-1.3,12.5-3.8c3.1-2.5,4.6-6,4.6-10.5c0.2-3.7-1.4-7.2-4.2-9.5c-2.8-2.3-6.6-3.5-11.2-3.5H20.4    v27.4L33,44.3z M37.7,89.3c6.8,0,11.9-1.3,15.4-3.8c3.5-2.5,5.2-6.3,5.2-11.2c0.1-4.1-1.8-8-5.2-10.4c-3.4-2.6-8-3.8-13.9-3.8    H20.4v29.3L37.7,89.3z"/>
		<path d="M275,0c10.1-0.2,20,2.1,29,6.6c8.5,4.3,15.6,11,20.5,19.1c5.1,8.2,7.7,17.8,7.6,27.4    c0,19.4-10.7,37.3-27.9,46.3c-18.5,9.2-40.2,9.2-58.6-0.1c-17.3-8.9-28.1-26.7-27.9-46.2c0-9.4,2.5-18.7,7.3-26.8    c4.8-8.3,11.8-15,20.3-19.5C253.9,2.3,263.8,0,275,0z M238.4,53.2c-0.1,6.5,1.5,12.9,4.6,18.5c3,5.4,7.5,9.8,13,12.8    c5.8,3.1,12.4,4.7,19,4.5c10.7,0,19.4-3.3,26.2-10c6.8-6.7,10.3-15.3,10.3-25.8c0.1-6.5-1.5-12.9-4.6-18.6    c-3-5.4-7.6-9.9-13.1-12.8c-11.9-6.1-26-6.1-37.9,0c-5.5,2.9-10,7.3-13,12.8C239.8,40.3,238.2,46.7,238.4,53.2z"/>
		<path d="M0,122.9c0-1.2,1-2.2,2.2-2.3c0,0,0,0,0.1,0c0.6,0,1.2,0.2,1.6,0.7c0.9,0.9,0.9,2.3,0,3.2    c-0.4,0.4-1,0.7-1.6,0.7c-0.6,0-1.2-0.2-1.6-0.7C0.2,124.1,0,123.5,0,122.9z M0.3,148.9v-20.1h4v20.1L0.3,148.9z"/>
		<path d="M23.6,147.8c-0.7,0.5-1.5,0.9-2.4,1.1c-0.9,0.3-1.9,0.4-2.8,0.4c-2.7,0.1-5.3-1-7.1-2.9    c-3.7-4.4-3.7-10.7,0-15.1c1.8-1.9,4.4-3,7.1-2.9c0.9,0,1.9,0.1,2.8,0.4c0.9,0.3,1.7,0.7,2.4,1.2v-11.5h4v30.4h-4V147.8z     M23.6,144.5v-11.3c-0.6-0.4-1.3-0.8-2-1c-0.7-0.2-1.4-0.3-2.2-0.3c-1.8-0.1-3.6,0.6-4.8,1.9c-2.3,3-2.3,7.3,0,10.3    c1.3,1.3,3,2,4.8,1.9c0.7,0,1.5-0.1,2.2-0.3C22.3,145.3,23,144.9,23.6,144.5z"/>
		<path d="M50.8,146.8c-1.3,0.8-2.7,1.5-4.1,1.9c-1.4,0.4-2.9,0.6-4.4,0.6c-2.8,0.1-5.6-0.9-7.6-2.9    c-1.9-2.1-3-5-2.8-7.9c-0.1-2.7,0.9-5.3,2.7-7.3c1.9-1.9,4.4-2.9,7.1-2.8c2.6-0.1,5.1,0.9,6.9,2.8c1.8,2.2,2.7,4.9,2.5,7.7v0.6    h-15c0,3.3,2.6,6,5.9,6c0.2,0,0.4,0,0.5,0c1.4,0,2.7-0.3,4-0.7c1.5-0.5,3-1.3,4.3-2.1L50.8,146.8z M36.1,136.7h10.6    c-0.1-1.3-0.6-2.6-1.6-3.5c-0.9-0.9-2.2-1.4-3.5-1.3c-1.3-0.1-2.7,0.4-3.7,1.2C36.9,134.1,36.3,135.3,36.1,136.7z"/>
		<path d="M65.7,147.3c-0.9,0.6-1.8,1.2-2.9,1.5c-0.9,0.3-1.9,0.5-2.9,0.5c-1.5,0.1-3-0.3-4.2-1.3    c-1-0.9-1.6-2.2-1.5-3.6c0-1.4,0.6-2.8,1.7-3.7c1.4-1.3,3.2-2.2,5-2.7l4.8-1.6c0-0.1,0-0.2,0-0.4c0-0.1,0-0.3,0-0.5    c0.1-0.9-0.2-1.9-0.9-2.6c-0.8-0.6-1.9-0.9-2.9-0.8c-1.2,0-2.4,0.2-3.5,0.7c-1.3,0.5-2.5,1.2-3.6,2.1v-4c1-0.8,2.2-1.5,3.5-1.9    c1.3-0.4,2.7-0.7,4.1-0.6c2.6,0,4.4,0.6,5.6,1.7s1.8,3,1.8,5.5v8.5c0,0.5,0,1,0.2,1.5c0.1,0.3,0.3,0.5,0.6,0.4    c0.3,0,0.5-0.1,0.8-0.2c0.5-0.3,0.9-0.6,1.3-0.9v2.4c-0.7,0.6-1.4,1-2.2,1.4c-0.7,0.3-1.5,0.4-2.3,0.4c-0.6,0-1.2-0.1-1.7-0.5    C65.9,148.4,65.7,147.8,65.7,147.3z M65.5,144.8v-5.9c-1.9,0.5-3.8,1.3-5.5,2.3c-0.9,0.5-1.5,1.4-1.5,2.5c0,0.7,0.3,1.4,0.8,1.9    c0.6,0.5,1.4,0.7,2.2,0.7c0.7,0,1.4-0.1,2.1-0.4C64.3,145.7,64.9,145.3,65.5,144.8z"/>
		<path d="M74.8,147.5v-4.3c1.1,0.7,2.2,1.4,3.5,1.8c1,0.4,2,0.6,3.1,0.6c0.8,0,1.7-0.2,2.4-0.6    c0.6-0.3,0.9-0.9,0.9-1.6c0-0.8-1.1-1.8-3.3-2.9c-0.6-0.3-1.1-0.6-1.5-0.8c-1.5-0.7-2.8-1.6-3.8-2.8c-0.7-0.9-1-2.1-1-3.3    c-0.1-1.5,0.6-3,1.8-4c1.4-1.1,3.2-1.6,5-1.5c1.1,0,2.2,0.1,3.3,0.4c1,0.3,2,0.7,2.9,1.3v3.9c-1.1-0.6-2.2-1.1-3.4-1.5    c-0.9-0.3-1.9-0.5-2.9-0.5c-0.7,0-1.4,0.1-2,0.4c-0.4,0.3-0.7,0.7-0.7,1.3c0,1,1.4,2.2,4.2,3.6l0.4,0.2c1.6,0.7,3,1.7,4.3,2.9    c0.7,0.9,1,2,1,3.2c0.1,1.6-0.7,3.2-2,4.2c-1.5,1.1-3.4,1.7-5.3,1.6c-1.2,0-2.4-0.1-3.6-0.4C76.9,148.6,75.8,148.1,74.8,147.5z"/>
		<path d="M93.3,148v-29.5h4V130c0.7-0.5,1.6-0.9,2.4-1.2c0.9-0.3,1.9-0.4,2.9-0.4c2.6-0.1,5.2,0.9,7,2.9    c1.8,2.1,2.8,4.8,2.7,7.6c0,3.3-1,5.9-3,7.8c-2,1.8-4.8,2.7-8.4,2.7c-1.2,0-2.5-0.1-3.7-0.3C95.8,148.8,94.5,148.4,93.3,148z     M97.3,144.9c0.7,0.2,1.4,0.4,2.1,0.6c0.7,0.1,1.3,0.2,2,0.2c1.8,0.1,3.6-0.5,4.9-1.8c1.2-1.4,1.9-3.2,1.8-5    c0.1-1.8-0.5-3.6-1.7-5c-1.2-1.2-2.9-1.9-4.6-1.8c-0.8,0-1.5,0.1-2.2,0.4c-0.8,0.3-1.5,0.7-2.2,1.1L97.3,144.9z"/>
		<path d="M116.3,122.9c0-1.2,1-2.2,2.2-2.3c0,0,0,0,0.1,0c1.2,0,2.3,1,2.3,2.3c0,0.6-0.2,1.2-0.7,1.6    c-0.4,0.4-1,0.7-1.6,0.7C117.4,125.2,116.3,124.2,116.3,122.9C116.3,123,116.3,123,116.3,122.9z M116.6,148.9v-20.1h4v20.1    L116.6,148.9z"/>
		<path d="M143.7,146.8c-1.3,0.8-2.7,1.5-4.1,1.9c-1.4,0.4-2.9,0.6-4.4,0.6c-2.8,0.1-5.6-0.9-7.6-2.9    c-2-2.1-3-5-2.8-7.9c-0.1-2.7,0.9-5.3,2.7-7.3c1.9-1.9,4.5-2.9,7.1-2.8c2.6-0.1,5.1,0.9,6.9,2.8c1.8,2.2,2.7,4.9,2.5,7.7v0.6h-15    c0,3.3,2.6,6,5.9,6c0.2,0,0.3,0,0.5,0c1.4,0,2.7-0.3,4-0.7c1.5-0.5,2.9-1.3,4.3-2.1L143.7,146.8z M129.1,136.7h10.6    c-0.1-1.3-0.6-2.6-1.6-3.5c-0.9-0.9-2.2-1.4-3.5-1.3c-1.3-0.1-2.7,0.4-3.7,1.2C129.9,134.1,129.2,135.3,129.1,136.7z"/>
		<path d="M148.5,148.9v-20.1h4v2.4c0.9-0.9,1.9-1.6,3-2.1c1-0.4,2.1-0.7,3.2-0.7c1.9-0.1,3.8,0.6,5.1,1.9    c1.3,1.4,2,3.3,1.9,5.2v13.3h-4v-12.3c0.1-1.3-0.2-2.6-1-3.6c-0.8-0.8-2-1.3-3.2-1.2c-0.9,0-1.9,0.2-2.7,0.6    c-0.9,0.5-1.7,1.2-2.3,2v14.5L148.5,148.9z"/>
		<path d="M181.2,147.3c-0.9,0.6-1.8,1.2-2.9,1.5c-0.9,0.3-1.9,0.5-2.9,0.5c-1.5,0.1-3-0.4-4.2-1.3    c-1-0.9-1.6-2.2-1.5-3.6c0-1.4,0.6-2.8,1.6-3.7c1.4-1.3,3.2-2.2,5-2.7l4.8-1.6c0-0.1,0-0.2,0-0.4c0-0.1,0-0.3,0-0.5    c0.1-0.9-0.2-1.9-0.9-2.6c-0.8-0.6-1.9-0.9-2.9-0.8c-1.2,0-2.4,0.2-3.4,0.7c-1.3,0.5-2.5,1.2-3.6,2.1v-4c1-0.8,2.2-1.5,3.4-1.9    c1.3-0.4,2.7-0.7,4.1-0.6c2.6,0,4.4,0.6,5.6,1.7s1.8,3,1.8,5.5v8.5c0,0.5,0,1,0.2,1.5c0.1,0.3,0.3,0.5,0.6,0.4    c0.3,0,0.5-0.1,0.8-0.2c0.5-0.3,0.9-0.6,1.3-0.9v2.4c-0.7,0.6-1.4,1-2.2,1.4c-0.7,0.3-1.5,0.4-2.3,0.4c-0.6,0-1.2-0.1-1.7-0.5    C181.5,148.4,181.2,147.8,181.2,147.3z M181.1,144.8v-5.9c-2,0.5-3.8,1.3-5.6,2.3c-0.9,0.5-1.5,1.4-1.5,2.5c0,0.7,0.3,1.4,0.8,1.9    c0.6,0.5,1.4,0.7,2.2,0.7c0.7,0,1.4-0.1,2.1-0.4C179.8,145.7,180.5,145.3,181.1,144.8L181.1,144.8z"/>
		<path d="M191.2,159v-30.1h4v1.1c0.7-0.5,1.5-0.9,2.4-1.2c0.9-0.3,1.8-0.4,2.8-0.4c2.7-0.1,5.2,1,7.1,2.9    c3.7,4.4,3.7,10.7,0,15.1c-1.8,1.9-4.4,3-7.1,2.9c-0.9,0-1.9-0.1-2.8-0.4c-0.8-0.2-1.6-0.6-2.4-1.1V159H191.2z M195.2,133.3v11.2    c0.6,0.5,1.3,0.8,2,1.1c0.7,0.2,1.4,0.3,2.2,0.3c1.8,0.1,3.6-0.6,4.8-1.9c1.2-1.4,1.9-3.3,1.8-5.1c0.1-1.9-0.5-3.7-1.8-5.1    c-1.3-1.3-3-1.9-4.8-1.9c-0.7,0-1.5,0.1-2.2,0.3C196.5,132.5,195.8,132.8,195.2,133.3L195.2,133.3z"/>
		<path d="M214.6,148.9v-30.4h4v30.4H214.6z"/>
		<path d="M223.9,122.9c0-1.2,1-2.3,2.3-2.2s2.3,1,2.2,2.3c0,0.6-0.2,1.2-0.7,1.6c-0.9,0.9-2.3,0.9-3.2,0    C224.1,124.1,223.9,123.5,223.9,122.9z M224.1,148.9v-20.1h4v20.1L224.1,148.9z"/>
		<path d="M249.3,144.1v4.1c-1,0.4-2,0.6-3,0.8c-0.9,0.2-1.9,0.3-2.8,0.3c-3,0.1-5.9-0.9-8.1-2.9    c-4.1-4-4.2-10.6-0.2-14.8c0.1-0.1,0.2-0.2,0.2-0.2c2.1-2,5-3.1,7.9-3c1,0,1.9,0.1,2.9,0.3c1,0.2,1.9,0.5,2.8,0.9v4.3    c-0.9-0.5-1.8-1-2.8-1.3c-0.9-0.3-1.8-0.4-2.8-0.4c-1.8-0.1-3.6,0.6-5,1.8c-2.6,2.6-2.6,6.9,0,9.5c1.4,1.3,3.3,1.9,5.2,1.9    C245.6,145.5,247.5,145,249.3,144.1L249.3,144.1z"/>
		<path d="M264,147.3c-0.9,0.6-1.9,1.2-2.9,1.5c-0.9,0.3-1.9,0.5-2.9,0.5c-1.5,0.1-3-0.4-4.2-1.3    c-1-0.9-1.6-2.2-1.5-3.6c0-1.4,0.6-2.8,1.6-3.7c1.4-1.3,3.2-2.2,5-2.7l4.8-1.6c0-0.1,0-0.2,0-0.4s0-0.3,0-0.5    c0.1-0.9-0.2-1.9-0.9-2.6c-0.8-0.6-1.9-0.9-2.9-0.8c-1.2,0-2.4,0.3-3.5,0.7c-1.3,0.5-2.5,1.2-3.6,2.1v-4c1-0.8,2.2-1.5,3.5-1.9    c1.3-0.4,2.7-0.7,4.1-0.6c2.6,0,4.5,0.6,5.6,1.7s1.8,3,1.8,5.5v8.5c0,0.5,0,1,0.2,1.5c0.1,0.3,0.3,0.5,0.6,0.4    c0.3,0,0.5-0.1,0.8-0.2c0.5-0.3,0.9-0.6,1.3-0.9v2.4c-0.7,0.6-1.4,1-2.2,1.4c-0.7,0.3-1.5,0.4-2.3,0.4c-0.6,0-1.2-0.1-1.7-0.5    C264.2,148.4,264,147.8,264,147.3z M263.8,144.8v-5.9c-2,0.5-3.8,1.3-5.6,2.3c-0.9,0.5-1.5,1.4-1.5,2.5c0,0.7,0.2,1.4,0.8,1.9    c0.6,0.5,1.4,0.7,2.2,0.7c0.7,0,1.4-0.1,2.1-0.4C262.5,145.7,263.2,145.3,263.8,144.8L263.8,144.8z"/>
		<path d="M287.4,147.8c-0.7,0.5-1.5,0.9-2.4,1.1c-0.9,0.3-1.9,0.4-2.8,0.4c-2.7,0.1-5.2-1-7.1-2.9    c-3.7-4.4-3.7-10.7,0-15.1c1.8-1.9,4.4-3,7.1-2.9c0.9,0,1.9,0.1,2.8,0.4c0.9,0.3,1.7,0.7,2.4,1.2v-11.4h4v30.4h-4V147.8z     M287.4,144.5v-11.3c-0.6-0.4-1.3-0.8-2-1c-0.7-0.2-1.5-0.3-2.2-0.3c-1.8-0.1-3.6,0.6-4.8,1.9c-2.3,3-2.3,7.3,0,10.3    c1.3,1.3,3,2,4.8,1.9c0.7,0,1.5-0.1,2.2-0.3C286.1,145.3,286.8,144.9,287.4,144.5z"/>
		<path d="M307.1,147.3c-0.9,0.6-1.8,1.2-2.9,1.5c-0.9,0.3-1.9,0.5-2.9,0.5c-1.5,0.1-3-0.4-4.2-1.3    c-1-0.9-1.6-2.2-1.5-3.6c0-1.4,0.6-2.8,1.6-3.7c1.4-1.3,3.2-2.2,5-2.7l4.8-1.6c0-0.1,0-0.2,0-0.4c0-0.1,0-0.3,0-0.5    c0.1-0.9-0.2-1.9-0.9-2.6c-0.8-0.6-1.9-0.9-2.9-0.8c-1.2,0-2.4,0.2-3.5,0.7c-1.3,0.5-2.5,1.2-3.6,2.1v-4c1-0.8,2.2-1.5,3.5-1.9    c1.3-0.4,2.7-0.7,4.1-0.6c2.6,0,4.5,0.6,5.6,1.7s1.8,3,1.8,5.5v8.5c0,0.5,0,1,0.2,1.5c0.1,0.3,0.3,0.5,0.6,0.4    c0.3,0,0.5-0.1,0.8-0.2c0.5-0.3,0.9-0.6,1.3-0.9v2.4c-0.7,0.6-1.4,1-2.2,1.4c-0.7,0.3-1.5,0.4-2.3,0.4c-0.6,0-1.2-0.1-1.7-0.5    C307.4,148.4,307.1,147.8,307.1,147.3z M307,144.8v-5.9c-2,0.5-3.8,1.3-5.6,2.3c-0.9,0.5-1.5,1.4-1.5,2.5c0,0.7,0.3,1.4,0.8,1.9    c0.6,0.5,1.4,0.7,2.2,0.7c0.7,0,1.4-0.1,2.1-0.4C305.7,145.7,306.4,145.3,307,144.8z"/>
		<path d="M316.2,147.5v-4.3c1.1,0.7,2.2,1.4,3.5,1.8c1,0.4,2,0.6,3.1,0.6c0.8,0,1.7-0.2,2.4-0.6    c0.6-0.3,0.9-0.9,0.9-1.6c0-0.8-1.1-1.8-3.3-2.9c-0.6-0.3-1.1-0.6-1.5-0.8c-1.5-0.7-2.8-1.6-3.9-2.8c-0.7-0.9-1-2.1-1-3.3    c-0.1-1.5,0.6-3,1.8-4c1.4-1.1,3.2-1.6,5-1.5c1.1,0,2.2,0.1,3.3,0.4c1.1,0.3,2.1,0.7,3.1,1.2v3.9c-1.1-0.6-2.2-1.1-3.4-1.5    c-0.9-0.3-1.9-0.5-2.9-0.5c-0.7,0-1.4,0.1-2,0.4c-0.4,0.3-0.7,0.7-0.7,1.3c0,1,1.4,2.2,4.2,3.6l0.4,0.2c1.6,0.7,3,1.7,4.3,2.9    c0.7,0.9,1,2,1,3.2c0.1,1.6-0.7,3.2-2,4.2c-1.5,1.1-3.4,1.7-5.3,1.6c-1.2,0-2.4-0.1-3.6-0.4C318.4,148.6,317.3,148.1,316.2,147.5z    "/>
</g>
</svg>