<svg width="263" height="69" viewBox="0 0 263 69" fill="none" xmlns="http://www.w3.org/2000/svg">
<path d="M222.402 58.9996C217.587 56.2918 216 53 217 29.0892V7.55113H220.582C222.998 7.55113 224 7.43606 225 7.55116C225 8.4373 225.28 19.6545 225.28 30.5806V50.4482C225.28 50.4482 226.017 51.9486 228.478 51.9486C230.939 51.9486 231.431 50.4482 231.431 50.4482L231.932 29.2932V7.55113L236 7.55116L240 7.55115V29.0322C241 53 239.416 56.2908 234.598 58.9996C231.038 61.0001 225.962 61.0001 222.402 58.9996Z" fill="white"/>
<path d="M164 60.4999V55.0152V51.5162V29.5086V7.5H167.443C170.707 7.5 168.539 7.50005 172.007 7.50009C173.167 10.6932 173.856 14.7182 175.296 18.6049L180.341 33.2428L180.368 20.3714L180.395 7.5H184.474C187.853 7.5 187.511 7.50012 189 7.50012C189 8.50964 189 23.1477 189 36.2715V60.5C186.703 60.5 185.163 60.4999 185.163 60.4999C185.163 60.4999 181.824 60.5 180.23 60.5C180.23 59.0322 177.489 51.5162 177.489 51.5162C177.489 51.5162 176.602 47.7254 175.078 44.0194L172.305 37.2809L172.251 49.1428V60.4999H168.17C164.309 60.4999 166.526 60.4999 164 60.4999Z" fill="white"/>
<path d="M131 3.5C132.339 2.97195 134.126 2.05823 135.5 1.65974C139.5 0.500036 144 -3.56119e-05 146 1.9021e-09C145 0.5 141.117 1.65972 141.117 1.65972C141.117 1.65972 136.13 3.58717 133.145 5.29172C131.231 6.38478 130.187 7.0401 128.5 8.50004C123.454 12.867 121.635 20.8523 121 24V29.5L125.555 26.5C132.173 22.344 146 18.5 149.5 18C151.724 17.6823 156 17.5 158.5 17.5C155.5 18 153.623 18.3509 152.922 18.5C152 18.6962 139.415 21.2868 131.6 26.0217C126.941 28.8446 121.349 32.229 121.349 33.5C121.349 36.204 122.891 39.129 127 35.5C142 24.5 152 27.5 152 27.5C152 27.5 147.5 27.1489 141.422 30C138.725 31.2649 128.632 35.539 126.711 40.5C125.127 44.592 130.5 50.5 135 52.8988C139 55.5 148.711 57.8988 155.711 55.5L163.211 53.1647C163.211 53.1647 159 56 157.5 57C152.757 60.1623 139 60.7217 133.211 57.5C131.602 56.6047 127 54.5 127 54.5C125 52.8988 123 51 122 50C121 49 118.5 45.5 118 44.5L116 40.5L115.711 45.3907C115.5 50 119 52.8988 121.349 53.5C121.781 53.8677 123.436 54.5751 124.711 55C126.211 55.5 130.015 56.5 128.711 56.5C127.407 56.5 116.243 55.5 113.705 52.8988C113.316 52.5 111.997 51.3388 111.368 50.0057C110.739 48.6726 110.735 45.2034 111 43C111 43 111.434 41.1975 112 39.5C112.549 37.8553 113.968 36.164 114.5 35.5C114.5 33 114.5 32.247 114.5 29.5C115 16.5 122.5 9.50004 122.5 9.50004C122.5 9.50004 127.086 5.04337 131 3.5Z" fill="#FFCC00"/>
<path d="M64 60.4999V55.0152V51.5162V29.5086V7.5H67.3051C70.4391 7.5 68.3576 7.50005 71.687 7.50009C72.8006 10.6932 73.4613 14.7182 74.8444 18.6049L79.6876 33.2428L79.7132 20.3714L79.7388 7.5H83.6548C86.8989 7.5 86.5702 7.50012 88 7.50012C88 8.50964 88 23.1477 88 36.2715V60.5C85.7951 60.5 84.3164 60.4999 84.3164 60.4999C84.3164 60.4999 81.1106 60.5 79.5804 60.5C79.5804 59.0322 76.9493 51.5162 76.9493 51.5162C76.9493 51.5162 76.0982 47.7254 74.6345 44.0194L71.9727 37.2809L71.9205 49.1428V60.4999H68.0035C64.297 60.4999 66.4248 60.4999 64 60.4999Z" fill="white"/>
<path fill-rule="evenodd" clip-rule="evenodd" d="M37.5 10.5132C37.5 10.5132 32.3624 16 30.9323 20.7959C30.4137 22.5353 30 30.5661 30 34.9677C30 40.0686 30.9323 48.5709 32.4676 51.058C36.9859 60.3945 44.2648 63.1012 50.7435 57.8548C56.4831 53.2066 58.4081 48.2132 58.8956 36.7071C59.3955 24.903 58.1493 18.8324 54.0966 13.3299C51.7091 10.089 48.5262 8.10043 45.0131 7.55727C41.5 7.01411 37.5 10.5132 37.5 10.5132ZM47.3238 19.2205C50.6187 26.7725 51.2632 34.2965 49.3309 42.6457C46.5391 54.707 42.9822 55.4472 39.7195 44.6463C37.7488 38.1235 38.2508 26.0353 40.7236 20.4708C43.5102 14.2001 45.0091 13.916 47.3238 19.2205Z" fill="white"/>
<g filter="url(#filter0_d_19_48)">
<path d="M6.93912 17.5194C10.0693 11.0424 12.2743 8.50899 15.4995 7.68133C17.5166 7.16354 24.8599 7.83676 26.2499 8.66644C27.308 9.29829 27.189 18.0795 26.1219 18.0795C25.6399 18.0795 24.6849 17.3982 23.9998 16.5655C22.6848 14.9657 19.2416 14.5791 17.4076 15.8237C16.8075 16.2314 15.4575 18.8365 14.4074 21.6122C11.7343 28.6826 11.8913 40.185 14.7484 46.5933C16.7085 50.988 17.1785 51.3877 20.3847 51.3877C22.3078 51.3877 24.1598 50.9335 24.4999 50.3783C24.8399 49.8232 25.7659 49.369 26.5589 49.369C27.59 49.369 28 50.6034 28 53.7081C28 57.7071 27.739 58.1432 24.6789 59.2595C16.3655 62.2936 11.0353 59.8358 6.92812 51.0717C5.42931 47.8735 4.00074 41.3128 4 34.2138C3.99922 26.6774 5.43999 20.6214 6.93912 17.5194Z" fill="white"/>
</g>
<path d="M245.002 19.7308C244.981 13.4039 246.136 8.99619 250.514 8.00963C252.089 7.65525 254.082 7.57803 254.423 7.51165C254.763 7.44526 260.117 7.66954 261.765 8.00963C261.765 10.5577 261.765 9.02885 261.765 12.5962V15.6538L257.028 14.6346C252.922 14.4283 252.28 17.3879 252.017 19.7308C251.849 21.2249 254.098 25.8205 257.028 31.9615C262.548 43.5266 264.149 49.5457 262.213 54.3692C260.524 58.579 256.643 60.5 252.017 60.5C248.009 60.5 247.508 59.9904 244 58.4615C244 56.5763 244 52.2715 244 51.3269C246.004 51.3269 248.51 53.875 250.013 54.3692C252.397 55.153 254.523 53.3654 254.523 53.3654C254.523 53.3654 255.024 53.3654 255.525 48.7788C256.026 44.1923 250.902 35.675 247.006 28.3942C246.078 26.6591 245.012 22.7538 245.002 19.7308Z" fill="white"/>
<path d="M93.0022 19.7308C92.9814 13.4039 94.1357 8.99619 98.5141 8.00963C100.089 7.65525 102.082 7.57803 102.423 7.51165C102.763 7.44526 108.117 7.66954 109.765 8.00963C109.765 10.5577 109.765 9.02885 109.765 12.5962V15.6538L105.028 14.6346C100.922 14.4283 100.28 17.3879 100.017 19.7308C99.8491 21.2249 102.098 25.8205 105.028 31.9615C110.548 43.5266 112.149 49.5457 110.213 54.3692C108.524 58.579 104.643 60.5 100.017 60.5C96.0087 60.5 95.5076 59.9904 92 58.4615C92 56.5763 92 52.2715 92 51.3269C94.0043 51.3269 96.5098 53.875 98.013 54.3692C100.397 55.153 102.523 53.3654 102.523 53.3654C102.523 53.3654 103.024 53.3654 103.525 48.7788C104.026 44.1923 98.9021 35.675 95.0065 28.3942C94.0776 26.6591 93.0121 22.7538 93.0022 19.7308Z" fill="white"/>
<path d="M195.002 20.2308C194.981 13.9039 196.136 9.49619 200.514 8.50963C202.089 8.15525 204.082 8.07803 204.423 8.01165C204.763 7.94526 210.117 8.16954 211.765 8.50963C211.765 11.0577 211.765 9.52885 211.765 13.0962V16.1538L207.028 15.1346C202.922 14.9283 202.28 17.8879 202.017 20.2308C201.849 21.7249 204.098 26.3205 207.028 32.4615C212.548 44.0266 214.149 50.0457 212.213 54.8692C210.524 59.079 206.643 61 202.017 61C198.009 61 197.508 60.4904 194 58.9615C194 57.0763 194 52.7715 194 51.8269C196.004 51.8269 198.51 54.375 200.013 54.8692C202.397 55.653 204.523 53.8654 204.523 53.8654C204.523 53.8654 205.024 53.8654 205.525 49.2788C206.026 44.6923 200.902 36.175 197.006 28.8942C196.078 27.1591 195.012 23.2538 195.002 20.2308Z" fill="white"/>
</svg>
