<svg width="200" height="56" viewBox="0 0 200 56" fill="none" xmlns="http://www.w3.org/2000/svg">
<path d="M98.8389 5.54089C100.176 5.54089 101.328 5.79979 102.295 6.31756C103.262 6.82672 104.008 7.56887 104.534 8.54401C105.061 9.51916 105.324 10.71 105.324 12.1167V14.0325H95.9911C96.0343 15.1456 96.3665 16.0215 96.9879 16.6601C97.6178 17.2902 98.4894 17.6052 99.6025 17.6052C100.526 17.6052 101.372 17.5102 102.14 17.3203C102.908 17.1305 103.697 16.8456 104.508 16.4659V19.5209C103.792 19.8748 103.041 20.1336 102.256 20.2975C101.479 20.4615 100.535 20.5435 99.4213 20.5435C97.9715 20.5435 96.6858 20.276 95.5639 19.7409C94.4507 19.2059 93.5748 18.3904 92.9362 17.2945C92.3062 16.1985 91.9913 14.8177 91.9913 13.1522C91.9913 11.4608 92.276 10.0542 92.8456 8.93234C93.4238 7.80186 94.2264 6.95615 95.2532 6.39524C96.2803 5.82567 97.4754 5.54089 98.8389 5.54089ZM98.8648 8.34984C98.0967 8.34984 97.4581 8.59578 96.949 9.08767C96.4485 9.57956 96.1593 10.3519 96.0816 11.4047H101.622C101.613 10.8179 101.505 10.2958 101.298 9.83846C101.1 9.38109 100.798 9.01863 100.392 8.75112C99.9952 8.4836 99.486 8.34984 98.8648 8.34984Z" fill="#20DDA2"/>
<path d="M112.482 20.2853H108.533V0.143799H112.482V20.2853Z" fill="#20DDA2"/>
<path d="M122.605 5.54089C123.943 5.54089 125.095 5.79979 126.061 6.31756C127.028 6.82672 127.774 7.56887 128.301 8.54401C128.827 9.51916 129.09 10.71 129.09 12.1167V14.0325H119.757C119.801 15.1456 120.133 16.0215 120.754 16.6601C121.384 17.2902 122.256 17.6052 123.369 17.6052C124.292 17.6052 125.138 17.5102 125.906 17.3203C126.674 17.1305 127.464 16.8456 128.275 16.4659V19.5209C127.559 19.8748 126.808 20.1336 126.023 20.2975C125.246 20.4615 124.301 20.5435 123.188 20.5435C121.738 20.5435 120.452 20.276 119.33 19.7409C118.217 19.2059 117.341 18.3904 116.703 17.2945C116.073 16.1985 115.758 14.8177 115.758 13.1522C115.758 11.4608 116.042 10.0542 116.612 8.93234C117.19 7.80186 117.993 6.95615 119.02 6.39524C120.047 5.82567 121.242 5.54089 122.605 5.54089ZM122.631 8.34984C121.863 8.34984 121.224 8.59578 120.715 9.08767C120.215 9.57956 119.926 10.3519 119.848 11.4047H125.388C125.38 10.8179 125.272 10.2958 125.065 9.83846C124.866 9.38109 124.564 9.01863 124.158 8.75112C123.762 8.4836 123.252 8.34984 122.631 8.34984Z" fill="#20DDA2"/>
<path d="M140.3 8.77633H136.883V20.2839H132.935V8.77633H130.76V6.8735L132.935 5.81206V4.75061C132.935 3.51657 133.142 2.55868 133.556 1.87695C133.979 1.18657 134.57 0.703314 135.33 0.427167C136.098 0.142388 137.004 0 138.048 0C138.816 0 139.515 0.0647216 140.145 0.194167C140.775 0.314981 141.288 0.453056 141.685 0.608389L140.676 3.50795C140.374 3.41302 140.046 3.32673 139.692 3.24905C139.338 3.17138 138.932 3.13256 138.475 3.13256C137.923 3.13256 137.517 3.30083 137.258 3.63738C137.008 3.96532 136.883 4.38816 136.883 4.90594V5.81206H140.3V8.77633Z" fill="#20DDA2"/>
<path d="M148.508 5.5155C150.45 5.5155 151.938 5.93836 152.973 6.78406C154.01 7.62975 154.528 8.91556 154.528 10.6415V20.285H151.77L151.006 18.3176H150.903C150.489 18.8353 150.066 19.2582 149.634 19.5861C149.203 19.914 148.707 20.1557 148.146 20.311C147.585 20.4663 146.903 20.544 146.1 20.544C145.246 20.544 144.478 20.38 143.796 20.0521C143.123 19.7241 142.592 19.2237 142.204 18.5505C141.816 17.8689 141.622 17.0058 141.622 15.9617C141.622 14.4256 142.161 13.2951 143.24 12.5702C144.318 11.8367 145.936 11.4311 148.094 11.3534L150.605 11.2758V10.6415C150.605 9.88209 150.407 9.32548 150.01 8.97167C149.613 8.61785 149.06 8.44094 148.353 8.44094C147.654 8.44094 146.968 8.54018 146.295 8.73866C145.621 8.93715 144.948 9.18741 144.275 9.48944L142.968 6.82289C143.736 6.4173 144.595 6.098 145.544 5.865C146.502 5.63201 147.49 5.5155 148.508 5.5155ZM150.605 13.5799L149.078 13.6317C147.8 13.6662 146.912 13.8949 146.411 14.3177C145.919 14.7406 145.673 15.2971 145.673 15.9875C145.673 16.5916 145.85 17.0231 146.204 17.282C146.558 17.5322 147.019 17.6574 147.589 17.6574C148.435 17.6574 149.147 17.4072 149.725 16.9066C150.312 16.4061 150.605 15.6942 150.605 14.7708V13.5799Z" fill="#20DDA2"/>
<path d="M166.823 5.54089C168.368 5.54089 169.61 5.96375 170.551 6.80945C171.491 7.64653 171.961 8.99276 171.961 10.8481V20.2846H168.013V11.8319C168.013 10.7964 167.824 10.0154 167.444 9.48895C167.073 8.96254 166.487 8.69934 165.684 8.69934C164.476 8.69934 163.652 9.10925 163.212 9.92908C162.772 10.7489 162.552 11.9311 162.552 13.4759V20.2846H158.604V5.81274H161.62L162.151 7.66379H162.371C162.681 7.16327 163.065 6.75768 163.522 6.44701C163.989 6.13634 164.502 5.90766 165.062 5.76095C165.632 5.61425 166.22 5.54089 166.823 5.54089Z" fill="#20DDA2"/>
<path d="M182.122 17.3983C182.554 17.3983 182.972 17.3551 183.378 17.2689C183.792 17.1826 184.201 17.0747 184.607 16.9454V19.8837C184.184 20.0736 183.657 20.2289 183.028 20.3496C182.407 20.4791 181.725 20.5438 180.983 20.5438C180.12 20.5438 179.343 20.4058 178.653 20.1296C177.97 19.8449 177.432 19.3573 177.035 18.6669C176.647 17.968 176.453 16.9971 176.453 15.7544V8.77736H174.563V7.10752L176.737 5.78719L177.876 2.7323H180.401V5.81308H184.451V8.77736H180.401V15.7544C180.401 16.3067 180.555 16.7209 180.867 16.9971C181.186 17.2646 181.604 17.3983 182.122 17.3983Z" fill="#20DDA2"/>
<path d="M193.514 5.54089C194.853 5.54089 196.005 5.79979 196.971 6.31756C197.937 6.82672 198.684 7.56887 199.211 8.54401C199.737 9.51916 200 10.71 200 12.1167V14.0325H190.667C190.71 15.1456 191.043 16.0215 191.664 16.6601C192.295 17.2902 193.166 17.6052 194.279 17.6052C195.201 17.6052 196.047 17.5102 196.815 17.3203C197.585 17.1305 198.374 16.8456 199.185 16.4659V19.5209C198.469 19.8748 197.717 20.1336 196.933 20.2975C196.156 20.4615 195.211 20.5435 194.098 20.5435C192.647 20.5435 191.362 20.276 190.24 19.7409C189.127 19.2059 188.25 18.3904 187.612 17.2945C186.983 16.1985 186.667 14.8177 186.667 13.1522C186.667 11.4608 186.953 10.0542 187.522 8.93234C188.101 7.80186 188.902 6.95615 189.93 6.39524C190.956 5.82567 192.151 5.54089 193.514 5.54089ZM193.54 8.34984C192.772 8.34984 192.134 8.59578 191.626 9.08767C191.125 9.57956 190.835 10.3519 190.757 11.4047H196.298C196.29 10.8179 196.182 10.2958 195.974 9.83846C195.776 9.38109 195.475 9.01863 195.069 8.75112C194.672 8.4836 194.162 8.34984 193.54 8.34984Z" fill="#20DDA2"/>
<path d="M98.2044 30.2229C99.9046 30.2229 101.306 30.4279 102.408 30.838C103.519 31.2482 104.343 31.8676 104.882 32.6965C105.42 33.5252 105.689 34.5719 105.689 35.8363C105.689 36.6908 105.527 37.4384 105.202 38.0792C104.877 38.72 104.45 39.2626 103.92 39.7068C103.391 40.1511 102.818 40.5143 102.203 40.7963L107.714 48.9602H103.305L98.8323 41.7703H96.7176V48.9602H92.7447V30.2229H98.2044ZM97.9224 33.4782H96.7176V38.5406H97.9993C99.315 38.5406 100.255 38.3227 100.819 37.887C101.391 37.4427 101.677 36.7933 101.677 35.9389C101.677 35.0504 101.37 34.418 100.755 34.0421C100.148 33.6663 99.204 33.4782 97.9224 33.4782ZM115.673 34.3626C116.997 34.3626 118.138 34.6189 119.095 35.1314C120.052 35.6356 120.791 36.3704 121.312 37.3359C121.833 38.3013 122.094 39.4804 122.094 40.8731V42.7699H112.853C112.896 43.8722 113.225 44.7393 113.84 45.3717C114.464 45.9954 115.327 46.3073 116.429 46.3073C117.343 46.3073 118.18 46.2132 118.941 46.0253C119.701 45.8373 120.483 45.5554 121.286 45.1793V48.204C120.577 48.5543 119.834 48.8106 119.056 48.9731C118.287 49.1353 117.352 49.2166 116.249 49.2166C114.814 49.2166 113.541 48.9517 112.43 48.4219C111.328 47.8921 110.461 47.0847 109.829 45.9996C109.205 44.9146 108.893 43.5474 108.893 41.8984C108.893 40.2238 109.175 38.8311 109.739 37.7204C110.311 36.601 111.106 35.7638 112.123 35.2084C113.139 34.6444 114.323 34.3626 115.673 34.3626ZM115.698 37.1436C114.938 37.1436 114.306 37.3872 113.802 37.8742C113.306 38.3612 113.02 39.1259 112.943 40.1682H118.428C118.42 39.5873 118.313 39.0703 118.108 38.6175C117.911 38.1647 117.612 37.8058 117.211 37.5409C116.818 37.276 116.314 37.1436 115.698 37.1436ZM128.681 48.9602L123.221 34.6316H127.31L130.078 42.7955C130.232 43.274 130.352 43.7781 130.437 44.3079C130.531 44.8376 130.595 45.3118 130.629 45.7305H130.732C130.757 45.2776 130.817 44.7949 130.911 44.2822C131.014 43.7696 131.146 43.274 131.308 42.7955L134.064 34.6316H138.152L132.693 48.9602H128.681ZM157.531 39.5659C157.531 41.0099 157.351 42.3256 156.992 43.5132C156.633 44.6923 156.086 45.7091 155.352 46.5636C154.625 47.4179 153.703 48.0758 152.583 48.5372C151.464 48.99 150.14 49.2166 148.61 49.2166C147.081 49.2166 145.757 48.99 144.637 48.5372C143.518 48.0758 142.591 47.4179 141.856 46.5636C141.13 45.7091 140.587 44.688 140.229 43.5004C139.87 42.3128 139.69 40.9928 139.69 39.5403C139.69 37.6007 140.006 35.9133 140.639 34.4779C141.28 33.0339 142.262 31.9147 143.586 31.12C144.911 30.3254 146.594 29.9281 148.636 29.9281C150.67 29.9281 152.34 30.3254 153.647 31.12C154.963 31.9147 155.937 33.0339 156.569 34.4779C157.21 35.9218 157.531 37.6178 157.531 39.5659ZM143.856 39.5659C143.856 40.8731 144.018 42.001 144.343 42.9494C144.676 43.8893 145.193 44.6155 145.893 45.1282C146.594 45.6323 147.5 45.8842 148.61 45.8842C149.738 45.8842 150.652 45.6323 151.353 45.1282C152.054 44.6155 152.562 43.8893 152.879 42.9494C153.203 42.001 153.366 40.8731 153.366 39.5659C153.366 37.6007 152.998 36.0543 152.263 34.9264C151.528 33.7986 150.319 33.2347 148.636 33.2347C147.517 33.2347 146.603 33.491 145.893 34.0037C145.193 34.5078 144.676 35.234 144.343 36.1824C144.018 37.1223 143.856 38.25 143.856 39.5659ZM169.077 34.3626C170.692 34.3626 171.996 34.9905 172.987 36.2465C173.987 37.5024 174.486 39.3438 174.486 41.7703C174.486 43.3937 174.251 44.7607 173.781 45.8715C173.311 46.9737 172.662 47.8066 171.833 48.3706C171.004 48.9346 170.051 49.2166 168.975 49.2166C168.283 49.2166 167.689 49.1311 167.193 48.9602C166.699 48.7807 166.276 48.5543 165.925 48.2808C165.575 47.999 165.271 47.6999 165.015 47.3837H164.81C164.879 47.7256 164.929 48.0758 164.964 48.4347C164.998 48.7935 165.015 49.1439 165.015 49.4856V55.2657H161.106V34.6316H164.285L164.836 36.4901H165.015C165.271 36.1055 165.583 35.751 165.951 35.4262C166.318 35.1017 166.758 34.8453 167.271 34.6572C167.792 34.4608 168.395 34.3626 169.077 34.3626ZM167.822 37.4897C167.138 37.4897 166.596 37.6307 166.195 37.9126C165.793 38.1946 165.497 38.6175 165.309 39.1813C165.131 39.7453 165.031 40.4587 165.015 41.3218V41.7447C165.015 42.6674 165.1 43.4493 165.271 44.09C165.451 44.7308 165.746 45.2178 166.155 45.5511C166.575 45.8842 167.147 46.0509 167.873 46.0509C168.471 46.0509 168.963 45.8842 169.347 45.5511C169.731 45.2178 170.018 44.7308 170.205 44.09C170.402 43.4407 170.5 42.6503 170.5 41.719C170.5 40.3178 170.282 39.2626 169.847 38.5534C169.412 37.8442 168.737 37.4897 167.822 37.4897ZM187.712 44.7051C187.712 45.6792 187.482 46.5037 187.021 47.1787C186.567 47.8451 185.888 48.3535 184.982 48.7039C184.077 49.0456 182.949 49.2166 181.599 49.2166C180.599 49.2166 179.741 49.1524 179.024 49.0242C178.314 48.8961 177.596 48.6825 176.87 48.3834V45.1538C177.648 45.5041 178.48 45.7946 179.369 46.0253C180.266 46.2474 181.053 46.3584 181.728 46.3584C182.488 46.3584 183.03 46.2474 183.355 46.0253C183.688 45.7946 183.854 45.4955 183.854 45.1282C183.854 44.8889 183.787 44.6754 183.65 44.4873C183.521 44.2908 183.239 44.0729 182.804 43.8337C182.369 43.5859 181.685 43.2654 180.754 42.8725C179.856 42.4966 179.117 42.1163 178.537 41.7319C177.964 41.3473 177.537 40.8945 177.254 40.3732C176.981 39.8436 176.845 39.1729 176.845 38.3612C176.845 37.0368 177.357 36.0415 178.383 35.3749C179.416 34.7 180.796 34.3626 182.521 34.3626C183.41 34.3626 184.256 34.4522 185.059 34.6316C185.871 34.8111 186.705 35.0974 187.558 35.4904L186.379 38.3099C185.671 38.0023 184.999 37.7502 184.367 37.5537C183.744 37.3572 183.108 37.2589 182.457 37.2589C181.885 37.2589 181.454 37.3359 181.164 37.4897C180.873 37.6435 180.728 37.8784 180.728 38.1946C180.728 38.4253 180.801 38.6304 180.946 38.8097C181.1 38.9891 181.39 39.1899 181.818 39.4122C182.253 39.6258 182.889 39.9033 183.726 40.2452C184.538 40.5784 185.244 40.9287 185.842 41.2961C186.439 41.6549 186.902 42.1035 187.225 42.6418C187.55 43.1716 187.712 43.8593 187.712 44.7051Z" fill="#20DDA2"/>
<path d="M62.6002 27.5251V40.2711C62.6002 41.5795 62.7975 41.7163 64.0708 41.2999C66.9518 40.39 69.4027 37.3032 69.4385 34.2519C69.5162 29.5831 69.4564 24.9319 69.4804 20.257C69.4982 17.1106 71.2677 14.8743 74.2145 14.238C74.4358 14.1963 74.6509 14.1606 74.8721 14.1368C75.6074 14.0952 76.2828 14.2736 76.3845 15.1063C76.486 15.8973 75.966 16.3553 75.1889 16.4505C72.7799 16.7479 71.8295 18.0921 71.8055 20.6257C71.8055 25.3185 71.8474 30.029 71.7278 34.7159C71.6263 38.576 68.1892 42.5134 64.4653 43.6018C59.4141 45.0648 53.9029 42.8106 51.2788 38.2012C50.7588 37.2913 50.2865 36.3397 50.167 35.2749C50.149 35.0549 50.167 34.7575 49.9099 34.704C49.5513 34.6446 49.5513 35.0014 49.4736 35.2215C48.7204 37.0415 48.4814 38.9804 48.1585 40.9015C47.7221 43.572 47.5847 46.2842 47.5429 48.9962C47.5249 50.6794 47.1843 51.0126 45.4925 51.0126H37.7935C36.4426 51.0126 36.084 50.733 35.7432 49.4662C35.1455 47.1109 34.5298 44.7735 33.9918 42.4002C33.2387 39.0934 30.5307 37.0177 27.1475 37.196C24.9776 37.3151 22.7898 39.0161 22.0189 41.2525C21.2418 43.5303 20.7037 45.8619 20.1717 48.1814C19.5143 50.9353 19.5143 50.9888 16.6928 50.9888H10.1474C8.39603 50.9888 8.01945 50.6141 8.00151 48.8298C7.98359 47.0098 8.00151 45.1899 8.00151 43.3699V36.2861C8.00151 33.9308 8.12107 31.5754 8.73675 29.2618C9.07746 28.0367 8.85631 27.8582 7.60103 27.9771C4.97688 28.2328 2.80704 30.3502 2.49024 32.9256C2.4484 33.2052 2.38862 33.4966 2.32885 33.7762C2.16746 34.4482 1.77294 34.8824 1.0377 34.7873C0.284532 34.6682 -0.0382538 34.1151 0.00358889 33.4014C0.123139 31.522 0.7986 29.8567 2.05389 28.453C3.74551 26.5735 5.85558 25.5445 8.41994 25.6813C9.59154 25.7408 10.2072 25.3066 10.7093 24.2539C11.7614 21.9997 13.453 20.2153 15.3838 18.6155C18.0079 16.4386 20.9906 15.0706 24.3141 14.4223C25.1271 14.2617 25.964 14.1428 26.8008 14.1666C27.7752 14.2082 27.8768 13.7086 27.8768 12.9176C27.8588 9.33705 27.8588 5.77436 27.8588 2.19385C27.8588 0.587977 28.1397 0.314383 29.7657 0.314383C35.6715 0.308435 41.5773 0.350069 47.483 0.290591C54.405 0.231115 60.6515 4.98333 62.2834 12.186C62.4807 13.1138 62.6242 14.0655 62.6002 15.0349C62.5822 19.2103 62.6002 23.3677 62.6002 27.5251ZM60.0717 27.1861H60.0538V14.4402C60.0538 12.0254 59.1392 9.86639 57.7644 7.95122C55.2358 4.43019 51.6972 2.72914 47.3815 2.68751C41.9539 2.62803 36.5203 2.66968 31.1106 2.66968C30.453 2.66968 30.1961 2.94922 30.2139 3.57967C30.3156 7.08286 30.0167 10.6039 30.3933 14.1071C30.7938 17.7292 32.6408 20.3225 35.8209 22.0413C37.2913 22.8324 38.8814 23.1298 40.5133 23.2903C41.3083 23.3677 41.8044 23.784 41.7267 24.5988C41.649 25.4136 41.0513 25.6872 40.2742 25.6872C38.6841 25.6457 37.1539 25.3483 35.7014 24.7177C32.2403 23.2309 29.8553 20.7625 28.5582 17.2356C28.337 16.623 27.9425 16.4624 27.2849 16.4862C23.5072 16.7062 20.0462 17.8126 17.0813 20.2094C13.2797 23.2785 10.9126 27.2336 10.6376 32.0811C10.3567 37.2675 10.5778 42.4896 10.536 47.6938C10.536 48.3837 10.793 48.6633 11.4924 48.6454C13.2199 48.6275 14.9534 48.6275 16.7048 48.6454C17.4401 48.6633 17.6792 48.3063 17.8405 47.6581C18.3964 45.3622 18.9164 43.0665 19.6099 40.8123C20.8831 36.6786 24.6011 34.5969 28.0442 34.7933C32.4017 35.0311 35.5638 37.8978 36.4008 41.978C36.8012 43.917 37.3333 45.8202 37.8115 47.7353C37.9489 48.3301 38.2718 48.6633 38.9472 48.6454C40.6747 48.6275 42.4081 48.6275 44.1595 48.6454C44.9127 48.6633 45.1519 48.348 45.1757 47.6164C45.2534 44.9044 45.4746 42.216 45.9288 39.5216C46.5027 36.1374 47.3815 32.8542 49.1328 29.8447C49.653 28.9525 49.8502 28.0426 49.8084 27.0136C49.7665 25.7646 49.7904 24.5216 49.8084 23.2726C49.8262 22.6004 50.1849 22.184 50.8842 22.1662C51.6017 22.1484 52.038 22.5231 52.1395 23.213C52.1813 23.4926 52.1575 23.784 52.1575 24.0814C52.1575 26.8351 52.1395 29.5831 52.1575 32.313C52.1994 36.411 54.6621 39.8309 58.4818 41.1393C59.8744 41.6152 60.0358 41.5141 60.0358 40.0688C60.0777 35.8162 60.0777 31.4982 60.0777 27.1861H60.0717Z" fill="#20DDA2"/>
</svg>
