<svg width="252" height="53" viewBox="0 0 252 53" fill="none" xmlns="http://www.w3.org/2000/svg">
<g clip-path="url(#clip0_40_46)">
<path d="M47.6512 17.3403C47.6512 16.2521 48.0322 15.3207 48.7942 14.5461C49.5562 13.7763 50.4969 13.3914 51.621 13.3914C52.7451 13.3914 53.6247 13.7763 54.3867 14.5461C55.1486 15.316 55.5296 16.2474 55.5296 17.3403C55.5296 18.4333 55.1486 19.4265 54.3867 20.1963C53.6247 20.9662 52.7028 21.3511 51.621 21.3511C50.5392 21.3511 49.5562 20.9662 48.7942 20.1963C48.0322 19.4265 47.6512 18.4713 47.6512 17.3403ZM47.6512 36.9474C47.6512 35.8545 48.0322 34.9231 48.7942 34.158C49.5562 33.3881 50.4969 33.0032 51.621 33.0032C52.7451 33.0032 53.6247 33.3881 54.3867 34.158C55.1486 34.9278 55.5296 35.8592 55.5296 36.9474C55.5296 38.0357 55.1486 39.0336 54.3867 39.8034C53.6247 40.5733 52.7028 40.9582 51.621 40.9582C50.5392 40.9582 49.5562 40.5733 48.7942 39.8034C48.0322 39.0336 47.6512 38.0832 47.6512 36.9474Z" fill="#00D7C8"/>
<path d="M60.4965 48.438V4.56197C60.4965 3.45948 60.8822 2.52332 61.6489 1.74873C62.4156 0.974144 63.3469 0.584473 64.4381 0.584473H72.9985C76.1404 0.584473 78.8778 1.63944 81.2061 3.75411C82.1233 4.638 83.0169 5.8878 83.8824 7.50826C84.7478 9.12397 85.1806 11.2814 85.1806 13.9806V39.0241C85.1806 41.7185 84.7478 43.8712 83.8824 45.4774C83.0169 47.0884 82.1233 48.3334 81.2061 49.2173C78.8778 51.332 76.1404 52.4012 72.9985 52.4202H64.4381C63.3469 52.4202 62.4156 52.0306 61.6489 51.256C60.8775 50.4814 60.4965 49.5405 60.4965 48.4427M68.3749 44.4605H72.9843C73.2807 44.4605 73.6852 44.4082 74.1837 44.2989C74.687 44.1896 75.1668 43.9473 75.623 43.5719C76.084 43.1964 76.4791 42.65 76.8083 41.9371C77.1375 41.2243 77.3022 40.2549 77.3022 39.0241V13.9806C77.3022 12.7498 77.1375 11.7804 76.8083 11.0676C76.4791 10.3548 76.0793 9.81302 75.623 9.43286C75.1621 9.05744 74.6823 8.81508 74.1837 8.70579C73.6805 8.59649 73.2807 8.54421 72.9843 8.54421H68.3749V44.4605Z" fill="#00D7C8"/>
<path d="M0 48.6281V4.82331C0 3.72083 0.385688 2.78467 1.15236 2.00533C1.91903 1.23074 2.85033 0.841064 3.93684 0.841064C5.02335 0.841064 5.95464 1.23074 6.72132 2.00533C7.48799 2.77992 7.87368 3.72083 7.87368 4.82331V20.548L18.64 2.91297C19.2185 1.94355 20.0275 1.34003 21.0717 1.10243C21.3916 1.0359 21.702 0.993131 22.003 0.974122C22.7321 0.974122 23.4235 1.17846 24.0867 1.58714C25.0039 2.1669 25.5918 2.98901 25.8458 4.04397C25.9305 4.36711 25.9728 4.68075 25.9728 4.98488C25.9728 5.6977 25.7564 6.37724 25.3331 7.02353L15.6956 22.848L27.6425 46.5657C27.92 47.1692 28.0611 47.7822 28.0611 48.4095C28.0611 48.8181 27.9953 49.2363 27.8683 49.6688C27.5485 50.7047 26.8759 51.4603 25.8505 51.9355C25.319 52.1969 24.7311 52.3347 24.0914 52.3584C23.3435 52.3584 22.6662 52.1684 22.0548 51.7929C21.448 51.4175 20.973 50.871 20.6296 50.1582L10.8933 30.8125L7.88308 35.7309V48.6423C7.88308 49.7448 7.5021 50.681 6.74483 51.4555C5.98757 52.2301 5.05157 52.6198 3.94154 52.6198C2.83151 52.6198 1.92374 52.2301 1.15706 51.4555C0.390391 50.681 0.00470351 49.74 0.00470351 48.6423" fill="#0D0D0D"/>
<path d="M34.1052 48.438V4.56197C34.1052 3.45948 34.4909 2.52332 35.2575 1.74873C36.0242 0.974144 36.9555 0.584473 38.042 0.584473C39.1285 0.584473 40.1115 0.974144 40.8594 1.74873C41.6073 2.52332 41.9788 3.46424 41.9788 4.56197V48.4332C41.9788 49.5357 41.6073 50.4719 40.8594 51.2465C40.1115 52.0211 39.1708 52.4107 38.042 52.4107C36.9132 52.4107 36.0242 52.0211 35.2575 51.2465C34.4909 50.4719 34.1052 49.531 34.1052 48.4332" fill="#0D0D0D"/>
<path d="M90.7872 39.4756C90.7872 38.3731 91.1682 37.4369 91.9254 36.6623C92.6874 35.8877 93.6234 35.4981 94.7381 35.4981C95.8528 35.4981 96.8124 35.8877 97.5508 36.6623C98.2893 37.4369 98.6608 38.3778 98.6608 39.4756C98.6608 40.1028 98.7173 40.7301 98.8349 41.3669C98.9525 42.0037 99.1782 42.5929 99.5216 43.1299C99.8602 43.6669 100.368 44.0993 101.05 44.4225C101.728 44.7456 102.631 44.9072 103.755 44.9072C104.545 44.9072 105.279 44.8074 105.965 44.6173C106.647 44.4225 107.226 44.1231 107.692 43.7097C108.74 42.783 109.263 41.3907 109.263 39.5373C109.263 38.1782 109.084 36.9902 108.736 35.978C108.383 34.9658 107.87 34.0249 107.198 33.1648C106.525 32.3047 105.697 31.4826 104.714 30.708L101.422 28.2179C100.293 27.4195 99.1688 26.5879 98.0541 25.7278C96.9347 24.8677 95.8952 23.884 94.931 22.7815C93.7974 21.3559 92.9273 19.8875 92.3252 18.3668C91.7232 16.8461 91.4268 15.1782 91.4268 13.3676C91.4268 13.111 91.4363 12.6263 91.4598 11.9277C91.4786 11.2292 91.5915 10.4118 91.7984 9.48516C92.0007 8.5585 92.3299 7.58433 92.7909 6.55788C93.2518 5.53143 93.915 4.55725 94.7946 3.63059C95.5424 2.78947 96.6571 1.97687 98.1388 1.18802C99.6204 0.394423 101.539 0 103.886 0C106.233 0 108.214 0.408679 109.634 1.23079C111.055 2.0529 112.136 2.87026 112.884 3.68762C113.717 4.69981 114.342 5.77378 114.756 6.90953C115.175 8.04053 115.443 9.08123 115.575 10.0317C115.683 10.7445 115.725 11.3907 115.702 11.9753V12.5265C115.659 13.2393 115.617 13.6575 115.575 13.7906C115.448 14.5889 115.18 15.2447 114.775 15.7627C114.432 16.2569 113.961 16.6703 113.364 16.9935C113.002 17.1883 112.574 17.2833 112.085 17.2833C111.741 17.2833 111.379 17.2406 110.998 17.155C110.039 16.984 109.319 16.6656 108.853 16.1999C108.383 15.7342 108.073 15.2494 107.922 14.7457C107.772 14.2372 107.71 13.7858 107.729 13.3866C107.748 12.9874 107.762 12.7451 107.762 12.6596C107.804 12.4885 107.828 12.2461 107.828 11.9325C107.828 11.6188 107.795 11.2862 107.734 10.9298C107.673 10.5734 107.574 10.2265 107.447 9.87959C107.32 9.53268 107.146 9.2238 106.934 8.93867C106.403 8.27338 105.387 7.95024 103.891 7.96925C102.715 7.96925 101.902 8.12131 101.441 8.42069C100.98 8.72483 100.688 8.93867 100.561 9.06698C100.26 9.37111 100.034 9.72277 99.8743 10.1362C99.7144 10.5449 99.5921 10.9441 99.5075 11.3337C99.4228 11.7234 99.3664 12.0608 99.3476 12.3507C99.3287 12.6405 99.3146 12.8496 99.3146 12.9827V13.2441C99.3146 14.1279 99.4698 14.9358 99.7803 15.6676C100.091 16.4042 100.514 17.0885 101.06 17.7205C101.605 18.3573 102.292 18.9988 103.124 19.6451L105.942 21.717L109.719 24.5968C111.003 25.609 112.183 26.7732 113.275 28.0896C115.857 31.3685 117.15 35.1844 117.15 39.5421C117.15 40.9012 117.005 42.1225 116.718 43.2155C116.431 44.3037 116.078 45.2684 115.659 46.1095C115.241 46.9506 114.775 47.6777 114.253 48.2954C113.726 48.9085 113.214 49.4454 112.701 49.8969C110.246 51.8785 107.268 52.8717 103.764 52.8717C102.057 52.8717 100.458 52.6293 98.976 52.1446C97.4897 51.6599 96.1868 50.9091 95.0533 49.8969C94.5641 49.5072 94.0655 48.9987 93.5622 48.3762C93.059 47.7537 92.6027 47.0171 92.1841 46.176C91.7655 45.3349 91.4315 44.3655 91.1729 43.263C90.9189 42.1605 90.7872 40.9012 90.7872 39.4756Z" fill="#0D0D0D"/>
<path d="M123.039 40.445V13.3629C123.039 10.6684 123.477 8.51573 124.351 6.90952C125.226 5.30332 126.125 4.05352 127.042 3.16963C128.133 2.15744 129.375 1.37334 130.772 0.822102C132.169 0.27086 133.636 -0.00476074 135.174 -0.00476074C136.712 -0.00476074 138.166 0.261356 139.675 0.788837C141.181 1.32107 142.521 2.13368 143.692 3.23141C144.863 4.33389 145.828 5.7215 146.575 7.40374C147.323 9.08598 147.695 11.0723 147.695 13.3581C147.695 14.5034 147.309 15.449 146.543 16.2046C145.776 16.9602 144.845 17.3356 143.758 17.3356C142.672 17.3356 141.74 16.9649 140.974 16.2189C140.207 15.4775 139.821 14.5224 139.821 13.3581C139.821 12.1938 139.657 11.2292 139.323 10.5259C138.993 9.8273 138.598 9.28556 138.137 8.91015C137.676 8.53474 137.173 8.27812 136.632 8.14982C136.087 8.02151 135.602 7.95498 135.174 7.95498C134.873 7.95498 134.478 8.00725 133.989 8.11655C133.5 8.22585 133.025 8.46821 132.564 8.84362C132.103 9.21904 131.712 9.76077 131.393 10.4593C131.073 11.1626 130.913 12.1273 130.913 13.3581V40.1789C130.913 40.5448 130.955 40.9582 131.04 41.4239C131.124 41.8896 131.251 42.3506 131.425 42.8163C131.595 43.282 131.844 43.6764 132.159 43.9995C132.286 44.1278 132.568 44.3322 133.011 44.6126C133.448 44.8929 134.191 45.0355 135.235 45.0355C136.369 45.0355 137.15 44.8929 137.587 44.6126C138.025 44.3322 138.307 44.1088 138.438 43.933C139.059 43.3057 139.44 42.5312 139.591 41.6045C139.741 40.6778 139.817 39.9888 139.817 39.5326V38.8198C139.817 38.3873 139.929 37.9121 140.155 37.3941C140.376 36.8762 140.743 36.3962 141.246 35.9543C141.745 35.5123 142.479 35.27 143.438 35.2272H143.725C144.577 35.2272 145.263 35.4125 145.776 35.7784C146.331 36.1681 146.745 36.6101 147.027 37.1043C147.37 37.6888 147.591 38.3446 147.7 39.0764C147.7 39.2047 147.69 39.6371 147.667 40.3689C147.648 41.1055 147.535 41.9657 147.333 42.9588C147.131 43.952 146.787 45.0212 146.307 46.1617C145.828 47.307 145.127 48.3715 144.21 49.3646C143.462 50.2058 142.356 51.0184 140.894 51.8072C139.431 52.5961 137.545 52.9905 135.24 52.9905C132.935 52.9905 131.04 52.5913 129.619 51.793C128.199 50.9946 127.117 50.1868 126.369 49.3646C125.494 48.3952 124.817 47.3545 124.337 46.2425C123.858 45.1305 123.524 44.0803 123.326 43.0871C123.133 42.094 123.039 41.2101 123.039 40.4355" fill="#0D0D0D"/>
<path d="M153.523 40.3785V13.3629C153.523 10.7112 153.96 8.56801 154.835 6.94279C155.71 5.31283 156.608 4.07729 157.525 3.23617C159.745 1.12149 162.459 0.0665283 165.658 0.0665283C167.153 0.0665283 168.64 0.332645 170.126 0.860126C171.612 1.38761 172.939 2.20021 174.115 3.3027C175.29 4.40518 176.25 5.79279 176.998 7.47503C177.746 9.15727 178.117 11.1436 178.117 13.4294V39.2142C178.117 39.4756 178.108 39.9698 178.084 40.7016C178.065 41.4382 177.943 42.2745 177.717 43.225C177.496 44.1754 177.144 45.1876 176.664 46.2663C176.179 47.345 175.502 48.3477 174.627 49.2744C173.879 50.1155 172.774 50.9376 171.311 51.7312C169.848 52.5295 167.962 52.9287 165.658 52.9287C163.353 52.9287 161.457 52.5295 160.037 51.7312C158.616 50.9328 157.535 50.1155 156.787 49.2744C155.912 48.3049 155.244 47.269 154.783 46.1665C154.322 45.0688 153.998 44.0233 153.809 43.0301C153.617 42.0369 153.518 41.1531 153.518 40.3785M161.396 40.1504C161.396 40.54 161.439 40.9535 161.523 41.3954C161.608 41.8374 161.735 42.2888 161.909 42.7545C162.078 43.2202 162.323 43.6099 162.643 43.933C162.77 44.0613 163.052 44.2657 163.494 44.546C163.931 44.8264 164.651 44.969 165.658 44.969C166.791 44.969 167.586 44.8169 168.042 44.5175C168.503 44.2134 168.795 43.9996 168.922 43.8712C169.223 43.5671 169.463 43.1917 169.642 42.7403C169.825 42.2888 169.957 41.8421 170.041 41.3954C170.126 40.9535 170.178 40.5686 170.201 40.2454C170.22 39.9223 170.234 39.6847 170.234 39.5326V13.4294C170.234 12.2414 170.07 11.3005 169.74 10.5971C169.406 9.89859 169.011 9.34735 168.555 8.94818C168.094 8.549 167.605 8.29239 167.083 8.18784C166.556 8.0833 166.086 8.02627 165.658 8.02627C165.314 8.02627 164.9 8.0833 164.407 8.18784C163.917 8.29714 163.452 8.52999 163.014 8.88165C162.577 9.23805 162.196 9.77979 161.876 10.4974C161.556 11.2197 161.396 12.1748 161.396 13.3629V40.1504Z" fill="#0D0D0D"/>
<path d="M183.724 48.3715V4.6285C183.724 3.53076 184.11 2.58985 184.876 1.81526C185.643 1.04067 186.574 0.651001 187.661 0.651001H197.171C198.836 0.651001 200.435 1.12621 201.959 2.07663C203.488 3.02704 204.828 4.38614 205.981 6.15392C207.942 9.28079 208.925 12.8639 208.925 16.8984C208.925 18.8373 208.676 20.7191 208.173 22.5296C207.669 24.3402 206.94 26.0224 205.981 27.5763C205.553 28.2464 205.092 28.8451 204.603 29.3726C204.114 29.9049 203.629 30.3801 203.163 30.8125L210.049 46.7938C210.303 47.3355 210.435 47.8725 210.435 48.4142C210.435 48.8894 210.336 49.3646 210.148 49.8399C209.744 50.8521 209.029 51.5744 208.003 52.0068C207.467 52.2207 206.945 52.3395 206.432 52.3632C205.685 52.3632 204.984 52.1541 204.335 51.7312C203.686 51.313 203.178 50.7237 202.815 49.9682L195.548 33.141H191.607V48.381C191.607 49.4835 191.221 50.4196 190.455 51.199C189.688 51.9735 188.757 52.3632 187.67 52.3632C186.584 52.3632 185.652 51.9735 184.886 51.199C184.119 50.4244 183.733 49.4835 183.733 48.381M191.612 25.1813H197.185C197.402 25.1813 197.693 25.034 198.065 24.7441C198.436 24.4542 198.869 23.9648 199.363 23.271C199.942 22.3871 200.365 21.3891 200.642 20.2771C200.92 19.1652 201.061 18.0389 201.061 16.8937C201.061 15.7484 200.915 14.6127 200.628 13.4817C200.341 12.3507 199.918 11.3385 199.363 10.4546C198.874 9.78451 198.441 9.3093 198.065 9.03368C197.693 8.75331 197.397 8.61074 197.185 8.61074H191.612V25.1765V25.1813Z" fill="#0D0D0D"/>
<path d="M214.212 17.3404C214.212 16.2521 214.593 15.3207 215.355 14.5461C216.117 13.7763 217.062 13.3914 218.182 13.3914C219.301 13.3914 220.185 13.7763 220.947 14.5461C221.709 15.316 222.09 16.2474 222.09 17.3404C222.09 18.4334 221.709 19.4265 220.947 20.1964C220.185 20.9662 219.264 21.3511 218.182 21.3511C217.1 21.3511 216.117 20.9662 215.355 20.1964C214.593 19.4265 214.212 18.4714 214.212 17.3404ZM214.212 36.9475C214.212 35.8545 214.593 34.9231 215.355 34.158C216.117 33.3882 217.062 33.0032 218.182 33.0032C219.301 33.0032 220.185 33.3882 220.947 34.158C221.709 34.9278 222.09 35.8592 222.09 36.9475C222.09 38.0357 221.709 39.0336 220.947 39.8035C220.185 40.5733 219.264 40.9582 218.182 40.9582C217.1 40.9582 216.117 40.5733 215.355 39.8035C214.593 39.0336 214.212 38.0832 214.212 36.9475Z" fill="#EF81C9"/>
<path d="M226.86 48.3715V4.62375C226.86 3.86816 227.034 3.19337 227.387 2.60411C227.739 2.0101 228.2 1.53964 228.779 1.19749C229.442 0.807821 230.133 0.603482 230.862 0.584473H240.246C241.911 0.584473 243.505 1.05968 245.034 2.0101C246.558 2.96052 247.899 4.33862 249.051 6.14916C250.01 7.66033 250.744 9.33306 251.247 11.1626C251.751 12.9969 252 14.8835 252 16.8224C252 18.7612 251.751 20.6431 251.247 22.4536C250.744 24.2641 250.015 25.9464 249.051 27.5003C247.917 29.2681 246.586 30.6367 245.048 31.6109C243.51 32.5803 241.911 33.065 240.246 33.065H234.738V48.3667C234.738 49.4644 234.352 50.4054 233.586 51.1847C232.819 51.9593 231.888 52.349 230.801 52.349C229.715 52.349 228.783 51.9593 228.017 51.1847C227.25 50.4054 226.864 49.4692 226.864 48.3667M234.743 25.1005H240.251C240.467 25.1005 240.759 24.9532 241.13 24.6633C241.502 24.3734 241.934 23.884 242.428 23.1902C242.96 22.3063 243.378 21.3083 243.68 20.1964C243.976 19.0844 244.126 17.9581 244.126 16.8129C244.126 15.6676 243.971 14.5319 243.661 13.4009C243.35 12.2699 242.941 11.2624 242.428 10.3738C241.939 9.70372 241.506 9.23327 241.13 8.95289C240.754 8.67252 240.462 8.52996 240.251 8.52996H234.743V25.0958V25.1005Z" fill="#EF81C9"/>
</g>
<defs>
<clipPath id="clip0_40_46">
<rect width="252" height="53" fill="white"/>
</clipPath>
</defs>
</svg>
