<svg width="506" height="301" viewBox="0 0 506 301" fill="#d35400" xmlns="http://www.w3.org/2000/svg">
  <g>
    <g>
      <path d="M0 151V301H5.2188H10.4376V164.052V0.999992H7.30633C2.6094 0.999992 0.417504 0.999992 0.278336 0.999992C0.139168 0.999992 0 68.4999 0 151Z"></path>
      <path d="M20.4006 180.672V300.921H25.7616H31.1227V191.135V81.3487L26.0476 70.8854C23.2598 65.1071 20.8295 60.4221 20.6865 60.4221C20.5435 60.4221 20.4006 114.534 20.4006 180.672Z" fill="#7f8c8d"></path>
      <path d="M41.8448 201.989V300.921H47.2059H52.5669V212.53V124.217L47.4918 113.988C44.704 108.366 42.2737 103.603 42.1307 103.447C41.9877 103.29 41.8448 147.642 41.8448 201.989Z" fill="#7f8c8d"></path>
      <path d="M63.2891 223.673V300.976H68.6501L74.0112 300.976V233.902V166.828L68.9361 156.599C66.1483 150.977 63.7179 146.37 63.575 146.37C63.432 146.37 63.2891 181.117 63.2891 223.673Z"></path>
    </g>
    <g>
      <path d="M4.34646 3.57679C4.98979 4.9823 23.2174 41.1353 44.8762 83.8473C66.4634 126.559 96.9143 186.684 112.426 217.371C127.937 248.058 143.806 279.37 147.594 286.866L154.909 301L160.65 301C164.303 301 165.347 301 167.434 301C167.148 300.453 133.513 234.862 87.1214 143.191C78.7581 126.637 59.2438 87.9858 43.661 57.2987L15.1345 1.00001H9.39385H3.13129L4.34646 3.57679Z"></path>
      <path d="M25.8332 3.57682C26.4765 4.98233 44.7041 41.1353 66.3629 83.8474C87.9501 126.559 118.401 186.684 133.912 217.371C149.424 248.058 165.293 279.37 169.081 286.866L176.396 301L182.136 301C185.789 301 186.833 301 188.921 301C188.635 300.453 154.999 234.862 108.608 143.191C100.245 126.637 80.7305 87.9858 65.1477 57.2987L37.0535 1.00001H30.791L24.618 1.00004L25.8332 3.57682Z" fill="#7f8c8d"></path>

      <path d="M49.5787 1.00001C50.079 2.0151 66.5773 34.1077 84.7335 70.1826C102.961 106.258 120.117 140.302 122.976 145.924C125.835 151.468 133.626 166.929 140.346 180.281C147.065 193.556 163.434 226.117 176.801 252.509L201.446 301L207.187 301C210.318 301 212.927 301 213.971 301C213.971 300.765 209.11 291.551 203.821 281.166C198.603 270.781 176.372 226.741 154.427 183.405C132.483 139.99 110.467 96.4189 105.534 86.5803C100.531 76.6636 88.7364 53.3945 79.3724 34.8104L62.1038 1.00001H55.8412H49.5787Z" fill="#7f8c8d"></path>
      <path d="M74.064 2.71784C74.5644 3.73293 89.9328 34.0296 108.089 70.1045C126.317 106.179 143.472 140.224 146.331 145.846C149.191 151.39 156.982 166.851 163.701 180.203C170.42 193.478 186.789 226.039 200.156 252.431L224.409 301L230.671 301C234.846 301 235.368 301 236.934 301C236.934 300.765 232.466 291.473 227.176 281.088C221.958 270.703 199.728 226.663 177.783 183.327C155.838 139.912 133.822 96.3408 128.89 86.5022C123.886 76.5855 112.092 53.3164 102.728 34.7324L85.6439 1.00001H79.3536H73.0633L74.064 2.71784Z"></path>
    </g>
    <g>
      <path d="M164.077 68.2305V135.305L168.795 144.909C171.44 150.219 173.727 154.67 173.799 154.826C173.942 154.982 174.085 120.469 174.085 78.1472V1.07807H169.081H164.077V68.2305Z"></path>
      <path d="M185.522 89.4695L185.593 177.939L190.525 188.09L195.529 198.241V99.6204V1.07813H190.525H185.522V89.4695Z" fill="#7f8c8d"></path>
      <path d="M206.966 111.021V221.041L211.684 230.724C214.328 236.033 216.544 240.562 216.687 240.719C216.83 240.875 216.973 187.075 216.973 121.094V1.07808H211.969H206.966V111.021Z" fill="#7f8c8d"></path>
      <path d="M226.496 140.928V301C236.934 301 236.934 301 236.934 301C237.083 301.198 236.934 237.725 236.934 153.748V1.0001H231.715H226.496V140.928Z"></path>
    </g>
  </g>
  <g>
    <path d="M269 150.844V300.844H274.382H279.764V157.094V13.344H349.657C394.434 13.344 421.631 13.6565 425.219 14.1253C441.651 16.5471 457.869 26.3128 470.929 41.6253C477.602 49.4378 481.047 54.9065 485.711 65.2971C492.887 81.3127 495.398 93.4221 495.327 112.172C495.327 130.063 492.6 143.11 485.568 159.438C477.459 178.344 463.753 193.735 447.32 202.485C432.036 210.531 428.878 211 386.756 211H352.958V217.25V223.5H388.909C422.276 223.5 425.362 223.422 432.036 221.938C449.975 217.953 463.825 209.906 476.813 195.766C487.29 184.438 494.394 171.781 499.489 155.141C506.091 133.969 507.813 107.563 504.01 87.1721C496.905 49.2034 471.79 16.8596 440.216 5.06277C428.806 0.765894 430.098 0.844019 346.428 0.844019H269V150.844Z"></path>
    <path d="M290.528 163.735V300.844H295.91H301.291V169.985V39.1253H358.196C393.86 39.1253 417.325 39.4378 421.128 39.9847C433.758 41.6253 443.732 47.1722 453.42 57.7972C468.991 74.8284 475.88 95.7659 473.656 118.969C470.714 148.656 456.649 171.391 435.48 180.531C426.223 184.594 425.793 184.594 388.335 184.985L352.958 185.375V191.547V197.719H385.536C405.054 197.719 420.411 197.406 423.712 196.86C446.746 193.422 465.045 177.797 476.311 152.016C485.137 132.016 486.859 105.453 480.76 84.1253C472.579 55.3753 450.119 32.4065 425.721 27.7972C420.483 26.7815 409.216 26.6253 355.039 26.6253H290.528V163.735Z" fill="#7f8c8d"></path>
    <path d="M312.055 176.547V300.844H317.437H322.819V183.266V65.6878H371.113C422.707 65.6878 422.707 65.6878 430.242 69.6721C435.695 72.4846 444.737 82.9534 447.823 89.9065C451.41 97.9534 452.272 102.875 452.128 112.953C451.913 128.5 448.468 138.344 439.786 147.719C434.619 153.422 429.452 156.469 422.851 157.797C420.267 158.344 406.203 158.656 385.823 158.656H352.958V165.375V172.094L387.617 171.703C425.434 171.391 425.721 171.313 435.121 166.469C447.177 160.141 456.936 146.547 460.667 130.922C462.533 123.11 463.322 106.86 462.102 99.9065C460.237 89.1253 455.644 79.2034 448.54 70.3753C442.369 62.719 435.48 57.7972 426.51 54.5159C422.348 52.9534 420.267 52.8753 367.166 52.6409L312.055 52.3284V176.547Z" fill="#7f8c8d"></path>
    <path d="M333.583 189.906V300.844H338.965H344.347V196.156V91.3909L381.876 91.6253L419.334 91.8596L422.707 94.0471C428.591 97.7971 430.816 103.032 430.672 112.719C430.529 122.563 428.376 127.641 423.066 130.766C420.124 132.485 419.621 132.485 386.541 132.719L352.958 132.953V139.203V145.375H386.182C411.082 145.375 420.339 145.063 423.353 144.36C431.175 142.328 436.628 136.469 439.499 126.938C440.575 123.266 440.862 120.141 440.862 111.782C440.862 101.703 440.79 101 438.781 96.7815C435.767 90.2971 430.457 84.1253 425.577 81.5471L421.487 79.3596L377.571 79.1253L333.583 78.8909V189.906Z"></path>
  </g>
</svg>