<svg height="21" viewBox="0 0 104 21" width="104" xmlns="http://www.w3.org/2000/svg"><path d="m27.4989716 6.75144724v8.42843946c0 .8847452.226087 1.5579946.6784116 2.0197481.4523246.4617536 1.0514551.6925567 1.7970898.6925567.6163131 0 1.2079073-.1843772 1.7746319-.5540159.5667247-.3694912 1.0238725-.8896088 1.3718957-1.5603526v-9.02637576h3.6686377v13.61974036h-3.6686377v-1.8518779c-1.3223073 1.4097264-2.7538899 2.1143685-4.2948986 2.1143685-1.4911188 0-2.6942029-.4761971-3.6088-1.4290337-.9147478-.9526891-1.3720463-2.1969034-1.3720463-3.7330852v-8.72011206zm19.639978-.26253483c1.6204405 0 3.0868405.30626361 4.3992.91879084v3.04775035c-1.3024116-.73883516-2.5351884-1.10817906-3.6983305-1.10817906-1.2526724 0-2.2766956.38142937-3.0719188 1.14458286-.7955246.7633009-1.1929855 1.7961668-1.1929855 3.0985978 0 1.2736911.4000232 2.2991879 1.200371 3.0769324.8001971.7778919 1.8664232 1.166543 3.198829 1.166543.994029 0 2.2667478-.3208546 3.8177043-.9624164v2.9018404c-1.4416811.5737652-2.9281275.8604268-4.4588869.8604268-2.2571015 0-4.0887073-.6318345-5.4954203-1.8957983-1.4068638-1.2635216-2.1101449-2.9406023-2.1101449-5.0307999 0-2.1677215.6883594-3.91274609 2.0653797-5.2349265 1.3768695-1.32203301 3.1588869-1.98334429 5.3462029-1.98334429zm21.2060371.00004421c2.0477449 0 3.6683362.64170923 4.8614724 1.92483292 1.1928348 1.28327106 1.7894029 3.05747766 1.7894029 5.32247246v.5395723h-9.8572406c.1490667 1.2154745.6137508 2.1509197 1.3943537 2.8072199.7804521.6561529 1.8515014.9842293 3.2136.9842293.8748058 0 1.7173565-.1481208 2.5278029-.4448044.8101449-.2963889 1.6477217-.746057 2.5128811-1.3488569v2.6683844c-1.6308405 1.1279285-3.6091014 1.6916716-5.9352348 1.6916716-2.1972637 0-3.991942-.6464255-5.3835826-1.9394239-1.391942-1.2927036-2.0878376-3.0134099-2.0878376-5.1621189 0-2.0705955.6435942-3.7621198 1.9312347-5.07457287 1.2874899-1.31245306 2.9650551-1.96860591 5.0331479-1.96860591zm13.0633646.26249062v8.42843946c0 .8847452.226087 1.5579946.6785623 2.0197481.4523247.4617536 1.0514551.6925567 1.7969392.6925567.616313 0 1.2079072-.1843772 1.7744811-.5540159.5668754-.3694912 1.0238725-.8896088 1.3720464-1.5603526v-9.02637576h3.6686377v13.61974036h-3.6686377v-1.8518779c-1.3223073 1.4097264-2.7538899 2.1143685-4.2947478 2.1143685-1.4912696 0-2.6943537-.4761971-3.6089508-1.4290337-.9147478-.9526891-1.3718956-2.1969034-1.3718956-3.7330852v-8.72011206zm17.4777275-.26253483c.7653798 0 1.4859942.08533524 2.1622952.25512142.676.17037572 1.391792.44023552 2.147525.80943203v2.87280574c-.696046-.43743521-1.441832-.78997735-2.237055-1.05718425-.795374-.26735428-1.5061912-.4011788-2.1324521-.4011788-.5270841 0-.9394667.09742071-1.2377507.29167261-.2982841.19469405-.4473508.47177566-.4473508.83124484 0 .2041266.1240464.4082532.3727421.6123798.2483942.2041267.9295188.578629 2.0430724 1.1227701 1.5905971.7874719 2.7065621 1.5143689 3.3478961 2.1801017.641182.6660276.961924 1.4654375.961924 2.3988194 0 1.3123056-.467548 2.3454663-1.40189 3.0987451-.934492.7534262-2.197263 1.1301393-3.7878605 1.1301393-.9941797 0-1.9214377-.107148-2.781171-.3208546-.8600348-.213854-1.5732638-.4714809-2.1399884-.7728809v-2.9892389c1.7895536.9721438 3.2957449 1.4580683 4.5185739 1.4580683.6264116 0 1.1334493-.1093588 1.521113-.3280765.387664-.2187176.581646-.5078847.581646-.8676486 0-.2137066-.069634-.4082532-.208753-.5833452-.139421-.1749446-.3483249-.3546055-.6264118-.5394249-.2785391-.1846719-1.148371-.6269708-2.6097971-1.327044-1.1235015-.5249813-1.953542-1.0959463-2.4902725-1.7134845-.5368811-.6170962-.8053217-1.3487095-.8053217-2.194398 0-1.20545239.4820174-2.16772146 1.4465043-2.88724935.9641855-.71938051 2.2317797-1.07929184 3.8027826-1.07929184zm-95.35187242-6.48897136 12.37765792 14.21752925v-14.21752925h3.9369276v20.37124655h-3.4597333l-12.45211599-14.45083782v14.45083782h-3.93692754v-20.37124655zm54.78929502.00005895v20.3712466h-3.6684869v-20.3712466zm10.1705519 8.93877076c-.9246956 0-1.6680695.26750167-2.2293681.80206284-.5619014.5347086-.9173101 1.3221804-1.0663768 2.3622681h6.352742c-.0994782-.9915984-.4077101-1.76669-.9245449-2.3257169-.5169855-.55887951-1.2279536-.83861404-2.1324522-.83861404z" fill="#54b775" fill-rule="evenodd"/></svg>