<svg xmlns="http://www.w3.org/2000/svg" width="313" height="123" viewBox="0 0 313 123" fill="#0E1E88">
<g>
<path d="M112.807 92.0464C131.134 92.6573 144.98 82.6788 145.794 68.0166C146.609 52.1325 130.726 48.4669 117.898 45.6159C109.142 43.7832 101.608 41.9504 102.015 37.2666C102.219 33.1937 107.31 30.1391 113.622 30.3428C120.749 30.5464 128.079 33.601 129.505 37.8775C129.708 38.2848 130.319 38.6921 130.726 38.2848C133.984 36.452 143.147 31.361 143.147 31.361C143.555 31.1573 143.758 30.5464 143.555 30.1391C139.278 20.7716 128.079 14.6623 114.436 14.255C97.7393 13.6441 84.5038 23.4189 83.6893 36.8593C82.6712 54.7798 98.961 58.0381 111.789 60.6855C121.563 62.7219 127.265 64.1474 127.265 68.6275C127.061 73.1077 120.952 76.1623 113.418 75.9586C105.681 75.755 100.386 72.904 97.5357 67.202C97.3321 66.7947 96.7212 66.5911 96.3139 66.9984L83.6893 73.9222C83.4857 74.1259 83.4857 74.5331 83.4857 74.9404C88.3726 85.1226 99.1647 91.6391 112.807 92.0464Z"/>
<path d="M229.076 0.203643C228.873 7.738e-07 228.466 0 228.262 0L212.379 8.96027C211.565 9.36755 211.158 10.1821 211.158 11.2003V36.2483C205.252 30.9536 197.718 28.1027 189.573 28.1027C169.211 28.1027 154.347 43.9868 154.347 65.5729C154.347 87.3626 169.211 103.043 189.573 103.043C198.329 103.043 206.474 99.7848 212.379 94.0828L215.23 99.3775C215.637 100.192 216.452 100.599 217.266 100.599H228.873C229.28 100.599 229.687 100.192 229.687 99.7848V0.814573C229.484 0.61093 229.484 0.407286 229.076 0.203643ZM192.221 85.5298C180.818 85.5298 172.673 77.1805 172.673 65.5729C172.673 53.9652 181.021 45.6159 192.221 45.6159C203.42 45.6159 211.768 53.9652 211.768 65.5729C211.768 77.1805 203.624 85.5298 192.221 85.5298Z"/>
<path d="M146.202 99.1738C145.998 98.9702 145.591 98.7665 145.387 98.9702C136.224 104.061 125.839 106.912 115.047 106.912C104.052 106.912 93.6668 104.061 84.7074 98.9702C84.5037 98.7665 83.8929 98.7665 83.8929 99.1738L75.5443 111.392C75.3407 111.596 75.3407 112.207 75.7479 112.411C87.5581 119.131 100.794 123 115.251 123C129.505 123 142.944 119.131 154.754 112.411C154.957 112.207 155.161 111.596 154.957 111.392L146.202 99.1738Z"/>
<path d="M37.874 27.899C15.4754 27.899 0 43.3759 0 65.3693C0 87.3626 15.4754 102.839 37.874 102.839C60.2726 102.839 75.7479 87.3626 75.7479 65.3693C75.7479 43.3759 60.0689 27.899 37.874 27.899ZM37.874 86.3444C26.4711 86.3444 18.3261 77.5878 18.3261 65.3693C18.3261 53.3544 26.6747 44.3941 37.874 44.3941C49.0733 44.3941 57.4218 53.1507 57.4218 65.3693C57.4218 77.5878 49.0733 86.3444 37.874 86.3444Z"/>
<path d="M302.992 38.4884C296.272 31.7682 286.906 28.1026 276.317 28.1026C254.733 28.1026 239.054 43.5794 239.054 64.9619C239.054 87.1589 254.937 103.247 276.724 103.247C290.571 103.247 303.399 96.3228 308.49 86.3443C308.693 85.937 308.49 85.1225 307.879 85.1225L292.811 80.2351C292.403 80.0314 291.996 80.2351 291.792 80.4387C288.331 84.5115 282.222 87.3625 276.113 87.3625C266.95 87.3625 260.231 81.4569 257.787 72.293H311.748C312.155 72.293 312.562 72.0894 312.562 71.4784L312.766 70.2566C312.969 69.442 312.969 66.9983 312.969 65.1655C313.377 54.5761 309.711 45.0049 302.992 38.4884ZM258.195 57.2235C260.638 48.8741 267.358 43.7831 275.706 43.7831C284.666 43.7831 291.589 49.0778 293.625 57.2235H258.195Z"/>
</g>
</svg>