<svg width="200" height="80" viewBox="0 0 200 80" fill="none" xmlns="http://www.w3.org/2000/svg">
<path d="M128.3 27.79C128.3 19.82 132.64 14.52 140.24 14.52C148.05 14.52 152.39 19.82 152.39 27.79C152.39 35.82 148.16 41.01 140.35 41.01C132.85 41.01 128.3 35.82 128.3 27.79ZM160.26 27.79C160.26 16.44 152.87 7.67004 140.35 7.67004C127.83 7.67004 120.44 16.45 120.44 27.79C120.44 38.87 127.83 47.86 140.35 47.86C152.98 47.86 160.26 38.87 160.26 27.79Z" fill="#FB9200"/>
<path d="M194.69 41.4101L186.55 29.2501C185.74 28.0401 185.74 26.4701 186.54 25.2601L193.98 14.0601C195.57 11.6701 193.85 8.4801 190.98 8.4801H190.5C189.27 8.4801 188.13 9.1101 187.47 10.1401L177.4 25.9501C176.62 27.1701 176.65 28.7401 177.48 29.9301L188.22 45.4601C188.89 46.4301 190 47.0101 191.18 47.0101H191.71C194.57 47.0101 196.29 43.8001 194.69 41.4101Z" fill="#FA5768"/>
<path d="M169.01 41.9901H169.47C171.46 41.9901 173.07 40.3801 173.07 38.3901V17.5401C173.07 15.5501 171.46 13.9401 169.47 13.9401H169.01C167.02 13.9401 165.41 15.5501 165.41 17.5401V38.4001C165.41 40.3801 167.02 41.9901 169.01 41.9901Z" fill="#FB9200"/>
<path d="M185.08 60.0401C183.81 58.7801 181.82 58.7501 180.44 59.8901C174.8 64.5701 167.77 67.1201 160.34 67.1201C152.91 67.1201 145.88 64.5701 140.24 59.8901C138.87 58.7501 136.87 58.7801 135.6 60.0401L135.46 60.1801C134.02 61.6101 134.15 63.9601 135.71 65.2501C142.62 71.0001 151.23 74.1301 160.34 74.1301C169.45 74.1301 178.06 71.0001 184.97 65.2501C186.53 63.9501 186.66 61.6001 185.22 60.1801L185.08 60.0401Z" fill="#FA5768"/>
<path d="M17.87 26.82C23.28 26.82 25.47 24.3601 25.47 20.29C25.47 16.4401 23.28 13.65 17.87 13.65H13.53C12.88 13.65 12.36 14.18 12.36 14.82V25.64C12.36 26.29 12.89 26.81 13.53 26.81H17.87V26.82ZM4.70001 7.97005C4.70001 7.32005 5.23001 6.80005 5.87001 6.80005H17.75C28.78 6.80005 33.32 12.21 33.32 20.29C33.32 28.64 28.24 33.67 17.75 33.67H13.52C12.87 33.67 12.35 34.2001 12.35 34.84V44.16C12.35 44.8101 11.82 45.3301 11.18 45.3301H5.88001C5.23001 45.3301 4.71001 44.8 4.71001 44.16V7.97005H4.70001Z" fill="#4D4D4D"/>
<path d="M40.34 4.93005H45.64C46.29 4.93005 46.81 5.46005 46.81 6.10005V44.1601C46.81 44.8101 46.28 45.3301 45.64 45.3301H40.34C39.69 45.3301 39.17 44.8001 39.17 44.1601V6.10005C39.17 5.45005 39.69 4.93005 40.34 4.93005Z" fill="#4D4D4D"/>
<path d="M70.66 36.4501C70.91 35.8601 70.66 35.1701 70.08 34.8901C68.76 34.2501 67.26 33.9301 65.87 33.9301C62.66 33.9301 60.57 35.1101 60.57 37.3001C60.57 39.2801 61.91 40.2401 64.53 40.2401C67.19 40.2501 69.77 38.5201 70.66 36.4501ZM52.65 37.7301C52.65 31.9001 57.57 28.6301 63.46 28.6301C65.34 28.6301 67.31 28.9301 69.15 29.6201C70.05 29.9601 70.93 29.0701 70.65 28.1401C69.78 25.2301 67.14 24.3501 64 24.3501C61.73 24.3501 59.22 24.8801 56.86 25.7701C56.09 26.0601 55.27 25.5001 55.27 24.6801V20.5101C55.27 20.0501 55.54 19.6101 55.96 19.4301C58.73 18.2401 62.11 17.6001 65.17 17.6001C76.57 17.6001 78.34 25.0401 78.34 33.1801V35.9101C78.34 39.5501 78.66 40.0801 80 40.0801C80.32 40.0801 80.7 40.0301 81.07 39.9701V44.5401C81.07 45.0601 80.73 45.5201 80.23 45.6701C79.31 45.9501 78.24 46.1301 77.27 46.1301C74.27 46.1301 72.45 44.6901 72.13 41.9601H71.76C69.57 44.7401 66.35 46.1901 62.77 46.1901C56.45 46.1901 52.65 43.3001 52.65 37.7301Z" fill="#4D4D4D"/>
<path d="M87.97 18.4701H90.89C91.39 18.4701 91.83 18.7801 92 19.2501C92.38 20.3401 92.75 21.4201 93.01 22.3201H93.33C94.83 19.7001 98.25 17.7201 102.16 17.7201C109.22 17.7201 113.56 22.0001 113.56 31.1501V44.1601C113.56 44.8101 113.03 45.3301 112.39 45.3301H107.09C106.44 45.3301 105.92 44.8001 105.92 44.1601V31.7901C105.92 27.8801 104.64 24.6201 100.67 24.6201C96.87 24.6201 94.52 27.2401 94.52 31.6801L94.47 44.1601C94.47 44.8101 93.94 45.3301 93.3 45.3301H87.99C87.34 45.3301 86.82 44.8001 86.82 44.1601V19.6401C86.8 18.9901 87.32 18.4701 87.97 18.4701Z" fill="#4D4D4D"/>
<path d="M8.75001 59.17V62.59C8.75001 63.19 8.57001 63.67 8.20001 64.01C7.84001 64.35 7.34001 64.53 6.70001 64.53C6.06001 64.53 5.57001 64.36 5.22001 64.01C4.87001 63.66 4.70001 63.18 4.70001 62.58V59.17H5.32001V62.62C5.32001 63.06 5.44001 63.4 5.68001 63.64C5.92001 63.88 6.27001 64 6.74001 64C7.19001 64 7.53001 63.88 7.77001 63.64C8.01001 63.4 8.13001 63.06 8.13001 62.62V59.18H8.75001V59.17Z" fill="#4D4D4D"/>
<path d="M12.77 64.4601V61.9001C12.77 61.5801 12.7 61.3401 12.55 61.1801C12.4 61.0201 12.17 60.9401 11.86 60.9401C11.45 60.9401 11.14 61.0501 10.95 61.2801C10.76 61.5001 10.66 61.8701 10.66 62.3901V64.4701H10.06V60.5001H10.55L10.65 61.0401H10.68C10.8 60.8401 10.98 60.6901 11.2 60.5901C11.42 60.4801 11.67 60.4301 11.94 60.4301C12.42 60.4301 12.78 60.5501 13.02 60.7801C13.26 61.0101 13.38 61.3801 13.38 61.8901V64.4801H12.77V64.4601Z" fill="#4D4D4D"/>
<path d="M19.09 63.38C19.09 63.75 18.95 64.03 18.68 64.23C18.4 64.43 18.02 64.53 17.52 64.53C16.99 64.53 16.58 64.45 16.29 64.28V63.72C16.48 63.82 16.68 63.89 16.9 63.95C17.12 64.01 17.33 64.03 17.53 64.03C17.84 64.03 18.08 63.98 18.25 63.88C18.42 63.78 18.5 63.63 18.5 63.42C18.5 63.27 18.43 63.13 18.3 63.02C18.17 62.91 17.91 62.78 17.52 62.63C17.15 62.49 16.89 62.37 16.73 62.27C16.57 62.17 16.46 62.05 16.38 61.92C16.3 61.79 16.27 61.63 16.27 61.45C16.27 61.13 16.4 60.87 16.66 60.68C16.92 60.49 17.28 60.4 17.74 60.4C18.17 60.4 18.58 60.49 18.99 60.66L18.78 61.15C18.38 60.99 18.02 60.9 17.7 60.9C17.42 60.9 17.2 60.94 17.06 61.03C16.91 61.12 16.84 61.24 16.84 61.4C16.84 61.51 16.87 61.6 16.92 61.67C16.97 61.74 17.06 61.82 17.18 61.88C17.3 61.95 17.53 62.04 17.87 62.17C18.34 62.34 18.66 62.51 18.82 62.69C19.01 62.9 19.09 63.12 19.09 63.38Z" fill="#4D4D4D"/>
<path d="M21.58 60.9301C21.26 60.9301 21.01 61.0301 20.82 61.2401C20.63 61.4501 20.52 61.7301 20.49 62.1001H22.56C22.56 61.7201 22.48 61.4301 22.31 61.2301C22.13 61.0301 21.89 60.9301 21.58 60.9301ZM21.74 64.5401C21.15 64.5401 20.69 64.3601 20.35 64.0001C20.01 63.6401 19.84 63.1501 19.84 62.5101C19.84 61.8701 20 61.3601 20.31 60.9901C20.62 60.6101 21.05 60.4301 21.58 60.4301C22.08 60.4301 22.47 60.5901 22.76 60.9201C23.05 61.2501 23.19 61.6801 23.19 62.2101V62.5901H20.46C20.47 63.0601 20.59 63.4101 20.81 63.6501C21.03 63.8901 21.35 64.0101 21.75 64.0101C22.18 64.0101 22.6 63.9201 23.02 63.7401V64.2801C22.81 64.3701 22.61 64.4401 22.42 64.4801C22.24 64.5201 22.01 64.5401 21.74 64.5401Z" fill="#4D4D4D"/>
<path d="M26.03 60.4301C26.21 60.4301 26.36 60.4401 26.5 60.4701L26.42 61.0301C26.26 60.9901 26.11 60.9801 25.99 60.9801C25.67 60.9801 25.39 61.1101 25.17 61.3701C24.94 61.6301 24.83 61.9501 24.83 62.3401V64.4701H24.23V60.5001H24.73L24.8 61.2301H24.83C24.98 60.9701 25.15 60.7701 25.36 60.6301C25.56 60.5001 25.78 60.4301 26.03 60.4301Z" fill="#4D4D4D"/>
<path d="M28.12 64.4601L26.61 60.4901H27.25L28.1 62.8401C28.29 63.3901 28.41 63.7501 28.44 63.9101H28.47C28.5 63.7801 28.58 63.5201 28.72 63.1201C28.86 62.7201 29.18 61.8401 29.67 60.4901H30.31L28.8 64.4601H28.12Z" fill="#4D4D4D"/>
<path d="M31.56 64.46H30.96V60.5H31.56V64.46ZM30.91 59.42C30.91 59.28 30.94 59.18 31.01 59.12C31.08 59.06 31.16 59.02 31.26 59.02C31.36 59.02 31.44 59.05 31.51 59.12C31.58 59.19 31.62 59.29 31.62 59.42C31.62 59.56 31.59 59.66 31.51 59.72C31.44 59.79 31.36 59.82 31.26 59.82C31.16 59.82 31.07 59.79 31.01 59.72C30.94 59.66 30.91 59.56 30.91 59.42Z" fill="#4D4D4D"/>
<path d="M34.42 64.5401C33.85 64.5401 33.4 64.3601 33.09 64.0101C32.78 63.6601 32.62 63.1601 32.62 62.5101C32.62 61.8501 32.78 61.3301 33.1 60.9701C33.42 60.6101 33.87 60.4301 34.47 60.4301C34.66 60.4301 34.85 60.4501 35.04 60.4901C35.23 60.5301 35.38 60.5801 35.49 60.6301L35.31 61.1401C35.18 61.0901 35.03 61.0401 34.88 61.0101C34.72 60.9801 34.58 60.9601 34.46 60.9601C33.65 60.9601 33.25 61.4701 33.25 62.5001C33.25 62.9901 33.35 63.3601 33.55 63.6201C33.75 63.8801 34.04 64.0101 34.42 64.0101C34.75 64.0101 35.09 63.9401 35.44 63.8001V64.3301C35.16 64.4701 34.82 64.5401 34.42 64.5401Z" fill="#4D4D4D"/>
<path d="M36.96 64.46H36.36V60.5H36.96V64.46ZM36.31 59.42C36.31 59.28 36.34 59.18 36.41 59.12C36.48 59.06 36.56 59.02 36.66 59.02C36.76 59.02 36.84 59.05 36.91 59.12C36.98 59.19 37.02 59.29 37.02 59.42C37.02 59.56 36.98 59.66 36.91 59.72C36.84 59.79 36.76 59.82 36.66 59.82C36.56 59.82 36.47 59.79 36.41 59.72C36.35 59.66 36.31 59.56 36.31 59.42Z" fill="#4D4D4D"/>
<path d="M38.64 62.48C38.64 62.99 38.74 63.37 38.94 63.64C39.14 63.91 39.44 64.04 39.83 64.04C40.22 64.04 40.52 63.91 40.73 63.64C40.93 63.38 41.04 62.99 41.04 62.48C41.04 61.98 40.94 61.59 40.73 61.33C40.53 61.07 40.22 60.94 39.83 60.94C39.44 60.94 39.14 61.07 38.94 61.33C38.74 61.58 38.64 61.97 38.64 62.48ZM41.66 62.48C41.66 63.13 41.5 63.63 41.17 63.99C40.84 64.35 40.39 64.53 39.82 64.53C39.47 64.53 39.15 64.45 38.88 64.28C38.6 64.11 38.39 63.87 38.24 63.56C38.09 63.25 38.02 62.88 38.02 62.47C38.02 61.82 38.18 61.32 38.51 60.96C38.83 60.6 39.28 60.42 39.86 60.42C40.41 60.42 40.86 60.6 41.18 60.97C41.5 61.35 41.66 61.85 41.66 62.48Z" fill="#4D4D4D"/>
<path d="M43.34 63.6001L43.39 63.6801C43.33 63.9201 43.24 64.2001 43.12 64.5201C43 64.8401 42.88 65.1401 42.75 65.4101H42.3C42.37 65.1601 42.44 64.8501 42.52 64.4801C42.6 64.1101 42.65 63.8201 42.68 63.5901H43.34V63.6001Z" fill="#4D4D4D"/>
<path d="M46.86 61.7701C46.86 62.0501 46.94 62.2601 47.1 62.4001C47.26 62.5401 47.47 62.6101 47.75 62.6101C48.34 62.6101 48.63 62.3301 48.63 61.7601C48.63 61.1601 48.33 60.8701 47.74 60.8701C47.46 60.8701 47.24 60.9501 47.09 61.1001C46.94 61.2401 46.86 61.4701 46.86 61.7701ZM46.54 65.1301C46.54 65.3401 46.63 65.5101 46.81 65.6201C46.99 65.7301 47.25 65.7901 47.59 65.7901C48.09 65.7901 48.47 65.7101 48.71 65.5601C48.95 65.4101 49.07 65.2001 49.07 64.9501C49.07 64.7401 49 64.5901 48.87 64.5001C48.74 64.4201 48.49 64.3801 48.12 64.3801H47.4C47.13 64.3801 46.91 64.4401 46.76 64.5801C46.61 64.7001 46.54 64.8901 46.54 65.1301ZM49.7 60.5001V60.8801L48.97 60.9701C49.04 61.0501 49.1 61.1601 49.15 61.3001C49.2 61.4401 49.23 61.5901 49.23 61.7601C49.23 62.1501 49.1 62.4601 48.83 62.6901C48.56 62.9201 48.2 63.0401 47.74 63.0401C47.62 63.0401 47.51 63.0301 47.41 63.0101C47.15 63.1501 47.03 63.3201 47.03 63.5201C47.03 63.6301 47.07 63.7101 47.16 63.7601C47.25 63.8101 47.4 63.8401 47.62 63.8401H48.32C48.75 63.8401 49.08 63.9301 49.31 64.1101C49.54 64.2901 49.66 64.5501 49.66 64.9001C49.66 65.3401 49.48 65.6701 49.13 65.9001C48.78 66.1301 48.26 66.2501 47.59 66.2501C47.07 66.2501 46.67 66.1501 46.39 65.9601C46.11 65.7701 45.97 65.4901 45.97 65.1401C45.97 64.9001 46.05 64.6901 46.2 64.5101C46.35 64.3301 46.57 64.2101 46.85 64.1501C46.75 64.1001 46.66 64.0301 46.6 63.9401C46.53 63.8401 46.5 63.7301 46.5 63.6001C46.5 63.4601 46.54 63.3301 46.62 63.2201C46.7 63.1101 46.82 63.0101 46.99 62.9101C46.78 62.8301 46.62 62.6801 46.49 62.4801C46.36 62.2801 46.3 62.0501 46.3 61.7901C46.3 61.3601 46.43 61.0201 46.69 60.7901C46.95 60.5501 47.32 60.4401 47.8 60.4401C48.01 60.4401 48.19 60.4601 48.36 60.5101H49.7V60.5001Z" fill="#4D4D4D"/>
<path d="M52.32 60.4301C52.5 60.4301 52.65 60.4401 52.79 60.4701L52.71 61.0301C52.55 60.9901 52.4 60.9801 52.28 60.9801C51.96 60.9801 51.68 61.1101 51.46 61.3701C51.23 61.6301 51.12 61.9501 51.12 62.3401V64.4701H50.52V60.5001H51.02L51.09 61.2301H51.12C51.27 60.9701 51.44 60.7701 51.65 60.6301C51.85 60.5001 52.08 60.4301 52.32 60.4301Z" fill="#4D4D4D"/>
<path d="M54.62 64.0401C54.99 64.0401 55.29 63.9401 55.5 63.7301C55.71 63.5201 55.82 63.2401 55.82 62.8701V62.5101L55.22 62.5301C54.74 62.5501 54.4 62.6201 54.19 62.7501C53.98 62.8801 53.87 63.0901 53.87 63.3601C53.87 63.5801 53.94 63.7401 54.07 63.8601C54.2 63.9801 54.39 64.0401 54.62 64.0401ZM55.98 64.4601L55.86 63.9001H55.83C55.63 64.1501 55.44 64.3201 55.24 64.4101C55.04 64.5001 54.8 64.5401 54.5 64.5401C54.11 64.5401 53.8 64.4401 53.58 64.2401C53.36 64.0401 53.25 63.7501 53.25 63.3801C53.25 62.5801 53.89 62.1601 55.17 62.1201L55.84 62.1001V61.8501C55.84 61.5401 55.77 61.3101 55.64 61.1601C55.51 61.0101 55.29 60.9401 55 60.9401C54.67 60.9401 54.3 61.0401 53.88 61.2401L53.7 60.7801C53.9 60.6701 54.11 60.5901 54.34 60.5301C54.57 60.4701 54.81 60.4401 55.04 60.4401C55.51 60.4401 55.86 60.5501 56.09 60.7601C56.32 60.9701 56.43 61.3101 56.43 61.7701V64.4801H55.98V64.4601Z" fill="#4D4D4D"/>
<path d="M60.37 64.4601V61.9001C60.37 61.5801 60.3 61.3401 60.15 61.1801C60 61.0201 59.77 60.9401 59.46 60.9401C59.05 60.9401 58.74 61.0501 58.55 61.2801C58.36 61.5001 58.26 61.8701 58.26 62.3901V64.4701H57.66V60.5001H58.15L58.25 61.0401H58.28C58.4 60.8401 58.58 60.6901 58.8 60.5901C59.02 60.4801 59.27 60.4301 59.54 60.4301C60.02 60.4301 60.38 60.5501 60.62 60.7801C60.86 61.0101 60.98 61.3801 60.98 61.8901V64.4801H60.37V64.4601Z" fill="#4D4D4D"/>
<path d="M63.71 64.0301C64.12 64.0301 64.42 63.9201 64.6 63.7001C64.78 63.4801 64.88 63.1201 64.88 62.6201V62.4901C64.88 61.9301 64.79 61.5301 64.6 61.2901C64.41 61.0501 64.11 60.9301 63.7 60.9301C63.35 60.9301 63.08 61.0701 62.89 61.3401C62.7 61.6101 62.61 62.0001 62.61 62.5001C62.61 63.0101 62.7 63.3901 62.89 63.6501C63.08 63.9001 63.35 64.0301 63.71 64.0301ZM64.91 63.9301H64.88C64.6 64.3301 64.19 64.5301 63.64 64.5301C63.12 64.5301 62.72 64.3501 62.43 64.0001C62.14 63.6501 62 63.1401 62 62.4901C62 61.8401 62.14 61.3301 62.43 60.9701C62.72 60.6101 63.12 60.4301 63.64 60.4301C64.18 60.4301 64.59 60.6301 64.88 61.0201H64.93L64.9 60.7301L64.89 60.4501V58.8401H65.49V64.4701H65L64.91 63.9301Z" fill="#4D4D4D"/>
<path d="M68.26 60.9301C67.94 60.9301 67.69 61.0301 67.5 61.2401C67.31 61.4501 67.2 61.7301 67.17 62.1001H69.24C69.24 61.7201 69.16 61.4301 68.99 61.2301C68.82 61.0301 68.58 60.9301 68.26 60.9301ZM68.43 64.5401C67.84 64.5401 67.38 64.3601 67.04 64.0001C66.7 63.6401 66.53 63.1501 66.53 62.5101C66.53 61.8701 66.69 61.3601 67 60.9901C67.31 60.6101 67.74 60.4301 68.27 60.4301C68.77 60.4301 69.16 60.5901 69.45 60.9201C69.74 61.2501 69.88 61.6801 69.88 62.2101V62.5901H67.15C67.16 63.0601 67.28 63.4101 67.5 63.6501C67.72 63.8901 68.04 64.0101 68.44 64.0101C68.87 64.0101 69.29 63.9201 69.71 63.7401V64.2801C69.5 64.3701 69.3 64.4401 69.11 64.4801C68.92 64.5201 68.69 64.5401 68.43 64.5401Z" fill="#4D4D4D"/>
<path d="M73.47 63.38C73.47 63.75 73.33 64.03 73.06 64.23C72.78 64.43 72.4 64.53 71.9 64.53C71.37 64.53 70.96 64.45 70.67 64.28V63.72C70.86 63.82 71.06 63.89 71.28 63.95C71.5 64.01 71.71 64.03 71.91 64.03C72.22 64.03 72.46 63.98 72.63 63.88C72.8 63.78 72.88 63.63 72.88 63.42C72.88 63.27 72.81 63.13 72.68 63.02C72.55 62.91 72.29 62.78 71.9 62.63C71.53 62.49 71.27 62.37 71.11 62.27C70.95 62.17 70.84 62.05 70.76 61.92C70.68 61.79 70.65 61.63 70.65 61.45C70.65 61.13 70.78 60.87 71.04 60.68C71.3 60.49 71.66 60.4 72.12 60.4C72.55 60.4 72.96 60.49 73.37 60.66L73.16 61.15C72.76 60.99 72.4 60.9 72.08 60.9C71.8 60.9 71.58 60.94 71.44 61.03C71.3 61.12 71.22 61.24 71.22 61.4C71.22 61.51 71.25 61.6 71.3 61.67C71.35 61.74 71.44 61.82 71.56 61.88C71.68 61.95 71.91 62.04 72.26 62.17C72.73 62.34 73.05 62.51 73.21 62.69C73.38 62.9 73.47 63.12 73.47 63.38Z" fill="#4D4D4D"/>
<path d="M78.93 63.38C78.93 63.75 78.79 64.03 78.52 64.23C78.24 64.43 77.86 64.53 77.36 64.53C76.83 64.53 76.42 64.45 76.13 64.28V63.72C76.32 63.82 76.52 63.89 76.74 63.95C76.96 64.01 77.17 64.03 77.37 64.03C77.68 64.03 77.92 63.98 78.09 63.88C78.26 63.78 78.34 63.63 78.34 63.42C78.34 63.27 78.27 63.13 78.14 63.02C78.01 62.91 77.75 62.78 77.36 62.63C76.99 62.49 76.73 62.37 76.57 62.27C76.41 62.17 76.3 62.05 76.22 61.92C76.14 61.79 76.11 61.63 76.11 61.45C76.11 61.13 76.24 60.87 76.5 60.68C76.76 60.49 77.12 60.4 77.58 60.4C78.01 60.4 78.42 60.49 78.83 60.66L78.62 61.15C78.22 60.99 77.86 60.9 77.54 60.9C77.26 60.9 77.04 60.94 76.9 61.03C76.75 61.12 76.68 61.24 76.68 61.4C76.68 61.51 76.71 61.6 76.76 61.67C76.81 61.74 76.9 61.82 77.02 61.88C77.14 61.95 77.37 62.04 77.71 62.17C78.18 62.34 78.5 62.51 78.66 62.69C78.84 62.9 78.93 63.12 78.93 63.38Z" fill="#4D4D4D"/>
<path d="M80.3 62.48C80.3 62.99 80.4 63.37 80.6 63.64C80.8 63.91 81.1 64.04 81.49 64.04C81.88 64.04 82.18 63.91 82.39 63.64C82.59 63.38 82.7 62.99 82.7 62.48C82.7 61.98 82.6 61.59 82.39 61.33C82.19 61.07 81.89 60.94 81.49 60.94C81.1 60.94 80.8 61.07 80.6 61.33C80.4 61.58 80.3 61.97 80.3 62.48ZM83.33 62.48C83.33 63.13 83.17 63.63 82.84 63.99C82.51 64.35 82.06 64.53 81.49 64.53C81.14 64.53 80.82 64.45 80.55 64.28C80.27 64.11 80.06 63.87 79.91 63.56C79.76 63.25 79.69 62.88 79.69 62.47C79.69 61.82 79.85 61.32 80.18 60.96C80.5 60.6 80.95 60.42 81.53 60.42C82.08 60.42 82.53 60.6 82.85 60.97C83.16 61.35 83.33 61.85 83.33 62.48Z" fill="#4D4D4D"/>
<path d="M84.98 58.8301H84.38V64.4601H84.98V58.8301Z" fill="#4D4D4D"/>
<path d="M86.82 60.5V63.07C86.82 63.39 86.89 63.63 87.04 63.79C87.19 63.95 87.42 64.03 87.73 64.03C88.14 64.03 88.45 63.92 88.64 63.69C88.83 63.46 88.93 63.09 88.93 62.58V60.5H89.53V64.47H89.03L88.94 63.94H88.91C88.79 64.14 88.62 64.28 88.4 64.39C88.18 64.49 87.93 64.55 87.65 64.55C87.17 64.55 86.81 64.43 86.57 64.21C86.33 63.98 86.21 63.61 86.21 63.11V60.5H86.82Z" fill="#4D4D4D"/>
<path d="M92.39 64.5401C91.82 64.5401 91.37 64.3601 91.06 64.0101C90.75 63.6601 90.59 63.1601 90.59 62.5101C90.59 61.8501 90.75 61.3301 91.07 60.9701C91.39 60.6101 91.84 60.4301 92.44 60.4301C92.63 60.4301 92.82 60.4501 93.01 60.4901C93.2 60.5301 93.35 60.5801 93.46 60.6301L93.28 61.1401C93.15 61.0901 93 61.0401 92.85 61.0101C92.69 60.9801 92.55 60.9601 92.43 60.9601C91.62 60.9601 91.22 61.4701 91.22 62.5001C91.22 62.9901 91.32 63.3601 91.52 63.6201C91.72 63.8801 92.01 64.0101 92.39 64.0101C92.72 64.0101 93.06 63.9401 93.41 63.8001V64.3301C93.12 64.4701 92.79 64.5401 92.39 64.5401Z" fill="#4D4D4D"/>
<path d="M94.93 64.46H94.33V60.5H94.93V64.46ZM94.28 59.42C94.28 59.28 94.31 59.18 94.38 59.12C94.45 59.06 94.53 59.02 94.63 59.02C94.73 59.02 94.81 59.05 94.88 59.12C94.95 59.19 94.98 59.29 94.98 59.42C94.98 59.56 94.95 59.66 94.88 59.72C94.81 59.79 94.73 59.82 94.63 59.82C94.53 59.82 94.44 59.79 94.38 59.72C94.31 59.66 94.28 59.56 94.28 59.42Z" fill="#4D4D4D"/>
<path d="M96.61 62.48C96.61 62.99 96.71 63.37 96.91 63.64C97.11 63.91 97.41 64.04 97.8 64.04C98.19 64.04 98.49 63.91 98.7 63.64C98.9 63.38 99.01 62.99 99.01 62.48C99.01 61.98 98.91 61.59 98.7 61.33C98.5 61.07 98.2 60.94 97.8 60.94C97.41 60.94 97.11 61.07 96.91 61.33C96.71 61.58 96.61 61.97 96.61 62.48ZM99.63 62.48C99.63 63.13 99.47 63.63 99.14 63.99C98.81 64.35 98.36 64.53 97.79 64.53C97.44 64.53 97.12 64.45 96.85 64.28C96.57 64.11 96.36 63.87 96.21 63.56C96.06 63.25 95.99 62.88 95.99 62.47C95.99 61.82 96.15 61.32 96.47 60.96C96.79 60.6 97.24 60.42 97.82 60.42C98.37 60.42 98.82 60.6 99.14 60.97C99.46 61.35 99.63 61.85 99.63 62.48Z" fill="#4D4D4D"/>
<path d="M103.39 64.4601V61.9001C103.39 61.5801 103.32 61.3401 103.17 61.1801C103.02 61.0201 102.79 60.9401 102.48 60.9401C102.07 60.9401 101.76 61.0501 101.57 61.2801C101.38 61.5001 101.28 61.8701 101.28 62.3901V64.4701H100.68V60.5001H101.17L101.27 61.0401H101.3C101.42 60.8401 101.6 60.6901 101.82 60.5901C102.04 60.4801 102.29 60.4301 102.56 60.4301C103.04 60.4301 103.4 60.5501 103.64 60.7801C103.88 61.0101 104 61.3801 104 61.8901V64.4801H103.39V64.4601Z" fill="#4D4D4D"/>
<path d="M106.74 60.9301C106.42 60.9301 106.17 61.0301 105.98 61.2401C105.79 61.4501 105.68 61.7301 105.65 62.1001H107.72C107.72 61.7201 107.64 61.4301 107.47 61.2301C107.29 61.0301 107.05 60.9301 106.74 60.9301ZM106.9 64.5401C106.31 64.5401 105.85 64.3601 105.51 64.0001C105.17 63.6401 105 63.1501 105 62.5101C105 61.8701 105.16 61.3601 105.47 60.9901C105.78 60.6101 106.21 60.4301 106.74 60.4301C107.24 60.4301 107.63 60.5901 107.92 60.9201C108.21 61.2501 108.35 61.6801 108.35 62.2101V62.5901H105.62C105.63 63.0601 105.75 63.4101 105.97 63.6501C106.19 63.8901 106.51 64.0101 106.91 64.0101C107.34 64.0101 107.76 63.9201 108.18 63.7401V64.2801C107.97 64.3701 107.77 64.4401 107.58 64.4801C107.4 64.5201 107.17 64.5401 106.9 64.5401Z" fill="#4D4D4D"/>
<path d="M111.94 63.38C111.94 63.75 111.8 64.03 111.53 64.23C111.25 64.43 110.87 64.53 110.37 64.53C109.84 64.53 109.43 64.45 109.14 64.28V63.72C109.33 63.82 109.53 63.89 109.75 63.95C109.97 64.01 110.18 64.03 110.38 64.03C110.69 64.03 110.93 63.98 111.1 63.88C111.27 63.78 111.35 63.63 111.35 63.42C111.35 63.27 111.28 63.13 111.15 63.02C111.02 62.91 110.76 62.78 110.37 62.63C110 62.49 109.74 62.37 109.58 62.27C109.42 62.17 109.31 62.05 109.23 61.92C109.15 61.79 109.12 61.63 109.12 61.45C109.12 61.13 109.25 60.87 109.51 60.68C109.77 60.49 110.13 60.4 110.59 60.4C111.02 60.4 111.43 60.49 111.84 60.66L111.63 61.15C111.23 60.99 110.87 60.9 110.55 60.9C110.27 60.9 110.05 60.94 109.91 61.03C109.77 61.12 109.69 61.24 109.69 61.4C109.69 61.51 109.72 61.6 109.77 61.67C109.82 61.74 109.91 61.82 110.03 61.88C110.15 61.95 110.38 62.04 110.72 62.17C111.19 62.34 111.51 62.51 111.67 62.69C111.86 62.9 111.94 63.12 111.94 63.38Z" fill="#4D4D4D"/>
<path d="M112.83 64.0801C112.83 63.9201 112.87 63.8001 112.94 63.7101C113.01 63.6301 113.12 63.5901 113.26 63.5901C113.4 63.5901 113.51 63.6301 113.59 63.7101C113.67 63.7901 113.71 63.9201 113.71 64.0801C113.71 64.2401 113.67 64.3601 113.59 64.4401C113.51 64.5201 113.4 64.5701 113.26 64.5701C113.14 64.5701 113.04 64.5301 112.95 64.4601C112.87 64.3801 112.83 64.2501 112.83 64.0801Z" fill="#4D4D4D"/>
</svg>
