<svg width="302" height="38" viewBox="0 0 302 38" fill="none" xmlns="http://www.w3.org/2000/svg">
<g clip-path="url(#clip0_45_94)">
<path d="M20.2687 1.01706C20.4536 1.09547 20.6385 1.17389 20.8291 1.25468C22.5463 2.08449 23.8923 3.37466 25.2987 4.63659C25.8111 5.08941 26.3407 5.51917 26.8733 5.94786C27.7776 6.6798 28.6404 7.44738 29.5001 8.23078C30.2309 8.88045 30.9906 9.49167 31.7506 10.1066C32.5811 10.7903 33.3817 11.5059 34.1787 12.2281C34.8945 11.9167 35.3877 11.5006 35.9564 10.9695C36.6956 10.2911 37.4464 9.64029 38.2271 9.01014C38.9735 8.40637 39.6976 7.78825 40.4071 7.14163C41.2878 6.33995 42.1959 5.58228 43.1239 4.83599C43.5534 4.48303 43.9713 4.12706 44.3858 3.75738C47.0128 1.42814 49.7791 0.0581614 53.3439 0.0957797C53.5535 0.097352 53.7632 0.0989243 53.9791 0.100544C57.3814 0.175458 60.2216 1.50972 62.6216 3.92363C63.8673 5.2388 63.8673 5.2388 63.8673 5.79215C63.0121 5.48218 62.2813 5.05818 61.5057 4.5854C58.6718 2.91468 55.4492 1.99791 52.1769 2.7323C49.1976 3.54956 47.0844 5.36449 44.8586 7.41169C44.3433 7.87587 43.814 8.3146 43.2747 8.75062C42.331 9.51388 41.412 10.3011 40.4979 11.0992C39.3153 12.1312 38.1163 13.132 36.8777 14.0966C37.15 14.9135 37.5698 15.161 38.2401 15.6927C38.4502 15.8605 38.6603 16.0283 38.8767 16.2012C39.0392 16.3288 39.2016 16.4565 39.369 16.588C39.9403 16.3231 40.3957 16.0389 40.8669 15.6221C40.9908 15.5134 41.1148 15.4048 41.2424 15.2928C41.3736 15.1764 41.5047 15.06 41.6398 14.9401C41.9202 14.6939 42.2009 14.4479 42.4816 14.2021C42.6217 14.079 42.7619 13.956 42.9063 13.8292C43.5987 13.2251 44.3014 12.6335 45.0052 12.0427C45.5939 11.5475 46.1771 11.0472 46.7538 10.538C50.0844 7.60709 53.2786 6.19674 57.7752 6.37869C60.6857 6.59577 63.5591 7.99233 65.5282 10.152C68.1733 13.4405 68.923 16.7882 68.6424 20.9479C68.2275 24.0915 66.4352 26.618 64.0749 28.6295C61.2841 30.6634 57.9397 31.5637 54.5114 31.0576C51.319 30.468 49.1505 28.9719 46.7753 26.8581C46.2731 26.4177 45.7543 25.9991 45.2341 25.5802C44.3286 24.8455 43.4632 24.0762 42.6016 23.2908C41.6881 22.4787 40.7367 21.7138 39.7842 20.9479C38.9403 21.2327 38.3986 21.6165 37.747 22.2195C37.501 22.4451 37.501 22.4451 37.2499 22.6753C37.1271 22.7903 37.0042 22.9054 36.8777 23.024C37.6582 24.0737 38.579 24.8344 39.5985 25.6491C40.1621 26.1077 40.7013 26.5824 41.2375 27.0724C42.1084 27.8654 43.0082 28.6115 43.9251 29.3505C44.3996 29.743 44.8631 30.1404 45.3233 30.5491C48.6906 33.5391 51.5636 35.072 56.1154 34.8942C58.3331 34.7284 61.0663 33.5308 62.7708 32.1005C62.9271 31.9828 63.0834 31.865 63.2444 31.7437C63.45 31.8122 63.6555 31.8807 63.8673 31.9513C63.3892 32.5108 62.9041 33.0633 62.414 33.6122C62.2994 33.7409 62.1849 33.8697 62.0669 34.0023C60.1658 36.0256 57.4129 37.2996 54.6334 37.3914C50.8756 37.4494 50.8756 37.4494 49.1268 36.7264C48.9047 36.6373 48.6825 36.5482 48.4537 36.4563C46.5126 35.5852 45.0484 34.3527 43.4897 32.9227C42.8848 32.3732 42.2623 31.8448 41.6398 31.3155C41.3997 31.1101 41.1596 30.9047 40.9196 30.6992C40.8011 30.5977 40.6825 30.4963 40.5603 30.3918C40.1954 30.0793 39.8308 29.7665 39.4663 29.4535C37.8483 28.0643 36.2237 26.6831 34.5939 25.3077C33.7336 25.6607 33.09 26.2713 32.401 26.8778C32.1403 27.1045 31.8795 27.3311 31.6184 27.5574C31.4251 27.7251 31.4251 27.7251 31.2278 27.8962C30.7143 28.3366 30.1895 28.7625 29.6631 29.1875C28.9346 29.7786 28.2288 30.3855 27.5351 31.0171C26.6401 31.8313 25.7194 32.6053 24.7769 33.3641C24.4124 33.6588 24.0515 33.9581 23.6951 34.2626C20.6947 36.7877 17.5545 37.5982 13.7073 37.3922C10.2075 37.0898 7.42489 35.0738 5.17216 32.519C4.90534 32.1589 4.90534 32.1589 4.90534 31.7437C5.75841 32.0523 6.48224 32.4762 7.25396 32.9505C10.2948 34.7215 13.7753 35.5421 17.2583 34.6243C17.5739 34.5052 17.8856 34.3751 18.1925 34.2351C18.367 34.1588 18.5415 34.0825 18.7213 34.0039C20.3668 33.1978 21.664 32.0288 23.0193 30.8197C23.582 30.3219 24.1571 29.8393 24.7323 29.3562C26.0305 28.2605 27.3202 27.1553 28.6089 26.0487C29.2801 25.4726 29.9517 24.8971 30.6233 24.3216C30.8693 24.1107 31.1153 23.8999 31.3613 23.689C31.5374 23.538 31.7135 23.3871 31.895 23.2316C31.3032 22.6317 30.7097 22.049 30.0654 21.5058C29.9399 21.3996 29.8143 21.2933 29.685 21.1839C29.5922 21.106 29.4993 21.0281 29.4036 20.9479C28.4776 21.2425 27.8822 21.7506 27.1977 22.4141C26.2339 23.3232 25.2434 24.1758 24.2101 25.006C23.6045 25.5038 23.0151 26.0158 22.4268 26.5336C18.8601 29.6679 15.5872 31.4325 10.7185 31.1209C7.46319 30.702 4.49667 28.9518 2.49185 26.4107C0.196112 23.2545 -0.348564 19.7636 0.193513 15.9334C0.357365 15.1411 0.628632 14.4169 0.960706 13.6814C1.04875 13.4847 1.1368 13.288 1.22752 13.0853C2.78583 9.95569 5.46309 7.86688 8.74617 6.75884C12.1603 5.86263 15.7018 6.31379 18.7562 8.04669C19.8552 8.76282 20.824 9.6046 21.8007 10.4769C22.3496 10.9629 22.9122 11.4324 23.4737 11.9037C24.5662 12.8266 25.6528 13.7564 26.737 14.689C27.4818 15.329 28.2326 15.961 28.9884 16.588C29.7089 16.2655 30.2817 15.8358 30.8958 15.3423C31.0786 15.1967 31.2614 15.0511 31.4497 14.9011C31.9091 14.5491 31.9091 14.5491 32.1026 14.0966C31.9851 14.0455 31.8676 13.9944 31.7465 13.9417C31.1906 13.6367 30.7883 13.2709 30.3249 12.838C29.6059 12.1788 28.8779 11.5434 28.119 10.9306C27.1949 10.1822 26.2913 9.41403 25.3941 8.63384C25.2624 8.51973 25.1308 8.40562 24.9951 8.28806C24.3398 7.71948 23.6877 7.14783 23.0406 6.56988C20.2277 4.07423 17.2962 2.30104 13.4175 2.47035C10.5819 2.86849 8.2371 3.92589 5.86393 5.46532C5.32057 5.79215 5.32057 5.79215 4.90534 5.79215C6.10239 3.09414 8.79786 1.6488 11.3981 0.590481C14.1108 -0.350014 17.665 -0.137308 20.2687 1.01706ZM6.15102 11.6053C6.02122 11.7185 5.89142 11.8317 5.75769 11.9483C4.02654 13.5513 2.9711 15.6064 2.76353 17.9537C2.67677 20.7187 3.51665 23.0059 5.28164 25.1398C6.96466 26.9281 9.26539 28.2689 11.7379 28.4714C15.7092 28.5649 18.0994 26.4477 20.9273 23.9777C21.5484 23.436 22.1735 22.899 22.7989 22.3622C22.9186 22.2593 23.0382 22.1563 23.1614 22.0503C24.1112 21.2357 25.0793 20.4472 26.0591 19.6689C26.5373 19.2855 26.5373 19.2855 26.9123 18.6641C25.5385 17.3815 24.1497 16.1416 22.6846 14.9628C22.1529 14.5248 21.6449 14.0699 21.138 13.6036C18.2507 10.9912 15.6523 8.95913 11.6008 9.04339C9.46115 9.15953 7.70353 10.1931 6.15102 11.6053ZM48.4529 12.9459C47.8938 13.4621 47.3187 13.9436 46.7263 14.421C45.7943 15.1738 44.8993 15.9576 44.0135 16.764C43.3046 17.4075 42.5831 18.0363 41.8604 18.6641C42.6244 19.6916 43.5163 20.438 44.5139 21.2358C45.2638 21.8386 45.9881 22.4696 46.7133 23.1018C46.8454 23.2163 46.9775 23.3307 47.1137 23.4486C47.7492 23.9992 48.3815 24.5526 49.0076 25.1139C51.3631 27.2022 53.7475 28.5382 56.9609 28.4722C59.4442 28.288 61.8069 26.9749 63.491 25.1609C65.3999 22.746 66.2524 20.2835 65.9434 17.2108C65.2755 14.324 63.4591 11.8659 60.9737 10.2818C56.3011 7.70183 52.0568 9.55725 48.4529 12.9459ZM32.6865 17.5223C32.5125 17.6856 32.5125 17.6856 32.3349 17.8523C32.0486 18.1215 31.764 18.3927 31.4797 18.6641C32.0136 19.3626 32.5512 19.962 33.2315 20.5197C33.3853 20.65 33.5392 20.7803 33.6978 20.9146C34.1686 21.2129 34.1686 21.2129 34.688 21.0476C35.3087 20.6868 35.7949 20.2698 36.3197 19.78C36.503 19.6104 36.6863 19.4407 36.8752 19.2659C37.0131 19.1358 37.1509 19.0057 37.2929 18.8717C36.7554 18.1629 36.2177 17.5877 35.5152 17.0421C35.3565 16.9166 35.1978 16.7911 35.0343 16.6618C33.9809 15.9887 33.434 16.8056 32.6865 17.5223Z" fill="#6CA923"/>
<path d="M72.6977 4.62775C75.4253 4.6149 78.153 4.60205 80.9633 4.58882C81.8204 4.58315 82.6776 4.57748 83.5607 4.57164C84.6178 4.56882 84.6178 4.56882 85.1148 4.5683C85.4574 4.56735 85.8 4.56518 86.1427 4.56199C89.1269 4.53564 92.2271 4.70128 94.497 6.91148C96.4037 9.28024 96.6503 11.8518 96.3655 14.8008C95.9462 16.857 94.8102 18.5122 93.1021 19.7178C91.5008 20.6418 89.7848 21.0563 87.9501 21.0527C87.68 21.0527 87.4099 21.0527 87.1316 21.0527C86.8388 21.0516 86.5461 21.0505 86.2533 21.0494C85.9523 21.049 85.6512 21.0487 85.3501 21.0485C84.56 21.0477 83.7699 21.0457 82.9797 21.0434C82.0305 21.0409 81.0812 21.0399 80.132 21.0387C78.6919 21.0367 77.2519 21.0327 75.8119 21.0291C75.8119 24.9343 75.8119 28.8395 75.8119 32.863C74.7842 32.863 73.7565 32.863 72.6977 32.863C72.6977 23.5454 72.6977 14.2277 72.6977 4.62775ZM75.8119 7.53432C75.8119 11.097 75.8119 14.6596 75.8119 18.3302C77.4221 18.3397 79.0321 18.348 80.6423 18.353C81.1892 18.3551 81.7361 18.3579 82.2829 18.3615C83.0725 18.3666 83.862 18.3689 84.6516 18.3707C84.8931 18.3729 85.1345 18.375 85.3833 18.3772C87.8046 18.3775 90.0611 18.2928 91.9075 16.5833C93.0952 15.2958 93.1262 13.814 93.0956 12.1488C92.9986 10.8968 92.7306 9.97579 91.9148 9.01356C91.6515 8.79518 91.6515 8.79518 91.3828 8.57238C91.2586 8.45677 91.1345 8.34116 91.0065 8.22204C89.462 7.29531 87.6016 7.48011 85.8681 7.49377C85.5772 7.49455 85.2864 7.49514 84.9955 7.49555C84.2351 7.49713 83.4746 7.5012 82.7142 7.50581C81.9362 7.51008 81.1582 7.51198 80.3802 7.51405C78.8574 7.51826 77.3347 7.52639 75.8119 7.53432Z" fill="#221E20"/>
<path d="M120.462 10.4011C122.546 12.3187 123.767 14.9195 123.889 17.7559C123.893 18.0811 123.894 18.4063 123.891 18.7315C123.89 18.9036 123.889 19.0757 123.888 19.253C123.832 22.0925 122.975 24.4752 121.05 26.5949C118.175 29.3216 114.754 29.7984 110.951 29.735C108.565 29.645 106.457 29.0172 104.518 27.594C104.372 27.4875 104.225 27.381 104.074 27.2712C102.198 25.775 100.906 23.5386 100.574 21.158C100.279 17.6998 100.459 14.6383 102.65 11.8154C102.804 11.6013 102.958 11.3872 103.117 11.1667C107.435 6.65196 115.688 6.66273 120.462 10.4011ZM105.297 13.3336C103.538 15.4907 103.48 18.0875 103.688 20.7428C104.119 22.8941 105.423 24.6903 107.217 25.9331C109.66 27.392 112.414 27.3193 115.107 26.7635C115.788 26.5593 116.368 26.3012 116.975 25.9331C117.117 25.848 117.259 25.7629 117.405 25.6752C118.984 24.6124 120.155 23.0014 120.621 21.1491C121.022 18.4386 120.857 15.7946 119.22 13.5023C118.448 12.5958 117.608 11.959 116.56 11.4002C116.401 11.3143 116.242 11.2284 116.079 11.1399C112.455 9.51199 107.956 10.4758 105.297 13.3336Z" fill="#221E20"/>
<path d="M127.893 8.42676C128.989 8.42676 130.085 8.42676 131.214 8.42676C132.676 12.0516 134.098 15.6899 135.496 19.3394C135.687 19.8359 135.877 20.3323 136.068 20.8288C136.527 22.0233 136.985 23.2181 137.443 24.4129C138.137 22.9222 138.714 21.3974 139.279 19.8536C139.372 19.5989 139.466 19.3443 139.562 19.082C139.81 18.4094 140.056 17.7365 140.303 17.0635C140.552 16.3843 140.801 15.7055 141.051 15.0266C141.859 12.8279 142.664 10.6284 143.463 8.42676C144.628 8.42676 145.793 8.42676 146.993 8.42676C148.318 11.6801 149.561 14.9627 150.789 18.2536C151.041 18.9276 151.293 19.6014 151.545 20.2753C152.035 21.5851 152.525 22.8951 153.014 24.2053C153.49 23.729 153.628 23.3609 153.872 22.735C153.959 22.5143 154.046 22.2936 154.135 22.0663C154.228 21.8258 154.321 21.5854 154.417 21.3377C154.515 21.0891 154.612 20.8404 154.712 20.5843C154.973 19.9199 155.231 19.2549 155.49 18.5899C155.748 17.9279 156.006 17.2663 156.265 16.6047C156.844 15.125 157.42 13.6445 157.996 12.1638C158.077 11.9568 158.157 11.7498 158.24 11.5365C158.644 10.5 159.047 9.46342 159.45 8.42676C160.614 8.42676 161.779 8.42676 162.979 8.42676C162.526 9.8337 162.008 11.2006 161.451 12.5693C161.364 12.7857 161.276 13.0022 161.186 13.2252C160.902 13.927 160.617 14.6284 160.332 15.3299C160.136 15.8137 159.94 16.2975 159.744 16.7814C159.35 17.754 158.955 18.7264 158.561 19.6988C158.047 20.9664 157.535 22.235 157.023 23.5038C156.809 24.0342 156.595 24.5646 156.381 25.095C156.247 25.4267 156.113 25.7585 155.98 26.0903C155.797 26.5443 155.614 26.998 155.43 27.4517C155.329 27.7037 155.227 27.9557 155.122 28.2154C154.882 28.7728 154.882 28.7728 154.675 28.9804C154.115 28.9956 153.56 28.9996 153.001 28.9934C152.843 28.9924 152.686 28.9915 152.523 28.9905C152.133 28.9881 151.743 28.9844 151.353 28.9804C150.666 27.6731 150.131 26.3433 149.622 24.9579C149.539 24.7331 149.455 24.5083 149.369 24.2767C149.104 23.5612 148.84 22.8452 148.576 22.1292C148.4 21.6547 148.225 21.1803 148.049 20.7059C147.711 19.7945 147.374 18.8829 147.037 17.9713C146.474 16.4487 145.904 14.9286 145.332 13.4095C144.687 14.8054 144.132 16.2245 143.601 17.6671C143.476 18.0046 143.476 18.0046 143.349 18.3489C143.083 19.0638 142.819 19.779 142.555 20.4942C141.505 23.3362 140.455 26.1746 139.311 28.9804C138.146 28.9804 136.982 28.9804 135.782 28.9804C135.505 28.2827 135.229 27.585 134.952 26.8872C134.865 26.6669 134.778 26.4466 134.688 26.2197C134.201 24.9928 133.715 23.7659 133.229 22.5388C132.356 20.3337 131.483 18.1285 130.604 15.9258C130.274 15.0996 129.945 14.2731 129.617 13.4465C129.462 13.0591 129.307 12.6718 129.152 12.2846C128.938 11.7489 128.724 11.2127 128.511 10.6764C128.448 10.5193 128.385 10.3621 128.319 10.2002C128.073 9.57806 127.893 9.10225 127.893 8.42676Z" fill="#221E20"/>
<path d="M186.085 9.89072C188.298 11.7205 189.266 13.9627 189.822 16.7419C189.822 17.6326 189.822 18.5233 189.822 19.4409C183.313 19.4409 176.805 19.4409 170.099 19.4409C170.898 22.4385 171.413 24.3644 174.07 25.9296C176.553 27.1331 179.368 27.1512 182.011 26.4608C183.489 25.9468 184.675 25.2572 185.449 23.8656C185.593 23.5676 185.736 23.2692 185.877 22.9703C186.083 22.662 186.083 22.662 186.293 22.3475C186.838 22.3015 187.332 22.289 187.876 22.3085C188.022 22.3114 188.169 22.3142 188.32 22.3171C188.682 22.3244 189.045 22.3356 189.407 22.3475C188.815 24.6788 187.425 26.569 185.462 27.953C182.077 29.8646 177.968 30.1901 174.199 29.2895C171.735 28.5073 169.801 27.0806 168.489 24.8396C166.749 21.4807 166.595 18.0819 167.607 14.4582C168.613 11.849 170.123 10.1557 172.59 8.85266C176.809 7.0258 182.253 7.22122 186.085 9.89072ZM171.487 13.5499C170.735 14.6894 170.735 14.6894 170.099 17.1572C175.58 17.1572 181.061 17.1572 186.708 17.1572C186.254 15.1166 185.712 13.3064 183.962 12.0504C182.226 10.9565 180.602 10.3959 178.546 10.4227C178.374 10.4245 178.202 10.4262 178.025 10.428C175.32 10.5021 173.242 11.4752 171.487 13.5499Z" fill="#221E20"/>
<path d="M204.89 8.11956C205.064 8.12049 205.237 8.12143 205.416 8.12239C205.842 8.12483 206.268 8.12855 206.694 8.13253C206.694 9.22873 206.694 10.3249 206.694 11.4543C206.421 11.4447 206.147 11.4351 205.866 11.4251C203.414 11.3638 201.364 11.3616 199.35 12.9336C197.557 14.66 197.158 16.9879 197.078 19.3863C197.069 19.8486 197.063 20.311 197.058 20.7734C197.054 21.019 197.05 21.2646 197.046 21.5176C197.033 22.2938 197.024 23.07 197.014 23.8462C197.006 24.3759 196.998 24.9056 196.99 25.4353C196.97 26.7265 196.952 28.0177 196.936 29.309C195.908 29.309 194.881 29.309 193.822 29.309C193.822 22.5263 193.822 15.7436 193.822 8.75537C194.85 8.75537 195.877 8.75537 196.936 8.75537C197.005 9.98859 197.073 11.2218 197.144 12.4924C197.503 11.9657 197.503 11.9657 197.87 11.4284C199.058 9.79873 200.397 8.74859 202.36 8.22174C203.205 8.09545 204.037 8.1108 204.89 8.11956Z" fill="#221E20"/>
<path d="M210.694 4.28389C214.201 4.27105 214.201 4.27105 217.779 4.25794C218.511 4.25416 219.243 4.25038 219.998 4.24649C220.907 4.24461 220.907 4.24461 221.336 4.24426C221.629 4.24363 221.922 4.24219 222.215 4.24006C226.256 4.2121 230.185 4.57766 233.324 7.39808C236.072 10.1459 236.917 13.9661 236.95 17.7366C236.949 18.0188 236.947 18.301 236.944 18.5832C236.943 18.7289 236.943 18.8745 236.942 19.0246C236.914 23.0572 236.107 26.7855 233.193 29.7829C229.918 32.7936 226.054 33.2136 221.784 33.1826C221.498 33.182 221.213 33.1815 220.927 33.1813C219.882 33.1792 218.837 33.1734 217.792 33.168C215.449 33.1594 213.107 33.1509 210.694 33.142C210.694 23.6188 210.694 14.0957 210.694 4.28389ZM212.77 6.15241C212.77 14.4424 212.77 22.7323 212.77 31.2735C214.877 31.2864 216.984 31.2992 219.154 31.3124C219.814 31.3181 220.474 31.3238 221.155 31.3296C221.685 31.3314 222.215 31.333 222.745 31.3343C223.015 31.3375 223.285 31.3407 223.562 31.344C226.582 31.3449 229.424 30.6985 231.688 28.59C234.287 25.7204 235.064 21.9674 235.016 18.2037C234.845 14.7752 234.068 11.422 231.692 8.83434C226.747 4.40382 218.316 6.15241 212.77 6.15241Z" fill="#6CA923"/>
<path d="M259.271 9.78283C260.446 11.0475 260.741 12.251 260.724 13.9621C260.724 14.1243 260.724 14.2865 260.725 14.4536C260.724 14.9861 260.721 15.5185 260.718 16.0509C260.717 16.4215 260.716 16.7921 260.716 17.1627C260.714 18.1355 260.71 19.1082 260.706 20.0809C260.701 21.0746 260.7 22.0682 260.697 23.0619C260.693 25.0096 260.686 26.9574 260.677 28.9051C260.129 28.9051 259.581 28.9051 259.016 28.9051C258.914 27.3636 258.914 27.3636 258.809 25.7909C258.552 26.0735 258.295 26.3561 258.03 26.6473C255.879 28.7882 253.01 29.5922 250.03 29.625C249.814 29.623 249.598 29.6209 249.375 29.6187C249.036 29.6168 249.036 29.6168 248.689 29.6149C246.163 29.5659 244.003 29.0911 242.161 27.2442C241.128 25.9721 240.878 24.3295 240.967 22.7286C241.184 21.14 241.766 19.9983 243.035 19.0046C244.964 17.7235 247.164 17.457 249.427 17.3242C249.613 17.3119 249.799 17.2997 249.99 17.2871C250.774 17.2354 251.558 17.1869 252.342 17.1382C252.919 17.1018 253.496 17.0638 254.073 17.0257C254.333 17.0105 254.333 17.0105 254.598 16.9949C255.82 16.9141 256.991 16.7142 258.186 16.4483C258.675 14.8937 258.789 13.503 258.043 12.0106C256.769 10.5647 255.19 10.1063 253.305 9.97645C249.231 9.76065 249.231 9.76065 245.603 11.3602C244.665 12.3747 244.351 13.6774 244.068 14.995C243.383 14.995 242.698 14.995 241.992 14.995C242.115 13.0962 242.566 11.3393 243.896 9.91502C245.064 8.93715 246.525 8.39815 248.013 8.14383C248.212 8.1093 248.212 8.1093 248.414 8.07408C251.774 7.60411 256.572 7.48632 259.271 9.78283ZM257.895 18.1936C256.286 18.7351 254.56 18.7316 252.879 18.8359C248.056 18.9002 248.056 18.9002 243.861 20.8082C243.062 21.8642 242.943 22.823 243.03 24.13C243.274 25.2889 243.751 26.0508 244.686 26.777C246.936 28.1668 249.844 28.0659 252.353 27.6099C254.71 27.0296 256.785 25.9424 258.186 23.9224C259.15 22.1198 258.864 19.8792 258.809 17.9016C258.506 17.8884 258.506 17.8884 257.895 18.1936Z" fill="#6CA923"/>
<path d="M269.293 4.97644C269.978 4.97644 270.663 4.97644 271.369 4.97644C271.369 7.16883 271.369 9.36122 271.369 11.62C273.287 11.62 275.205 11.62 277.182 11.62C277.182 12.2366 277.182 12.8533 277.182 13.4886C275.263 13.4886 273.345 13.4886 271.369 13.4886C271.386 15.5044 271.406 17.5203 271.428 19.5361C271.439 20.4721 271.448 21.4082 271.456 22.3442C271.464 23.2475 271.474 24.1507 271.484 25.054C271.488 25.3987 271.491 25.7433 271.494 26.088C271.497 26.5707 271.503 27.0532 271.51 27.5358C271.51 27.6785 271.511 27.8211 271.511 27.968C271.524 28.7084 271.572 29.2681 271.991 29.8899C273.455 30.8862 275.735 30.5241 277.389 30.3052C277.389 30.9218 277.389 31.5384 277.389 32.1737C276.482 32.4761 275.602 32.428 274.652 32.4332C274.365 32.4396 274.365 32.4396 274.072 32.4462C272.552 32.4548 271.379 32.2536 270.149 31.2913C269.307 30.2013 269.231 28.9907 269.245 27.6537C269.245 27.4996 269.245 27.3455 269.245 27.1867C269.245 26.6823 269.249 26.178 269.252 25.6736C269.253 25.3219 269.253 24.9703 269.254 24.6186C269.255 23.6967 269.259 22.7748 269.264 21.853C269.268 20.9108 269.27 19.9686 269.272 19.0264C269.277 17.1804 269.284 15.3345 269.293 13.4886C267.785 13.4886 266.278 13.4886 264.725 13.4886C264.725 12.8719 264.725 12.2553 264.725 11.62C266.232 11.62 267.74 11.62 269.293 11.62C269.293 9.42765 269.293 7.23526 269.293 4.97644Z" fill="#6CA923"/>
<path d="M299.685 9.80624C300.944 11.0482 301.234 12.3569 301.259 14.0992C301.262 14.7924 301.254 15.4851 301.246 16.1782C301.244 16.5479 301.243 16.9176 301.242 17.2873C301.239 18.2549 301.231 19.2225 301.222 20.1901C301.213 21.1796 301.209 22.1692 301.205 23.1587C301.196 25.0963 301.182 27.0339 301.164 28.9715C300.616 28.9715 300.068 28.9715 299.504 28.9715C299.435 27.8753 299.367 26.7791 299.296 25.6497C299.095 25.898 298.893 26.1464 298.686 26.4023C296.95 28.368 294.514 29.4564 291.893 29.631C285.461 29.7697 285.461 29.7697 283.31 27.9334C281.946 26.5533 281.516 25.3417 281.389 23.4049C281.423 21.78 281.999 20.5329 283.116 19.3629C285.497 17.2462 289.308 17.4024 292.302 17.2284C292.889 17.1935 293.476 17.1579 294.062 17.1205C294.424 17.0974 294.786 17.0758 295.149 17.056C297.025 16.9686 297.025 16.9686 298.66 16.1773C299.168 15.0417 299.19 13.9285 298.833 12.7534C298.446 11.8064 298.011 11.296 297.103 10.863C294.094 9.72245 290.425 9.60194 287.37 10.6464C286.206 11.2223 285.473 11.9978 284.971 13.1929C284.796 13.8145 284.673 14.425 284.555 15.0614C283.87 15.0614 283.185 15.0614 282.479 15.0614C282.535 13.1675 283.047 11.5744 284.265 10.0885C287.644 6.91802 296.114 7.08671 299.685 9.80624ZM298.281 18.2661C297.185 18.6343 296.132 18.732 294.983 18.8041C294.555 18.8361 294.127 18.8682 293.699 18.9002C293.033 18.9472 292.367 18.9931 291.701 19.038C291.052 19.0827 290.403 19.1314 289.754 19.1804C289.558 19.1924 289.362 19.2043 289.161 19.2166C287.421 19.3504 285.365 19.7432 284.14 21.0822C283.516 22.1804 283.332 23.1671 283.517 24.404C283.853 25.561 284.494 26.3728 285.483 27.0502C288.146 28.3693 291.339 28.1472 294.106 27.3106C296.125 26.5878 297.94 25.4898 298.91 23.5038C299.32 22.2331 299.324 20.9615 299.309 19.6419C299.308 19.4801 299.307 19.3183 299.306 19.1516C299.304 18.7571 299.3 18.3625 299.296 17.968C298.938 17.968 298.614 18.1428 298.281 18.2661Z" fill="#6CA923"/>
<path d="M20.223 0.836315C20.4087 0.915279 20.5944 0.994242 20.7857 1.0756C22.5102 1.91122 23.8618 3.21043 25.2741 4.48119C25.7887 4.93718 26.3205 5.36995 26.8554 5.80164C27.7634 6.53871 28.6299 7.31166 29.4932 8.10055C30.227 8.75476 30.9899 9.37027 31.7531 9.98949C32.5871 10.6779 33.391 11.3986 34.1914 12.1259C34.9102 11.8123 35.4055 11.3933 35.9765 10.8584C36.7188 10.1753 37.4728 9.51992 38.2568 8.88536C39.0063 8.27737 39.7334 7.65492 40.4459 7.00377C41.3303 6.19647 42.2423 5.43351 43.1741 4.68199C43.6055 4.32656 44.0251 3.96809 44.4413 3.59583C47.0793 1.25027 49.8573 -0.129298 53.4371 -0.0914159C53.6476 -0.0898326 53.8581 -0.0882493 54.0749 -0.086618C57.4915 -0.0111794 60.3437 1.33243 62.7537 3.76324C64.0046 5.08762 64.0046 5.08762 64.0046 5.64484C63.1458 5.3327 62.412 4.90573 61.6331 4.42964C58.7873 2.74722 55.5512 1.82403 52.2652 2.56356C49.2733 3.38655 47.1513 5.21419 44.9161 7.27572C44.3986 7.74315 43.8671 8.18495 43.3256 8.62403C42.3828 9.38889 41.4638 10.1768 40.5501 10.976C39.1026 12.2409 37.6319 13.4724 36.1256 14.6665C35.2197 15.385 34.3732 16.1041 33.5659 16.9344C32.9459 17.4981 32.3185 18.0532 31.6896 18.6069C32.4445 19.3877 33.2385 20.0951 34.0717 20.7915C34.18 20.8985 34.2883 21.0055 34.3999 21.1157C34.3999 21.2537 34.3999 21.3917 34.3999 21.5339C34.0633 21.834 33.7135 22.1196 33.3574 22.3963C33.1639 22.5477 32.9704 22.6992 32.7711 22.8552C32.6206 22.9711 32.4701 23.087 32.315 23.2064C31.3169 22.4671 30.3418 21.7127 29.3963 20.9067C28.4663 21.2034 27.8684 21.715 27.1811 22.3832C26.2133 23.2986 25.2186 24.1572 24.1809 24.9933C23.5728 25.4945 22.9809 26.0101 22.3902 26.5315C18.8085 29.6878 15.5219 31.4647 10.6327 31.1509C7.36373 30.7291 4.38475 28.9667 2.37151 26.4077C0.0661367 23.2295 -0.480826 19.7141 0.0635269 15.8571C0.228067 15.0593 0.500473 14.33 0.833941 13.5894C0.922359 13.3913 1.01078 13.1932 1.10188 12.9891C2.66673 9.83754 5.35522 7.7341 8.65209 6.6183C12.0806 5.71581 15.6369 6.17013 18.7041 7.91517C19.8078 8.63632 20.7806 9.48399 21.7614 10.3624C22.3126 10.8518 22.8776 11.3246 23.4414 11.7992C24.5386 12.7286 25.6297 13.6648 26.7185 14.604C27.4664 15.2485 28.2203 15.8849 28.9793 16.5163C29.7029 16.1915 30.278 15.7588 30.8947 15.2619C31.0783 15.1153 31.2618 14.9687 31.451 14.8176C31.9123 14.4631 31.9123 14.4631 32.1065 14.0075C31.9886 13.956 31.8706 13.9045 31.749 13.8515C31.1908 13.5443 30.7867 13.1759 30.3214 12.74C29.5994 12.0762 28.8684 11.4363 28.1063 10.8192C27.1783 10.0656 26.2708 9.29208 25.3699 8.50643C25.2377 8.39152 25.1055 8.27662 24.9692 8.15823C24.3112 7.58567 23.6563 7.01001 23.0065 6.42802C20.1819 3.91489 17.238 2.12928 13.343 2.29978C10.4955 2.70071 8.14088 3.76551 5.75775 5.31572C5.2121 5.64484 5.2121 5.64484 4.79514 5.64484C5.99721 2.92794 8.704 1.47248 11.3151 0.40675C14.0392 -0.540331 17.6083 -0.326136 20.223 0.836315ZM6.04604 11.4987C5.9157 11.6127 5.78535 11.7267 5.65106 11.8441C3.91265 13.4583 2.85277 15.5278 2.64433 17.8915C2.55721 20.6759 3.40061 22.9791 5.17301 25.128C6.8631 26.9287 9.17349 28.279 11.6564 28.4829C15.6444 28.577 18.0446 26.445 20.8843 23.9577C21.5081 23.4123 22.1358 22.8714 22.7639 22.3309C22.884 22.2273 23.0041 22.1236 23.1279 22.0168C24.0816 21.1966 25.0538 20.4025 26.0377 19.6188C26.5179 19.2327 26.5179 19.2327 26.8944 18.6069C25.515 17.3153 24.1203 16.0667 22.649 14.8797C22.1151 14.4387 21.6049 13.9805 21.096 13.511C18.1965 10.8803 15.5872 8.83399 11.5187 8.91885C9.37007 9.0358 7.60507 10.0766 6.04604 11.4987Z" fill="#221E1F"/>
<path d="M36.6826 23.2097C37.2809 23.4976 37.6858 23.8971 38.1656 24.3563C38.9229 25.0688 39.6887 25.7539 40.498 26.4077C41.4222 27.1565 42.3251 27.9256 43.2213 28.7074C43.3533 28.8222 43.4852 28.937 43.6212 29.0552C44.2832 29.6317 44.9428 30.2105 45.5994 30.7932C48.8953 33.7008 51.7985 35.1239 56.2201 34.9506C58.4472 34.7837 61.1918 33.5777 62.9035 32.1374C63.139 31.9596 63.139 31.9596 63.3791 31.7781C63.5855 31.8471 63.7919 31.9161 64.0046 31.9872C63.5245 32.5505 63.0373 33.1069 62.5452 33.6597C62.4302 33.7893 62.3152 33.919 62.1966 34.0525C60.2876 36.09 57.5231 37.3729 54.7319 37.4654C50.9584 37.5238 50.9584 37.5238 49.2022 36.7957C48.9792 36.706 48.7561 36.6162 48.5263 36.5237C46.5771 35.6465 45.1068 34.4053 43.5415 32.9653C42.934 32.412 42.309 31.8799 41.6838 31.3469C41.4426 31.1401 41.2016 30.9332 40.9606 30.7262C40.782 30.573 40.782 30.573 40.5998 30.4167C40.2333 30.1021 39.8672 29.787 39.5012 29.4718C39.3794 29.367 39.2576 29.2622 39.132 29.1542C38.8895 28.9453 38.6471 28.7362 38.4049 28.527C37.7866 27.9939 37.164 27.4675 36.5328 26.95C36.3435 26.7936 36.3435 26.7936 36.1505 26.634C35.9094 26.4352 35.6671 26.2378 35.4235 26.0422C35.14 25.8074 34.8725 25.5536 34.6084 25.2971C34.6084 24.6699 34.6084 24.6699 34.9439 24.2811C35.0912 24.1507 35.2384 24.0203 35.3902 23.8859C35.5353 23.7533 35.6804 23.6207 35.8299 23.4841C36.2762 23.2064 36.2762 23.2064 36.6826 23.2097Z" fill="#221E20"/>
<path d="M20.2229 0.836315C20.4086 0.915279 20.5943 0.994242 20.7857 1.0756C22.5102 1.91122 23.8618 3.21043 25.2741 4.48119C25.7886 4.93718 26.3204 5.36995 26.8553 5.80164C27.7637 6.53895 28.6304 7.31214 29.4939 8.10137C30.2227 8.75094 30.9813 9.36084 31.7392 9.97561C32.6521 10.7331 33.5269 11.5318 34.3998 12.335C33.8282 13.0735 33.2711 13.6543 32.5235 14.2166C31.6282 13.9221 31.0911 13.4935 30.4126 12.8446C29.6602 12.1372 28.8965 11.4554 28.0932 10.8062C27.169 10.0574 26.2662 9.28819 25.3699 8.50643C25.2376 8.39151 25.1054 8.27658 24.9691 8.15817C24.3111 7.58564 23.6563 7.00999 23.0065 6.42802C20.1818 3.91489 17.238 2.12928 13.3429 2.29978C10.4955 2.70071 8.14085 3.76551 5.75771 5.31572C5.21207 5.64484 5.21207 5.64484 4.7951 5.64484C5.99718 2.92794 8.70396 1.47248 11.3151 0.40675C14.0392 -0.540331 17.6083 -0.326136 20.2229 0.836315Z" fill="#6CA923"/>
</g>
<defs>
<clipPath id="clip0_45_94">
<rect width="301.259" height="37.4228" fill="white"/>
</clipPath>
</defs>
</svg>
