<svg width="245" height="50" viewBox="0 0 245 50" fill="none" xmlns="http://www.w3.org/2000/svg">
<path d="M44.8608 8.49848C44.9257 8.51379 44.9905 8.5291 45.0573 8.54488C45.425 8.63517 45.7844 8.74222 46.1426 8.86469C46.2174 8.88983 46.2174 8.88983 46.2937 8.91547C47.5069 9.32788 48.7838 9.90643 49.7665 10.7453C49.9185 10.8885 49.9185 10.8885 50.1099 10.9399C50.2136 11.0396 50.315 11.1417 50.415 11.2451C50.4752 11.301 50.5359 11.3565 50.5969 11.4115C51.0309 11.8034 51.4343 12.208 51.8188 12.6489C51.7987 12.7093 51.7786 12.7697 51.7578 12.832C51.7188 12.8408 51.6798 12.8496 51.6396 12.8587C51.598 12.87 51.5565 12.8813 51.5137 12.893C51.4496 13.0059 51.4496 13.0059 51.3916 13.1372C51.2733 13.2745 51.2733 13.2745 51.1475 13.3813C51.087 13.3813 51.0266 13.3813 50.9644 13.3813C50.948 13.4203 50.9316 13.4593 50.9148 13.4995C50.8423 13.6254 50.8423 13.6254 50.6592 13.6865C50.6592 13.7268 50.6592 13.767 50.6592 13.8085C50.5592 13.8973 50.4555 13.9818 50.3502 14.0641C50.1049 14.2601 49.8782 14.4599 49.66 14.685C49.4952 14.851 49.3233 15.0144 49.1333 15.1513C49.093 15.1513 49.0527 15.1513 49.0112 15.1513C48.9911 15.2117 48.9709 15.2722 48.9502 15.3344C48.6166 15.6396 48.6166 15.6396 48.4619 15.6396C48.4216 15.7202 48.3813 15.8007 48.3398 15.8837C48.2996 15.8837 48.2593 15.8837 48.2178 15.8837C48.1976 15.9442 48.1775 16.0046 48.1567 16.0668C48.0309 16.1698 48.0309 16.1698 47.9126 16.2499C47.7269 16.169 47.6233 16.0897 47.5006 15.9295C47.3269 15.7161 47.1343 15.5662 46.9079 15.4114C46.8769 15.386 46.8459 15.3606 46.814 15.3344C46.814 15.2941 46.814 15.2539 46.814 15.2123C46.7797 15.196 46.7454 15.1796 46.71 15.1628C46.5603 15.0854 46.4209 14.9994 46.2799 14.9072C46.2311 14.8757 46.1823 14.8442 46.1321 14.8118C46.0953 14.7828 46.0584 14.7539 46.0205 14.7241C46.0205 14.6838 46.0205 14.6435 46.0205 14.602C45.9727 14.5894 45.9248 14.5768 45.8755 14.5638C45.6872 14.4924 45.5482 14.4183 45.3796 14.3121C43.5471 13.1896 41.1243 13.0445 39.0625 13.5034C38.6876 13.6017 38.3243 13.7277 37.9639 13.8696C37.9111 13.8903 37.8583 13.9111 37.8039 13.9325C37.6716 13.9888 37.5434 14.05 37.4145 14.1137C37.3097 14.1639 37.3097 14.1639 37.2028 14.215C36.7793 14.4147 36.7793 14.4147 36.3932 14.6764C36.2549 14.7851 36.2549 14.7851 36.0718 14.7851C36.0516 14.8455 36.0315 14.906 36.0107 14.9682C35.9061 15.0581 35.9061 15.0581 35.7704 15.1551C35.3544 15.469 34.9646 15.8266 34.668 16.2576C34.6277 16.3155 34.5874 16.3734 34.5459 16.433C34.5056 16.433 34.4653 16.433 34.4238 16.433C34.4079 16.4761 34.392 16.5191 34.3757 16.5635C34.2963 16.7512 34.2006 16.9183 34.0958 17.093C33.7017 17.7622 33.3585 18.4527 33.2274 19.2256C33.2031 19.3627 33.2031 19.3627 33.1383 19.5916C32.7008 21.3347 32.9889 23.6317 33.8466 25.2126C33.9067 25.3127 33.9681 25.4121 34.0309 25.5106C34.1194 25.6505 34.1974 25.7932 34.2751 25.9393C34.3689 26.1114 34.4675 26.26 34.5955 26.4085C34.729 26.5649 34.729 26.5649 34.729 26.687C34.7894 26.7071 34.8499 26.7272 34.9121 26.748C34.9929 26.8324 34.9929 26.8324 35.0761 26.9387C35.6069 27.5774 36.3298 28.0533 37.0483 28.457C37.1039 28.4886 37.1039 28.4886 37.1606 28.5209C38.4469 29.2077 39.879 29.4396 41.3208 29.4335C41.3771 29.4334 41.4334 29.4332 41.4914 29.433C42.6573 29.4215 43.9085 29.2543 44.9219 28.6401C44.9927 28.6126 44.9927 28.6126 45.0649 28.5845C45.2859 28.4939 45.4823 28.3732 45.6848 28.2472C45.7273 28.2208 45.7699 28.1944 45.8137 28.1672C46.1513 27.9523 46.4561 27.7111 46.7538 27.4441C46.9862 27.2363 46.9862 27.2363 47.1191 27.2363C47.1399 27.1853 47.1399 27.1853 47.1611 27.1333C47.2641 26.9518 47.3918 26.8261 47.5464 26.687C47.5867 26.687 47.627 26.687 47.6685 26.687C47.7087 26.6064 47.749 26.5258 47.7905 26.4428C48.0081 26.5366 48.1591 26.6677 48.3322 26.8281C48.5067 26.9886 48.6807 27.1459 48.8663 27.2935C48.9141 27.335 48.9619 27.3766 49.0112 27.4194C49.0112 27.4597 49.0112 27.4999 49.0112 27.5414C49.0622 27.5641 49.0622 27.5641 49.1142 27.5872C49.4671 27.7779 49.7336 28.0735 50.0069 28.3616C50.1733 28.5203 50.3461 28.6522 50.5333 28.785C50.69 28.9085 50.8241 29.0475 50.9644 29.1894C51.112 29.3293 51.2613 29.4672 51.4107 29.6052C51.4501 29.6417 51.4894 29.6781 51.53 29.7157C51.6262 29.8048 51.7225 29.8938 51.8188 29.9829C51.7349 30.1354 51.7349 30.1354 51.6357 30.288C51.5955 30.288 51.5552 30.288 51.5137 30.288C51.4929 30.339 51.4929 30.339 51.4717 30.391C51.3695 30.5711 51.2342 30.6931 51.0864 30.8373C51.0537 30.8827 51.021 30.928 50.9872 30.9747C50.9033 31.0815 50.9033 31.0815 50.7202 31.1425C50.6588 31.2236 50.5977 31.305 50.5371 31.3867C50.4968 31.3867 50.4565 31.3867 50.415 31.3867C50.415 31.4269 50.415 31.4672 50.415 31.5087C50.3168 31.5943 50.3168 31.5943 50.1862 31.688C50.1437 31.7188 50.1012 31.7496 50.0574 31.7812C50.0143 31.8122 49.9712 31.8431 49.9268 31.8749C49.8836 31.909 49.8405 31.9431 49.7961 31.9782C49.6826 32.0581 49.6826 32.0581 49.5605 32.0581C49.5605 32.0983 49.5605 32.1386 49.5605 32.1801C49.5039 32.2116 49.4472 32.2431 49.3889 32.2755C49.128 32.4243 48.8761 32.5863 48.6236 32.7487C48.3753 32.9066 48.1358 33.0477 47.8635 33.1603C47.6922 33.2337 47.5243 33.3138 47.3556 33.3932C46.4792 33.7979 45.5895 34.0791 44.6441 34.273C44.5335 34.2958 44.4229 34.3189 44.313 34.3452C42.0455 34.8836 39.2806 34.8238 37.0483 34.1943C36.9494 34.1753 36.8502 34.1574 36.7508 34.1409C35.4912 33.8982 34.1924 33.307 33.1085 32.6374C32.9938 32.5676 32.8772 32.5009 32.7599 32.4357C32.4996 32.2876 32.2569 32.1169 32.0129 31.9436C31.969 31.9128 31.925 31.8821 31.8797 31.8504C31.2781 31.425 31.2781 31.425 31.0669 31.2036C31.0669 31.1633 31.0669 31.123 31.0669 31.0815C31.0301 31.0754 30.9932 31.0692 30.9553 31.0629C30.7975 31.0124 30.7542 30.96 30.6549 30.8297C30.5165 30.6583 30.3729 30.5144 30.2048 30.372C30.021 30.2153 29.8616 30.0613 29.7241 29.8608C29.7241 29.8205 29.7241 29.7802 29.7241 29.7387C29.6838 29.7387 29.6436 29.7387 29.602 29.7387C29.5192 29.6363 29.4411 29.53 29.3655 29.4221C29.2437 29.2491 29.1228 29.0785 28.9898 28.914C28.3717 28.1328 27.8577 27.135 27.5269 26.1987C27.5034 26.1382 27.48 26.0777 27.4558 26.0153C26.3189 23.0055 26.3367 19.2099 27.6489 16.2499C27.7233 16.094 27.7997 15.9398 27.8802 15.7869C27.937 15.6737 27.9882 15.5575 28.0368 15.4405C28.1462 15.1817 28.2836 14.9408 28.4233 14.6974C28.4487 14.6527 28.4741 14.6081 28.5002 14.5621C28.5621 14.4532 28.6243 14.3445 28.6865 14.2358C28.7268 14.2358 28.7671 14.2358 28.8086 14.2358C28.8294 14.1754 28.8294 14.1754 28.8506 14.1137C29.1187 13.5009 29.1187 13.5009 29.3579 13.3813C29.3743 13.346 29.3906 13.3108 29.4075 13.2745C29.5036 13.0923 29.6386 12.9768 29.7852 12.832C29.8646 12.7447 29.9441 12.6574 30.0229 12.5695C30.2973 12.2634 30.5784 11.9778 30.8914 11.7102C31.0419 11.5801 31.1768 11.4414 31.311 11.2947C31.4331 11.184 31.4331 11.184 31.6162 11.184C31.6364 11.1236 31.6565 11.0632 31.6772 11.0009C31.8236 10.896 31.8236 10.896 32.0053 10.7873C32.2368 10.6525 32.2368 10.6525 32.439 10.4802C32.5731 10.3506 32.7262 10.2872 32.8941 10.2075C33.1461 10.0897 33.1461 10.0897 33.3768 9.93698C33.5243 9.82962 33.6714 9.75825 33.8376 9.68294C33.9009 9.65407 33.9643 9.62519 34.0296 9.59544C34.1284 9.55095 34.1284 9.55095 34.2293 9.50556C34.2945 9.4759 34.3596 9.44624 34.4268 9.41568C34.6087 9.33313 34.7909 9.25142 34.9731 9.16987C35.0464 9.13651 35.1196 9.10315 35.1951 9.06878C35.4128 8.98182 35.631 8.91404 35.856 8.8489C35.9983 8.8073 36.139 8.76251 36.2799 8.71639C38.9894 7.85595 42.1058 7.84631 44.8608 8.49848Z" fill="#112A45"/>
<path d="M223.92 0.353563C224.119 0.392178 224.318 0.420961 224.518 0.449467C224.781 0.488567 225.026 0.549403 225.281 0.624943C225.39 0.644874 225.499 0.663865 225.609 0.682164C225.869 0.727356 226.11 0.79116 226.357 0.882435C226.523 0.937282 226.691 0.977946 226.861 1.0195C227.696 1.2316 228.497 1.54835 229.289 1.88284C229.446 1.94828 229.603 2.01233 229.76 2.07548C229.807 2.09426 229.853 2.11303 229.901 2.13237C229.993 2.16935 230.085 2.20606 230.177 2.24246C230.401 2.33329 230.585 2.42447 230.774 2.57807C230.874 2.62212 230.974 2.66592 231.076 2.70729C231.327 2.81492 231.568 2.94283 231.812 3.06635C231.885 3.10328 231.959 3.14017 232.033 3.17698C232.081 3.20089 232.128 3.22481 232.178 3.24945C232.178 3.28974 232.178 3.33002 232.178 3.37153C232.23 3.38679 232.282 3.40205 232.336 3.41778C232.56 3.49933 232.743 3.60381 232.944 3.73011C233.011 3.77149 233.078 3.81288 233.147 3.85551C233.321 3.9709 233.48 4.09519 233.643 4.22602C233.749 4.28592 233.855 4.3458 233.962 4.40459C234.073 4.4718 234.166 4.54607 234.264 4.63037C234.403 4.74785 234.515 4.82732 234.68 4.8974C234.68 4.93769 234.68 4.97797 234.68 5.01947C234.72 5.03206 234.761 5.04465 234.802 5.05762C235.069 5.17988 235.4 5.35996 235.535 5.62983C235.588 5.65437 235.588 5.65437 235.641 5.67942C235.824 5.77559 235.939 5.91034 236.084 6.05707C236.197 6.16197 236.31 6.26621 236.423 6.36988C236.455 6.39901 236.487 6.42815 236.52 6.45817C236.677 6.60223 236.835 6.74525 236.995 6.88701C237.652 7.47586 238.297 8.10955 238.812 8.82797C238.897 8.9426 238.897 8.9426 239.075 9.04779C239.095 9.10822 239.115 9.16864 239.136 9.2309C239.181 9.27622 239.226 9.32154 239.273 9.36823C239.461 9.55604 239.6 9.74184 239.746 9.96332C239.746 10.0036 239.746 10.0439 239.746 10.0854C239.786 10.0854 239.827 10.0854 239.868 10.0854C239.927 10.1688 239.984 10.2527 240.039 10.3388C240.12 10.4637 240.209 10.5811 240.299 10.6996C240.433 10.876 240.55 11.0539 240.662 11.2451C240.719 11.3291 240.776 11.413 240.833 11.4968C241.007 11.7551 241.157 12.0219 241.303 12.2965C241.45 12.57 241.606 12.8382 241.762 13.1066C241.804 13.1778 241.845 13.249 241.886 13.3203C241.907 13.3555 241.927 13.3908 241.949 13.4271C242.089 13.6709 242.203 13.9151 242.31 14.1747C242.349 14.2639 242.388 14.3529 242.428 14.4418C242.449 14.4888 242.47 14.5359 242.491 14.5844C242.53 14.6712 242.569 14.758 242.609 14.8447C243.186 16.122 243.663 17.4298 243.985 18.7953C244.008 18.8908 244.031 18.9863 244.054 19.0816C244.443 20.6929 244.678 22.3433 244.69 24.0014C244.691 24.0694 244.692 24.1374 244.692 24.2074C244.698 24.7085 244.696 25.2093 244.69 25.7104C244.689 25.7726 244.689 25.8349 244.689 25.899C244.68 26.7363 244.598 27.5561 244.484 28.3845C244.478 28.4314 244.471 28.4782 244.465 28.5265C244.388 29.0824 244.285 29.6232 244.141 30.166C244.11 30.3044 244.081 30.4429 244.053 30.5818C243.779 31.8699 243.339 33.0926 242.859 34.3163C242.837 34.3718 242.816 34.4273 242.793 34.4844C242.772 34.5388 242.75 34.5933 242.728 34.6494C242.709 34.6987 242.689 34.7479 242.669 34.7986C242.604 34.9526 242.52 35.0899 242.432 35.2319C242.388 35.3329 242.345 35.434 242.302 35.5356C242.193 35.7853 242.067 36.0266 241.943 36.2695C241.915 36.3263 241.887 36.3831 241.859 36.4416C241.557 37.0355 241.227 37.6158 240.845 38.1616C240.648 38.4536 240.459 38.7499 240.27 39.0473C240.198 39.1598 240.125 39.2713 240.051 39.3823C240.011 39.3823 239.971 39.3823 239.929 39.3823C239.915 39.424 239.902 39.4658 239.887 39.5089C239.787 39.7329 239.652 39.9105 239.502 40.1032C239.474 40.1397 239.447 40.1762 239.419 40.2138C239.348 40.3053 239.273 40.3934 239.197 40.4809C239.156 40.4809 239.116 40.4809 239.075 40.4809C239.034 40.5816 238.994 40.6823 238.953 40.7861C238.912 40.7861 238.872 40.7861 238.831 40.7861C238.827 40.8201 238.823 40.8541 238.819 40.8891C238.748 41.0918 238.621 41.1889 238.464 41.3354C238.244 41.5493 238.031 41.7662 237.831 41.9991C237.485 42.3997 237.108 42.7672 236.706 43.1111C236.48 43.3082 236.262 43.5145 236.042 43.7193C235.901 43.8378 235.901 43.8378 235.779 43.8378C235.759 43.8983 235.739 43.9587 235.718 44.0209C235.592 44.0629 235.592 44.0629 235.474 44.082C235.474 44.1223 235.474 44.1625 235.474 44.204C235.368 44.2923 235.258 44.3755 235.146 44.4558C235.085 44.5 235.024 44.5442 234.961 44.5898C234.802 44.6923 234.802 44.6923 234.68 44.6923C234.66 44.7527 234.64 44.8132 234.619 44.8754C234.473 44.9803 234.473 44.9803 234.291 45.0891C234.091 45.2092 233.928 45.3212 233.765 45.4858C233.677 45.538 233.588 45.5875 233.498 45.6346C233.339 45.7202 233.204 45.7998 233.063 45.913C232.808 46.1169 232.511 46.3403 232.178 46.3403C232.178 46.3806 232.178 46.4208 232.178 46.4623C231.939 46.5816 231.701 46.7008 231.462 46.82C231.425 46.8387 231.388 46.8575 231.349 46.8768C231.268 46.9173 231.187 46.9578 231.106 46.9982C230.888 47.1069 230.671 47.216 230.454 47.3264C230.391 47.3585 230.391 47.3585 230.326 47.3913C230.246 47.4316 230.167 47.472 230.088 47.5128C229.517 47.8009 228.911 48.0103 228.313 48.2324C228.21 48.2713 228.21 48.2713 228.104 48.311C227.397 48.5736 226.685 48.7894 225.952 48.9648C225.891 48.9798 225.83 48.9948 225.767 49.0103C224.922 49.2169 224.083 49.3902 223.22 49.4965C223.099 49.5122 222.978 49.5308 222.857 49.5499C221.567 49.7502 220.234 49.715 218.933 49.6972C218.867 49.6964 218.8 49.6957 218.732 49.6949C217.779 49.6809 216.862 49.5809 215.924 49.4194C215.722 49.3858 215.52 49.36 215.317 49.3348C214.724 49.2517 214.143 49.1055 213.562 48.9648C213.518 48.9542 213.475 48.9437 213.43 48.9328C212.099 48.6052 210.783 48.1232 209.534 47.561C209.497 47.5443 209.459 47.5276 209.421 47.5105C208.938 47.2921 208.467 47.0579 208.002 46.8028C207.783 46.6835 207.56 46.5721 207.336 46.4623C207.336 46.4221 207.336 46.3818 207.336 46.3403C207.291 46.3336 207.246 46.3269 207.2 46.32C207.022 46.2771 206.92 46.2199 206.772 46.1152C206.725 46.0825 206.677 46.0497 206.629 46.016C206.58 45.982 206.532 45.948 206.482 45.913C206.385 45.8479 206.289 45.783 206.192 45.7185C206.15 45.6899 206.107 45.6614 206.063 45.6319C205.971 45.572 205.878 45.5142 205.783 45.4581C205.622 45.3604 205.469 45.2553 205.315 45.1463C205.155 45.0338 204.996 44.9225 204.834 44.8144C204.834 44.7741 204.834 44.7338 204.834 44.6923C204.792 44.6785 204.75 44.6646 204.707 44.6504C204.483 44.5499 204.306 44.4155 204.113 44.2651C204.077 44.2375 204.04 44.21 204.002 44.1816C203.911 44.1109 203.823 44.0357 203.735 43.9599C203.735 43.9196 203.735 43.8793 203.735 43.8378C203.701 43.8227 203.667 43.8076 203.632 43.7921C203.465 43.7018 203.328 43.5977 203.186 43.4716C203.186 43.4313 203.186 43.3911 203.186 43.3496C203.143 43.3382 203.1 43.3269 203.056 43.3152C202.85 43.2121 202.759 43.0946 202.616 42.9178C202.509 42.7941 202.396 42.6921 202.271 42.5866C202.075 42.4211 201.914 42.247 201.753 42.0492C201.623 41.9038 201.474 41.7869 201.319 41.6685C201.233 41.5795 201.233 41.5795 201.202 41.4505C201.192 41.4125 201.182 41.3745 201.172 41.3354C201.111 41.3152 201.051 41.2951 200.989 41.2744C200.684 40.9408 200.684 40.9408 200.684 40.7861C200.623 40.7659 200.563 40.7458 200.5 40.725C200.459 40.5992 200.459 40.5992 200.439 40.4809C200.399 40.4809 200.359 40.4809 200.317 40.4809C200.217 40.3635 200.124 40.2461 200.031 40.1223C200.004 40.0864 199.977 40.0505 199.949 40.0135C199.749 39.7481 199.557 39.4778 199.369 39.2042C199.297 39.1019 199.221 39.003 199.142 38.9054C199.03 38.7654 198.942 38.6221 198.853 38.4667C198.816 38.4176 198.78 38.3685 198.742 38.318C198.669 38.1616 198.669 38.1616 198.689 37.9861C198.813 37.7563 198.963 37.6282 199.165 37.4666C199.294 37.3651 199.294 37.3651 199.402 37.185C199.585 37.246 199.585 37.246 199.652 37.3486C199.674 37.3928 199.696 37.437 199.718 37.4825C199.872 37.7738 200.055 38.0321 200.251 38.296C200.332 38.4038 200.411 38.5125 200.488 38.6222C200.778 39.0309 201.091 39.4163 201.411 39.8008C201.6 40.0277 201.785 40.2559 201.962 40.4923C202.113 40.6899 202.276 40.8424 202.469 40.998C202.588 41.1022 202.687 41.2146 202.789 41.3354C202.956 41.5314 203.131 41.693 203.329 41.8556C203.429 41.9444 203.505 42.0352 203.587 42.1403C203.795 42.3925 204.051 42.582 204.31 42.7797C204.565 42.976 204.812 43.1801 205.055 43.3915C205.458 43.7386 205.886 44.0409 206.35 44.3013C206.394 44.3296 206.437 44.358 206.482 44.3871C206.482 44.4274 206.482 44.4677 206.482 44.5092C206.546 44.5322 206.546 44.5322 206.61 44.5557C206.811 44.6416 206.987 44.748 207.172 44.864C207.208 44.8859 207.243 44.9078 207.279 44.9304C207.424 45.0204 207.568 45.1114 207.711 45.2044C208.06 45.431 208.431 45.6105 208.804 45.7932C208.927 45.8536 209.048 45.9152 209.17 45.9772C209.599 46.1955 210.027 46.402 210.477 46.578C210.632 46.6454 210.632 46.6454 210.785 46.7377C211.166 46.9651 211.614 47.0773 212.038 47.2002C212.228 47.2585 212.416 47.3223 212.604 47.3867C213.162 47.5771 213.72 47.7361 214.294 47.8662C214.371 47.884 214.371 47.884 214.448 47.9021C215.527 48.1528 216.612 48.2951 217.712 48.4155C217.766 48.4219 217.819 48.4284 217.873 48.4351C218.478 48.5018 219.089 48.4913 219.696 48.4918C219.757 48.4918 219.818 48.4919 219.881 48.492C220.8 48.4917 221.696 48.4539 222.606 48.3187C222.775 48.2939 222.944 48.2721 223.113 48.2512C224.562 48.0669 225.976 47.7105 227.356 47.2361C227.491 47.1904 227.626 47.1465 227.762 47.1027C227.811 47.087 227.859 47.0712 227.909 47.0549C228.003 47.0246 228.096 46.9945 228.19 46.9647C228.456 46.8777 228.7 46.7724 228.948 46.6436C229.123 46.5548 229.304 46.4806 229.485 46.4051C230.956 45.7813 232.467 44.9366 233.707 43.926C233.826 43.8378 233.826 43.8378 233.952 43.7763C234.081 43.7102 234.153 43.6371 234.253 43.5327C234.344 43.4579 234.435 43.3842 234.528 43.3114C234.866 43.0426 235.201 42.77 235.535 42.4951C235.575 42.4624 235.615 42.4298 235.657 42.3961C235.892 42.2024 236.086 41.9907 236.282 41.7588C236.383 41.6471 236.487 41.5529 236.603 41.4575C236.803 41.2924 236.969 41.1086 237.135 40.9098C237.216 40.8173 237.302 40.7286 237.389 40.6421C237.56 40.4699 237.717 40.2891 237.873 40.1032C237.902 40.0687 237.931 40.0343 237.961 39.9987C238.45 39.4518 238.45 39.4518 238.831 38.8329C238.871 38.8329 238.911 38.8329 238.953 38.8329C238.969 38.7876 238.985 38.7423 239.002 38.6956C239.072 38.5344 239.141 38.4145 239.258 38.2836C239.298 38.2836 239.338 38.2836 239.38 38.2836C239.389 38.2318 239.389 38.2318 239.398 38.179C239.45 38.0104 239.53 37.9022 239.635 37.761C239.866 37.4408 240.05 37.1059 240.234 36.7578C240.28 36.6774 240.325 36.5973 240.372 36.5174C240.453 36.3753 240.53 36.2339 240.601 36.0864C240.641 36.0864 240.681 36.0864 240.723 36.0864C240.728 36.0458 240.733 36.0053 240.739 35.9636C240.798 35.7241 240.903 35.5225 241.016 35.3044C241.037 35.2632 241.058 35.2221 241.08 35.1798C241.165 35.0136 241.25 34.8475 241.336 34.682C241.48 34.4012 241.597 34.1175 241.703 33.8204C241.808 33.5273 241.925 33.2522 242.065 32.9736C242.095 32.888 242.122 32.8015 242.146 32.7142C242.216 32.4659 242.296 32.222 242.38 31.9778C242.555 31.4657 242.706 30.954 242.827 30.4262C242.85 30.3282 242.873 30.2303 242.896 30.1324C243.093 29.3014 243.235 28.4738 243.325 27.6244C243.342 27.471 243.36 27.318 243.379 27.1649C243.47 26.4031 243.491 25.6494 243.488 24.8826C243.488 24.7904 243.488 24.7904 243.488 24.6964C243.486 23.7979 243.451 22.9205 243.312 22.0313C243.286 21.8632 243.263 21.6949 243.242 21.5261C243.052 20.0692 242.713 18.6401 242.206 17.2604C242.145 17.0934 242.088 16.9269 242.035 16.7573C241.91 16.3746 241.738 16.0082 241.577 15.6396C241.532 15.5322 241.532 15.5322 241.486 15.4226C241.4 15.2265 241.308 15.0366 241.211 14.8461C241.114 14.6565 241.023 14.4682 240.94 14.272C240.839 14.0392 240.725 13.8179 240.604 13.5949C240.584 13.5568 240.564 13.5186 240.543 13.4793C240.438 13.2848 240.331 13.0929 240.219 12.9025C240.112 12.7099 240.112 12.7099 240.112 12.5878C240.072 12.5878 240.032 12.5878 239.99 12.5878C239.952 12.5085 239.952 12.5085 239.914 12.4276C239.81 12.2183 239.81 12.2183 239.674 12.0233C239.563 11.8554 239.563 11.8554 239.563 11.7333C239.523 11.7333 239.482 11.7333 239.441 11.7333C239.367 11.6281 239.298 11.5193 239.231 11.4091C239.11 11.2085 238.996 11.0433 238.831 10.8788C238.81 10.8184 238.79 10.758 238.77 10.6957C238.69 10.6128 238.608 10.5316 238.525 10.4516C238.447 10.3588 238.371 10.2647 238.297 10.1693C238.259 10.122 238.222 10.0746 238.183 10.0258C238.098 9.90229 238.098 9.90229 238.098 9.78022C238.058 9.78022 238.018 9.78022 237.976 9.78022C237.89 9.6777 237.89 9.6777 237.797 9.54371C237.677 9.37281 237.604 9.28823 237.427 9.16986C237.427 9.10944 237.427 9.04902 237.427 8.98676C237.376 8.96599 237.376 8.96599 237.324 8.9448C237.142 8.84177 237.017 8.71413 236.877 8.55951C236.877 8.51923 236.877 8.47895 236.877 8.43744C236.826 8.41667 236.826 8.41667 236.774 8.39548C236.593 8.29245 236.467 8.16481 236.328 8.0102C236.328 7.96991 236.328 7.92963 236.328 7.88813C236.27 7.86358 236.27 7.86358 236.21 7.83854C236.084 7.76606 236.084 7.76606 236.023 7.58295C235.901 7.50917 235.901 7.50917 235.779 7.46088C235.779 7.4206 235.779 7.38031 235.779 7.33881C235.735 7.32496 235.691 7.31112 235.645 7.29685C235.477 7.21849 235.389 7.1345 235.263 7.00367C235.071 6.81623 234.861 6.65018 234.653 6.4805C234.608 6.44317 234.563 6.40584 234.517 6.36737C234.274 6.16765 234.029 5.9833 233.765 5.81293C233.605 5.70144 233.446 5.58903 233.287 5.47652C233.159 5.3848 233.159 5.3848 233.032 5.32465C233.032 5.28437 233.032 5.24408 233.032 5.20258C232.991 5.18747 232.949 5.17237 232.906 5.1568C232.692 5.0657 232.501 4.95385 232.3 4.83637C232.26 4.81623 232.219 4.79609 232.178 4.77533C232.178 4.73505 232.178 4.69477 232.178 4.65326C232.13 4.64067 232.082 4.62809 232.033 4.61512C231.85 4.54579 231.713 4.4762 231.548 4.37479C230.74 3.87949 229.896 3.48664 229.021 3.12426C228.905 3.0758 228.788 3.02648 228.672 2.97694C227.743 2.58178 226.799 2.2437 225.815 2.01111C225.647 1.96772 225.647 1.96772 225.469 1.90668C224.852 1.70636 224.176 1.6397 223.537 1.53666C223.476 1.52675 223.415 1.51685 223.352 1.50664C223.161 1.47628 222.97 1.44724 222.778 1.4184C222.711 1.40795 222.643 1.39751 222.573 1.38674C222.023 1.30707 221.486 1.27603 220.929 1.27368C220.842 1.27302 220.755 1.27234 220.668 1.27165C220.391 1.26981 220.114 1.26963 219.837 1.26963C219.767 1.26953 219.767 1.26953 219.695 1.26943C218.057 1.2673 216.474 1.33175 214.88 1.74415C214.69 1.79285 214.498 1.83339 214.306 1.87235C213.46 2.05012 213.46 2.05012 212.646 2.33393C212.676 2.60142 212.726 2.85845 212.791 3.11976C212.806 3.1775 212.82 3.23525 212.835 3.29475C212.853 3.34023 212.872 3.38571 212.891 3.43256C212.951 3.4527 213.011 3.47284 213.074 3.4936C213.183 3.65167 213.183 3.65167 213.303 3.85599C213.346 3.92927 213.39 4.00247 213.434 4.07557C213.455 4.11178 213.477 4.14798 213.499 4.18528C213.584 4.32232 213.675 4.45357 213.768 4.5846C213.954 4.84619 214.137 5.10909 214.317 5.37424C214.358 5.43235 214.358 5.43235 214.399 5.49163C214.538 5.69691 214.644 5.86769 214.661 6.11811C214.62 6.19949 214.579 6.28087 214.539 6.36225C214.565 6.61659 214.661 6.79116 214.794 7.00693C214.984 7.32209 215.151 7.64223 215.31 7.97396C215.388 8.12226 215.475 8.24371 215.576 8.37641C215.633 8.47461 215.687 8.5739 215.74 8.67395C215.886 8.94591 216.037 9.21496 216.19 9.48267C216.232 9.55507 216.273 9.62747 216.315 9.69987C216.386 9.82421 216.457 9.94839 216.53 10.0723C216.557 10.1207 216.585 10.1691 216.614 10.2189C216.638 10.2601 216.662 10.3012 216.686 10.3436C216.736 10.4516 216.736 10.4516 216.736 10.6347C216.776 10.6347 216.816 10.6347 216.858 10.6347C217.036 10.9266 217.06 11.0959 216.98 11.4282C216.957 11.471 216.935 11.5138 216.911 11.5579C216.836 11.7191 216.873 11.8074 216.919 11.9775C216.991 12.12 216.991 12.12 217.083 12.2598C217.217 12.4754 217.344 12.6922 217.464 12.9159C217.593 13.1544 217.727 13.3886 217.865 13.6216C218.01 13.8679 218.143 14.1165 218.269 14.3731C218.39 14.6198 218.519 14.8528 218.668 15.0836C218.961 15.5439 219.218 16.0194 219.458 16.5091C219.555 16.699 219.663 16.8773 219.779 17.0563C219.976 17.364 220.147 17.6895 220.324 18.0092C220.428 18.1968 220.535 18.3834 220.642 18.5693C220.675 18.6261 220.708 18.6829 220.742 18.7414C220.927 19.0618 221.114 19.3789 221.323 19.6851C221.375 19.79 221.375 19.79 221.375 20.0341C221.415 20.0341 221.455 20.0341 221.497 20.0341C221.72 20.4365 221.72 20.4365 221.944 20.8388C221.971 20.8872 221.997 20.9357 222.025 20.9856C222.08 21.0841 222.135 21.1828 222.189 21.2815C222.319 21.516 222.45 21.7482 222.591 21.9758C222.766 22.2629 222.914 22.5594 223.059 22.8622C223.138 23.0124 223.225 23.1348 223.328 23.269C223.387 23.371 223.444 23.4741 223.499 23.578C223.531 23.6371 223.563 23.6963 223.596 23.7573C223.628 23.8177 223.661 23.8781 223.694 23.9404C223.871 24.2698 224.049 24.5971 224.243 24.9169C224.437 25.2367 224.615 25.5642 224.792 25.8935C225.049 26.3682 225.312 26.8395 225.577 27.3097C225.598 27.3481 225.62 27.3864 225.642 27.4259C225.687 27.5049 225.733 27.5835 225.779 27.6617C225.952 27.9563 225.952 27.9563 225.952 28.0908C225.992 28.0908 226.033 28.0908 226.074 28.0908C226.091 28.1352 226.108 28.1797 226.125 28.2255C226.193 28.3888 226.271 28.5313 226.364 28.682C226.396 28.7348 226.428 28.7876 226.462 28.842C226.512 28.9233 226.512 28.9233 226.562 29.0063C226.758 29.3273 226.944 29.6466 227.112 29.9829C227.169 30.0772 227.226 30.1713 227.283 30.2651C227.46 30.5551 227.611 30.8537 227.761 31.158C227.889 31.4159 228.033 31.6616 228.183 31.9078C228.232 31.9897 228.232 31.9897 228.283 32.0733C228.314 32.124 228.345 32.1746 228.377 32.2268C228.455 32.3632 228.455 32.3632 228.516 32.5463C228.284 32.7428 228.048 32.8891 227.783 33.0346C227.692 32.9507 227.692 32.9507 227.6 32.8515C227.6 32.8112 227.6 32.7709 227.6 32.7294C227.56 32.7294 227.52 32.7294 227.478 32.7294C227.472 32.6904 227.465 32.6514 227.459 32.6112C227.445 32.5696 227.431 32.5281 227.417 32.4853C227.357 32.4652 227.296 32.445 227.234 32.4243C227.214 32.3638 227.194 32.3034 227.173 32.2412C227.103 32.1712 227.033 32.1014 226.961 32.0328C226.731 31.795 226.495 31.5324 226.378 31.2207C226.358 31.1748 226.339 31.1288 226.318 31.0815C226.258 31.0613 226.198 31.0412 226.135 31.0204C226.025 30.8886 226.025 30.8886 225.899 30.7115C225.672 30.399 225.434 30.0979 225.189 29.7997C224.912 29.4619 224.645 29.119 224.385 28.7679C224.212 28.5378 224.034 28.3121 223.854 28.0869C223.823 28.0476 223.792 28.0083 223.759 27.9678C223.73 27.9309 223.7 27.894 223.67 27.8559C223.63 27.8068 223.63 27.8068 223.59 27.7567C223.511 27.6605 223.511 27.6605 223.413 27.5714C223.328 27.4804 223.328 27.4804 223.267 27.2973C223.206 27.257 223.146 27.2167 223.083 27.1752C223.063 27.1148 223.043 27.0544 223.022 26.9921C222.952 26.9222 222.882 26.8524 222.811 26.7838C222.581 26.546 222.345 26.2834 222.228 25.9717C222.208 25.9257 222.188 25.8798 222.168 25.8325C222.108 25.8123 222.047 25.7922 221.985 25.7714C221.985 25.711 221.985 25.6506 221.985 25.5883C221.924 25.5682 221.864 25.548 221.802 25.5273C221.692 25.3954 221.692 25.3954 221.565 25.2183C221.339 24.9074 221.103 24.6074 220.86 24.3104C220.445 23.8039 220.044 23.289 219.655 22.7628C219.622 22.7183 219.588 22.6738 219.554 22.6279C219.49 22.5407 219.426 22.4534 219.362 22.3659C219.332 22.3263 219.303 22.2867 219.273 22.2459C219.247 22.2107 219.221 22.1755 219.195 22.1392C219.109 22.0316 219.109 22.0316 218.933 21.9262C218.872 21.8247 218.811 21.7229 218.75 21.621C218.611 21.4457 218.461 21.279 218.314 21.1108C218.18 20.956 218.083 20.8408 218.018 20.6445C217.957 20.6042 217.897 20.5639 217.834 20.5224C217.834 20.462 217.834 20.4016 217.834 20.3393C217.774 20.3192 217.714 20.299 217.651 20.2783C217.559 20.1672 217.472 20.0521 217.388 19.9349C217.228 19.7146 217.067 19.5001 216.885 19.2979C216.736 19.1186 216.736 19.1186 216.736 18.9355C216.7 18.9212 216.664 18.9069 216.627 18.8921C216.459 18.7945 216.391 18.6916 216.282 18.5311C216.071 18.2308 215.847 17.945 215.614 17.6614C215.316 17.2974 215.025 16.929 214.74 16.5544C214.564 16.3254 214.381 16.1018 214.197 15.8792C214.111 15.7617 214.111 15.7617 214.111 15.6396C214.051 15.6194 213.99 15.5993 213.928 15.5786C213.908 15.5181 213.888 15.4577 213.867 15.3955C213.807 15.3552 213.746 15.3149 213.684 15.2734C213.684 15.213 213.684 15.1525 213.684 15.0903C213.624 15.0701 213.563 15.05 213.501 15.0292C213.429 14.9176 213.359 14.8041 213.291 14.6897C213.114 14.4249 213.114 14.4249 212.826 14.3221C212.632 14.3279 212.632 14.3279 212.447 14.3581C212.28 14.3579 212.28 14.3579 212.136 14.2489C212.036 14.1137 212.036 14.1137 212.036 13.9306C212.001 13.9161 211.965 13.9017 211.928 13.8867C211.763 13.7919 211.678 13.6853 211.563 13.5339C211.526 13.4854 211.488 13.4369 211.45 13.387C211.365 13.2592 211.365 13.2592 211.365 13.1371C211.304 13.117 211.244 13.0969 211.182 13.0761C211.161 12.9947 211.141 12.9134 211.121 12.832C211.06 12.8118 211 12.7917 210.938 12.7709C210.938 12.7105 210.938 12.6501 210.938 12.5878C210.885 12.5681 210.885 12.5681 210.831 12.548C210.647 12.4383 210.562 12.3022 210.442 12.1263C210.295 11.8928 210.295 11.8928 210.083 11.7333C210.063 11.6729 210.043 11.6125 210.022 11.5502C209.98 11.5087 209.939 11.4672 209.896 11.4244C209.857 11.3853 209.818 11.3463 209.778 11.3061C209.778 11.2658 209.778 11.2255 209.778 11.184C209.717 11.1639 209.657 11.1437 209.595 11.123C209.483 10.9941 209.38 10.866 209.278 10.7301C209.236 10.6753 209.236 10.6753 209.192 10.6193C208.984 10.3457 208.984 10.3457 208.984 10.2075C208.91 10.2226 208.836 10.2377 208.759 10.2532C208.558 10.2778 208.509 10.2758 208.324 10.1731C208.159 9.98877 208.008 9.79252 208.008 9.53608C207.968 9.53608 207.927 9.53608 207.886 9.53608C207.863 9.48698 207.84 9.43789 207.817 9.3873C207.708 9.16838 207.573 8.97051 207.434 8.76956C207.264 8.5101 207.117 8.23748 206.966 7.9668C206.945 7.9299 206.925 7.893 206.903 7.85499C206.861 7.77915 206.818 7.70317 206.776 7.62706C206.667 7.41627 206.667 7.41627 206.482 7.27777C206.482 7.23749 206.482 7.19721 206.482 7.1557C206.414 7.13068 206.414 7.13068 206.346 7.10516C206.187 7.03788 206.059 6.96332 205.917 6.86579C205.871 6.83384 205.824 6.8019 205.775 6.76899C205.727 6.73547 205.678 6.70196 205.627 6.66742C205.525 6.59861 205.422 6.52994 205.318 6.46143C205.238 6.40802 205.158 6.35462 205.078 6.30121C205.021 6.35054 204.963 6.39987 204.904 6.4507C204.827 6.51659 204.751 6.58247 204.674 6.64835C204.636 6.68073 204.598 6.7131 204.56 6.74646C204.484 6.81102 204.409 6.87547 204.333 6.93979C204.261 7.00141 204.19 7.06341 204.118 7.12581C203.871 7.33881 203.871 7.33881 203.735 7.33881C203.712 7.39239 203.712 7.39239 203.689 7.44705C203.603 7.60098 203.51 7.68981 203.377 7.8042C203.335 7.84024 203.294 7.87627 203.251 7.9134C203.132 8.00494 203.015 8.06529 202.881 8.13227C202.817 8.24517 202.817 8.24517 202.759 8.37641C202.593 8.59889 202.413 8.79886 202.209 8.98676C202.169 8.98676 202.129 8.98676 202.087 8.98676C202.072 9.02075 202.057 9.05474 202.042 9.08976C201.951 9.25679 201.847 9.39426 201.721 9.53608C201.681 9.53608 201.641 9.53608 201.599 9.53608C201.595 9.57006 201.592 9.60405 201.588 9.63907C201.532 9.79797 201.451 9.87309 201.33 9.98669C201.031 10.2901 200.778 10.6347 200.562 11.0009C200.489 11.1071 200.415 11.2126 200.34 11.3175C200.196 11.5188 200.196 11.5188 200.073 11.7333C200.033 11.7333 199.993 11.7333 199.951 11.7333C199.934 11.7787 199.916 11.824 199.898 11.8707C199.84 12.0121 199.777 12.1471 199.707 12.2827C199.667 12.2827 199.626 12.2827 199.585 12.2827C199.565 12.3834 199.545 12.4841 199.524 12.5878C199.333 12.5051 199.223 12.4173 199.093 12.256C199.003 12.1459 198.916 12.0411 198.815 11.942C198.687 11.8109 198.669 11.7333 198.669 11.5502C198.737 11.4323 198.814 11.3294 198.9 11.2236C198.987 11.117 198.987 11.117 199.036 10.9399C199.076 10.9399 199.116 10.9399 199.158 10.9399C199.173 10.8958 199.188 10.8518 199.203 10.8064C199.287 10.6189 199.394 10.4876 199.524 10.3295C199.567 10.2495 199.609 10.1685 199.646 10.0854C199.686 10.0854 199.727 10.0854 199.768 10.0854C199.783 10.0417 199.798 9.99806 199.813 9.95307C199.9 9.75738 200.008 9.6198 200.146 9.45597C200.195 9.39712 200.244 9.33826 200.295 9.27763C200.484 9.05686 200.673 8.83722 200.867 8.62055C200.924 8.55552 200.924 8.55552 200.983 8.48918C201.277 8.1593 201.577 7.83429 201.878 7.51047C201.915 7.46987 201.952 7.42928 201.991 7.38745C202.22 7.14176 202.459 6.91536 202.715 6.69761C202.83 6.60029 202.83 6.60029 202.965 6.45761C203.064 6.36225 203.064 6.36225 203.186 6.36225C203.186 6.32196 203.186 6.28168 203.186 6.24018C203.286 6.15458 203.286 6.15458 203.419 6.06089C203.547 5.96933 203.664 5.88425 203.774 5.77073C203.857 5.69086 203.857 5.69086 203.979 5.69086C204.01 5.60022 204.01 5.60022 204.041 5.50776C204.189 5.38306 204.189 5.38306 204.372 5.25217C204.433 5.2085 204.493 5.16484 204.555 5.11985C204.712 5.01947 204.712 5.01947 204.834 5.01947C204.864 4.92884 204.864 4.92884 204.895 4.83637C204.995 4.77268 205.097 4.71236 205.2 4.65326C205.282 4.59311 205.364 4.532 205.444 4.47016C205.622 4.33511 205.801 4.21681 205.994 4.10395C206.078 4.04693 206.162 3.98969 206.245 3.93229C207.082 3.37152 207.082 3.37153 207.336 3.37153C207.336 3.33124 207.336 3.29096 207.336 3.24945C208.557 2.6391 208.557 2.6391 208.679 2.57844C208.762 2.53673 208.845 2.49479 208.928 2.45265C209.163 2.3341 209.397 2.22345 209.641 2.12412C209.735 2.08541 209.735 2.08541 209.831 2.04592C209.926 2.00721 209.926 2.00721 210.022 1.96772C210.08 1.94317 210.138 1.91862 210.197 1.89333C211.179 1.47705 212.187 1.09166 213.226 0.845719C213.386 0.808731 213.386 0.808731 213.566 0.743199C213.786 0.672874 214.007 0.635898 214.235 0.59824C214.373 0.572077 214.511 0.539782 214.647 0.50478C214.918 0.435778 215.19 0.391749 215.466 0.350285C215.512 0.343125 215.558 0.335966 215.606 0.328589C215.705 0.313433 215.803 0.298492 215.902 0.283736C216.016 0.266164 216.13 0.247575 216.244 0.228245C216.775 0.14026 217.305 0.0974527 217.842 0.0679975C217.887 0.0654527 217.932 0.062908 217.979 0.0602861C219.957 -0.0494432 221.972 -0.0404067 223.92 0.353563Z" fill="#046EB4"/>
<path d="M0 8.13232C7.5531 8.13232 15.1062 8.13232 22.8882 8.13232C22.8882 9.82422 22.8882 11.5161 22.8882 13.2593C20.1288 13.2593 17.3694 13.2593 14.5264 13.2593C14.5264 20.3894 14.5264 27.5195 14.5264 34.8657C12.5122 34.8657 10.498 34.8657 8.42285 34.8657C8.42285 27.7356 8.42285 20.6055 8.42285 13.2593C5.64331 13.2593 2.86377 13.2593 0 13.2593C0 11.5674 0 9.87549 0 8.13232Z" fill="#122A45"/>
<path d="M59.021 8.13232C61.0352 8.13232 63.0493 8.13232 65.1245 8.13232C65.1245 15.2625 65.1245 22.3926 65.1245 29.7388C69.4751 29.7388 73.8257 29.7388 78.3081 29.7388C78.3081 31.4307 78.3081 33.1226 78.3081 34.8657C71.9232 34.8657 65.5383 34.8657 58.96 34.8657C58.9575 28.1747 58.9575 28.1747 58.957 25.3875C58.9569 24.7495 58.9567 24.1114 58.9566 23.4734C58.9566 23.3934 58.9566 23.3135 58.9566 23.2311C58.9563 21.9381 58.9558 20.6452 58.9553 19.3523C58.9547 18.0265 58.9543 16.7007 58.9542 15.3748C58.9541 14.556 58.9539 13.7372 58.9534 12.9184C58.9531 12.3577 58.953 11.7971 58.953 11.2364C58.9531 10.9124 58.953 10.5884 58.9527 10.2644C58.9524 9.96832 58.9524 9.67223 58.9526 9.37613C58.9526 9.26852 58.9525 9.16091 58.9523 9.05329C58.9521 8.908 58.9522 8.76271 58.9525 8.61742C58.9523 8.57479 58.9521 8.53216 58.952 8.48824C58.953 8.20033 58.953 8.20033 59.021 8.13232Z" fill="#112A45"/>
<path d="M197.815 14.9683C197.857 14.9754 197.899 14.9826 197.942 14.99C199.386 15.2467 200.727 15.873 201.904 16.7383C201.965 16.7786 202.025 16.8188 202.087 16.8603C202.087 16.9006 202.087 16.9409 202.087 16.9824C202.138 16.9881 202.138 16.9881 202.19 16.9939C202.388 17.0635 202.497 17.199 202.637 17.3486C202.729 17.4417 202.822 17.5345 202.915 17.6271C203.005 17.7174 203.096 17.8077 203.186 17.8979C203.231 17.94 203.275 17.9821 203.321 18.0255C203.43 18.1421 203.43 18.1421 203.491 18.3252C203.572 18.4069 203.654 18.4882 203.735 18.5693C203.807 18.6716 203.875 18.7761 203.941 18.8821C203.997 18.971 203.997 18.971 204.053 19.0617C204.107 19.1503 204.107 19.1503 204.163 19.2407C204.195 19.2929 204.227 19.345 204.261 19.3988C204.601 19.9539 204.874 20.5143 205.078 21.1328C205.103 21.2038 205.127 21.2749 205.153 21.3481C205.992 23.8855 205.869 27.0167 204.712 29.4336C204.672 29.5251 204.633 29.6166 204.594 29.7082C204.468 29.993 204.318 30.2626 204.163 30.5322C204.122 30.5322 204.082 30.5322 204.041 30.5322C204.022 30.6077 204.022 30.6077 204.002 30.6848C203.897 30.9528 203.749 31.1759 203.552 31.3867C203.512 31.3867 203.472 31.3867 203.43 31.3867C203.424 31.4232 203.418 31.4597 203.411 31.4973C203.361 31.6552 203.307 31.7019 203.186 31.814C203.142 31.8693 203.098 31.9247 203.053 31.9818C202.856 32.2187 202.628 32.4104 202.393 32.6074C202.342 32.651 202.292 32.6946 202.24 32.7395C201.363 33.4821 200.307 34.0693 199.219 34.4385C199.159 34.4596 199.099 34.4808 199.037 34.5026C196.649 35.269 193.776 35.1553 191.528 34.0112C191.342 33.9148 191.16 33.8126 190.979 33.706C190.913 33.6674 190.847 33.6288 190.779 33.589C190.708 33.5467 190.638 33.5043 190.567 33.4619C190.502 33.4229 190.437 33.3839 190.37 33.3436C190.182 33.2152 190.038 33.0764 189.88 32.9126C189.721 32.7706 189.56 32.6304 189.399 32.4906C189.27 32.3633 189.27 32.3633 189.209 32.1802C189.169 32.1802 189.128 32.1802 189.087 32.1802C188.865 31.8982 188.644 31.6162 188.416 31.3257C188.395 34.8303 188.375 38.335 188.354 41.9458C187.448 41.9458 186.542 41.9458 185.608 41.9458C185.608 33.0432 185.608 24.1406 185.608 14.9683C186.474 14.9683 187.34 14.9683 188.232 14.9683C188.253 16.1566 188.273 17.345 188.293 18.5693C188.334 18.5089 188.374 18.4485 188.416 18.3862C188.456 18.3862 188.496 18.3862 188.538 18.3862C188.545 18.3499 188.552 18.3136 188.559 18.2761C188.624 18.0567 188.782 17.9029 188.931 17.7339C188.963 17.6961 188.996 17.6582 189.03 17.6192C189.312 17.2993 189.615 17.0128 189.941 16.7383C189.979 16.7049 190.016 16.6716 190.054 16.6372C190.285 16.4331 190.285 16.4331 190.491 16.4331C190.491 16.3928 190.491 16.3525 190.491 16.311C190.903 16.0669 190.903 16.0669 191.04 16.0669C191.04 16.0266 191.04 15.9863 191.04 15.9448C191.234 15.8547 191.429 15.7648 191.623 15.6754C191.743 15.6204 191.862 15.565 191.981 15.5085C193.772 14.6713 195.902 14.6381 197.815 14.9683ZM193.741 17.3982C193.697 17.4076 193.654 17.4169 193.609 17.4265C193.339 17.4909 193.104 17.5877 192.859 17.7182C192.685 17.8095 192.502 17.8816 192.322 17.959C191.613 18.2723 190.951 18.724 190.456 19.3213C190.369 19.4238 190.369 19.4238 190.22 19.5688C189.924 19.872 189.658 20.1811 189.514 20.5835C189.474 20.5835 189.434 20.5835 189.392 20.5835C189.309 20.7457 189.228 20.9084 189.148 21.0718C189.104 21.1615 189.104 21.1615 189.059 21.253C188.146 23.1621 188.004 25.5592 188.686 27.572C188.736 27.7051 188.788 27.8375 188.843 27.9687C188.881 28.0601 188.881 28.0601 188.919 28.1533C188.991 28.3181 189.068 28.4793 189.148 28.6401C189.171 28.6862 189.194 28.7323 189.218 28.7798C189.567 29.441 190.052 30.0947 190.613 30.5933C190.653 30.5933 190.693 30.5933 190.735 30.5933C190.748 30.628 190.762 30.6628 190.775 30.6986C191.075 31.2079 191.81 31.5165 192.322 31.7529C192.383 31.7834 192.443 31.8138 192.506 31.8452C194.099 32.6395 196.098 32.7103 197.791 32.1926C198.111 32.0832 198.422 31.9543 198.73 31.814C198.819 31.7742 198.819 31.7742 198.91 31.7336C199.682 31.3669 200.406 30.854 200.989 30.227C201.009 30.1666 201.029 30.1062 201.05 30.0439C201.12 29.9754 201.191 29.9069 201.262 29.8387C202.561 28.4428 202.955 26.2917 202.904 24.4575C202.845 23.2263 202.571 22.03 201.965 20.9497C201.931 20.8867 201.896 20.8237 201.86 20.7587C201.691 20.4605 201.537 20.2148 201.294 19.9731C201.274 19.9127 201.254 19.8523 201.233 19.79C201.172 19.7497 201.112 19.7095 201.05 19.668C201.03 19.6075 201.01 19.5471 200.989 19.4849C200.898 19.3883 200.898 19.3883 200.783 19.2941C200.739 19.2568 200.694 19.2195 200.649 19.1811C200.6 19.1404 200.551 19.0996 200.5 19.0576C200.448 19.0131 200.396 18.9685 200.342 18.9227C198.493 17.3681 196.089 16.8924 193.741 17.3982Z" fill="#046EB5"/>
<path d="M102.783 8.49856C102.836 8.50801 102.888 8.51746 102.942 8.5272C103.24 8.58353 103.531 8.65579 103.821 8.7427C103.87 8.7574 103.919 8.77211 103.97 8.78726C105.106 9.13429 106.192 9.57842 107.177 10.2471C107.394 10.3929 107.614 10.5217 107.849 10.6348C107.849 10.6751 107.849 10.7154 107.849 10.7569C107.883 10.772 107.916 10.7871 107.951 10.8026C108.121 10.8937 108.263 11.0032 108.414 11.1231C108.468 11.1659 108.523 11.2087 108.579 11.2528C108.641 11.3094 108.641 11.3094 108.704 11.3672C108.704 11.4075 108.704 11.4478 108.704 11.4893C108.784 11.5296 108.865 11.5699 108.948 11.6114C108.948 11.6516 108.948 11.6919 108.948 11.7334C108.987 11.7523 109.026 11.7712 109.066 11.7906C109.192 11.8555 109.192 11.8555 109.253 11.9165C109.276 12.0539 109.276 12.0539 109.253 12.2217C109.125 12.3739 108.983 12.4971 108.832 12.6261C108.592 12.8318 108.378 13.0382 108.177 13.2817C108.056 13.4255 107.923 13.5555 107.788 13.6865C107.757 13.7243 107.725 13.7621 107.693 13.801C107.605 13.8697 107.605 13.8697 107.491 13.8697C107.305 13.7822 107.19 13.6566 107.056 13.5034C107.056 13.4632 107.056 13.4229 107.056 13.3814C107.017 13.3751 106.978 13.3688 106.937 13.3623C106.875 13.3415 106.875 13.3415 106.812 13.3203C106.791 13.2599 106.771 13.1995 106.75 13.1372C106.627 13.0925 106.627 13.0925 106.506 13.0762C106.506 13.0359 106.506 12.9956 106.506 12.9541C106.462 12.9382 106.418 12.9222 106.372 12.9057C106.197 12.8304 106.061 12.7418 105.907 12.6299C105.509 12.3457 105.131 12.1003 104.675 11.9165C104.589 11.8773 104.502 11.8379 104.416 11.7983C104.101 11.6581 103.779 11.5423 103.455 11.4282C103.413 11.4126 103.371 11.3969 103.328 11.3808C100.676 10.4205 97.298 10.6665 94.7547 11.8426C94.6224 11.9077 94.4906 11.9737 94.3589 12.04C94.3147 12.0623 94.2704 12.0846 94.2248 12.1075C94.1357 12.1526 94.0467 12.1979 93.9579 12.2436C93.6412 12.4048 93.6412 12.4048 93.5059 12.4048C93.5059 12.4451 93.5059 12.4854 93.5059 12.5269C93.4052 12.547 93.3044 12.5672 93.2007 12.5879C93.2007 12.6282 93.2007 12.6685 93.2007 12.71C93.1041 12.7827 93.1041 12.7827 92.968 12.8664C92.5524 13.1343 92.1602 13.4404 91.815 13.795C91.6748 13.9307 91.6748 13.9307 91.5527 13.9307C91.5383 13.9644 91.5238 13.998 91.5089 14.0327C91.4116 14.2095 91.2909 14.3454 91.156 14.4953C91.1075 14.5497 91.0591 14.6042 91.0091 14.6603C90.8813 14.7852 90.8813 14.7852 90.7593 14.7852C90.753 14.8207 90.7467 14.8562 90.7402 14.8927C90.6912 15.0522 90.6232 15.1352 90.5151 15.262C90.2071 15.6461 89.9644 16.067 89.7217 16.4942C89.692 16.5463 89.6624 16.5985 89.6318 16.6522C89.401 17.0863 89.2514 17.5523 89.0943 18.0167C89.0512 18.1394 89.0039 18.2597 88.9559 18.3805C88.8508 18.6586 88.7933 18.9418 88.7375 19.2331C88.7272 19.284 88.7169 19.3349 88.7063 19.3874C88.5729 20.0665 88.5506 20.732 88.5507 21.4221C88.5506 21.5702 88.5495 21.7182 88.5483 21.8663C88.5454 22.6518 88.618 23.4126 88.7909 24.1808C88.801 24.2261 88.8112 24.2715 88.8216 24.3182C88.9352 24.7997 89.106 25.254 89.2944 25.7105C89.3151 25.7609 89.3358 25.8113 89.3571 25.8633C89.4468 26.0722 89.5461 26.2755 89.6485 26.4784C89.668 26.5172 89.6876 26.556 89.7077 26.5959C89.747 26.6733 89.7865 26.7506 89.8263 26.8277C89.9658 27.1011 89.9658 27.1011 89.9658 27.2364C90.0061 27.2364 90.0464 27.2364 90.0879 27.2364C90.332 27.6483 90.332 27.6483 90.332 27.7857C90.3723 27.7857 90.4126 27.7857 90.4541 27.7857C90.5167 27.8864 90.5774 27.9884 90.6372 28.0908C90.7344 28.2155 90.8324 28.3368 90.9348 28.4571C90.9639 28.4913 90.993 28.5255 91.023 28.5607C91.8793 29.5621 91.8793 29.5621 92.9565 30.2881C92.9565 30.3284 92.9565 30.3687 92.9565 30.4102C93.0019 30.4278 93.0472 30.4454 93.0939 30.4636C93.2353 30.5215 93.3703 30.584 93.5059 30.6543C93.5059 30.6946 93.5059 30.7349 93.5059 30.7764C93.5596 30.7924 93.6133 30.8085 93.6687 30.825C93.8673 30.8968 94.0192 30.983 94.1963 31.0968C94.6174 31.3495 95.0592 31.497 95.5237 31.65C95.6344 31.6892 95.7422 31.7365 95.8495 31.7842C96.662 32.1199 97.5777 32.2413 98.4497 32.3023C98.5296 32.3079 98.5296 32.3079 98.6112 32.3137C99.3116 32.3603 100.002 32.3758 100.701 32.3134C100.834 32.3019 100.967 32.2928 101.1 32.2837C102.759 32.1553 104.269 31.5945 105.706 30.7804C105.835 30.7154 105.835 30.7154 105.957 30.7154C105.957 30.6751 105.957 30.6348 105.957 30.5933C106.225 30.4102 106.225 30.4102 106.384 30.4102C106.384 27.4897 106.384 24.5691 106.384 21.5601C107.291 21.5601 108.197 21.5601 109.131 21.5601C109.138 22.8679 109.143 24.1757 109.147 25.4835C109.148 26.0907 109.15 26.6979 109.154 27.3052C109.157 27.8344 109.159 28.3636 109.16 28.8928C109.16 29.1731 109.161 29.4533 109.163 29.7335C109.165 29.9973 109.166 30.261 109.165 30.5248C109.165 30.6216 109.166 30.7185 109.167 30.8153C109.169 30.9475 109.168 31.0796 109.168 31.2119C109.168 31.2858 109.168 31.3598 109.168 31.4361C109.12 31.6864 109.022 31.7789 108.826 31.9361C108.785 31.9361 108.745 31.9361 108.704 31.9361C108.704 31.9763 108.704 32.0166 108.704 32.0581C108.587 32.1466 108.467 32.2298 108.345 32.3099C108.278 32.3541 108.212 32.3983 108.143 32.4439C107.971 32.5464 107.971 32.5464 107.849 32.5464C107.849 32.5867 107.849 32.627 107.849 32.6685C107.49 32.9321 107.074 33.1223 106.675 33.3158C106.505 33.3987 106.505 33.3987 106.346 33.4979C106.188 33.5917 106.027 33.6523 105.855 33.7139C105.696 33.7735 105.541 33.8407 105.385 33.9083C104.621 34.2273 103.842 34.4745 103.027 34.6216C102.942 34.6372 102.942 34.6372 102.855 34.6531C102.668 34.6853 102.482 34.7148 102.295 34.7437C102.249 34.7509 102.203 34.7582 102.156 34.7656C101.999 34.7904 101.842 34.8148 101.685 34.839C101.635 34.8468 101.586 34.8545 101.535 34.8625C99.0309 35.2428 95.4056 35.0789 93.2007 33.645C93.0989 33.6012 92.9972 33.5574 92.895 33.5144C92.3281 33.2698 91.8216 32.9472 91.3086 32.6074C91.2169 32.5473 91.2169 32.5473 91.1233 32.4859C90.9331 32.357 90.7486 32.2226 90.5647 32.0848C90.5022 32.0382 90.4396 31.9915 90.3752 31.9435C90.2481 31.8439 90.1382 31.7465 90.0269 31.6309C89.9702 31.5856 89.9136 31.5402 89.8552 31.4936C89.6771 31.3475 89.5371 31.1837 89.3912 31.0062C89.2594 30.8594 89.1101 30.741 88.9537 30.6212C88.8493 30.5139 88.8386 30.4317 88.8062 30.2881C88.6851 30.2097 88.6851 30.2097 88.562 30.166C88.562 30.1056 88.562 30.0452 88.562 29.9829C88.5016 29.9628 88.4412 29.9427 88.3789 29.9219C87.7573 29.1947 87.2865 28.2675 86.853 27.4195C86.8226 27.362 86.8226 27.362 86.7916 27.3035C86.6368 27.0057 86.5237 26.7052 86.422 26.3857C86.3997 26.3173 86.3997 26.3173 86.377 26.2475C86.3471 26.1555 86.3174 26.0635 86.2878 25.9714C86.2419 25.8303 86.1939 25.6901 86.1459 25.5498C86.0698 25.3221 86.0123 25.0952 85.9642 24.8598C85.9503 24.7925 85.9364 24.7253 85.922 24.656C85.907 24.581 85.8919 24.506 85.8765 24.4287C85.8665 24.3842 85.8565 24.3396 85.8462 24.2936C85.7553 23.8739 85.7154 23.4569 85.6857 23.0287C85.6806 22.9559 85.6755 22.883 85.6703 22.808C85.577 21.3931 85.5678 19.9118 85.9416 18.5353C85.9889 18.3606 86.0254 18.1905 86.0558 18.0124C86.2969 16.7925 86.8811 15.5959 87.5244 14.541C87.5618 14.4794 87.5618 14.4794 87.6 14.4166C87.6744 14.2948 87.7498 14.1736 87.8258 14.0528C87.8488 14.0157 87.8719 13.9787 87.8956 13.9406C87.9516 13.8536 88.0123 13.7697 88.0737 13.6865C88.114 13.6865 88.1543 13.6865 88.1958 13.6865C88.209 13.6448 88.2222 13.603 88.2359 13.5599C88.342 13.3288 88.4883 13.1571 88.6536 12.9656C88.684 12.9291 88.7145 12.8926 88.7458 12.8551C88.824 12.7634 88.9063 12.6753 88.9893 12.5879C89.0295 12.5879 89.0698 12.5879 89.1113 12.5879C89.1173 12.5513 89.1233 12.5147 89.1294 12.4771C89.1811 12.3168 89.2395 12.2675 89.3707 12.1645C89.5032 12.0593 89.6233 11.9537 89.7429 11.8336C89.9156 11.6616 90.0955 11.5042 90.2824 11.3481C90.315 11.3204 90.3475 11.2927 90.381 11.2641C90.6226 11.062 90.6226 11.062 90.7593 11.062C90.7593 11.0218 90.7593 10.9815 90.7593 10.94C90.8599 10.8771 90.962 10.8166 91.0645 10.7569C91.1463 10.6938 91.2276 10.6302 91.3086 10.5661C91.4893 10.4279 91.6245 10.3442 91.8579 10.3296C91.8579 10.2893 91.8579 10.249 91.8579 10.2075C92.9599 9.61365 94.0649 9.0791 95.2759 8.7427C95.3199 8.73042 95.3639 8.71813 95.4092 8.70548C97.7695 8.05986 100.383 8.0643 102.783 8.49856Z" fill="#046EB4"/>
<path d="M148.743 16.0669C148.743 16.1072 148.743 16.1475 148.743 16.189C148.786 16.1942 148.828 16.1995 148.873 16.205C149.746 16.4295 150.855 17.5467 151.367 18.2642C151.367 18.3045 151.367 18.3447 151.367 18.3862C151.407 18.3862 151.448 18.3862 151.489 18.3862C151.506 18.4227 151.522 18.4593 151.539 18.4969C151.603 18.6299 151.603 18.6299 151.695 18.7124C152.132 19.1571 152.388 19.796 152.656 20.3514C152.707 20.4544 152.758 20.5567 152.81 20.6588C153.061 21.1706 153.179 21.7431 153.32 22.2925C153.331 22.3311 153.342 22.3697 153.352 22.4094C154.022 24.9173 153.535 27.8626 152.283 30.105C152.176 30.2886 152.066 30.47 151.955 30.6505C151.928 30.6928 151.902 30.7351 151.875 30.7786C151.688 31.0737 151.688 31.0737 151.55 31.1426C151.53 31.1829 151.51 31.2232 151.489 31.2647C151.428 31.3867 151.428 31.3867 151.306 31.4478C151.286 31.5082 151.266 31.5686 151.245 31.6309C151.156 31.7181 151.156 31.7181 151.047 31.8063C150.808 32.0039 150.592 32.2181 150.379 32.4434C148.492 34.2469 145.882 34.9731 143.324 34.9557C142.175 34.929 141.04 34.7567 139.954 34.3775C139.855 34.3449 139.855 34.3449 139.755 34.3117C139.14 34.0933 138.572 33.7737 138 33.4619C138 33.4216 138 33.3814 138 33.3399C137.9 33.3197 137.799 33.2996 137.695 33.2788C137.695 33.2385 137.695 33.1983 137.695 33.1568C137.635 33.1379 137.635 33.1379 137.573 33.1186C137.306 32.9963 136.976 32.8163 136.841 32.5464C136.784 32.5188 136.784 32.5188 136.726 32.4906C136.583 32.4171 136.514 32.3435 136.414 32.2183C136.308 32.0893 136.205 31.9727 136.086 31.8559C135.986 31.7529 135.986 31.7529 135.986 31.6309C135.926 31.6107 135.865 31.5906 135.803 31.5698C135.693 31.4435 135.591 31.3181 135.49 31.1846C135.463 31.149 135.435 31.1135 135.406 31.0769C135.269 30.8971 135.177 30.7534 135.132 30.5322C135.092 30.5322 135.051 30.5322 135.01 30.5322C134.693 30.0909 134.448 29.5862 134.264 29.0762C134.154 28.7748 134.032 28.477 133.907 28.1812C133.853 28.0377 133.82 27.9058 133.793 27.7551C133.748 27.5145 133.693 27.279 133.633 27.0418C133.407 26.0529 133.472 25.0094 133.484 24.0015C133.484 23.9311 133.484 23.9311 133.484 23.8593C133.489 22.8948 133.719 21.5653 134.216 20.7285C134.309 20.5728 134.368 20.4527 134.426 20.286C134.527 20.0006 134.674 19.7453 134.827 19.4849C134.867 19.4849 134.907 19.4849 134.949 19.4849C134.955 19.4502 134.962 19.4155 134.968 19.3797C135.016 19.2182 135.089 19.108 135.185 18.9699C135.287 18.8227 135.383 18.6791 135.471 18.5236C135.582 18.3504 135.716 18.2226 135.864 18.0811C135.915 18.0307 135.965 17.9804 136.017 17.9285C136.169 17.7759 136.322 17.6233 136.475 17.4707C136.529 17.4141 136.583 17.3574 136.639 17.2991C136.78 17.1655 136.78 17.1655 136.902 17.1655C136.922 17.1051 136.942 17.0447 136.963 16.9824C137.228 16.7383 137.228 16.7383 137.451 16.7383C137.451 16.698 137.451 16.6577 137.451 16.6162C137.863 16.3721 137.863 16.3721 138 16.3721C138 16.3318 138 16.2915 138 16.25C139.136 15.676 140.245 15.1712 141.51 14.9606C141.599 14.9452 141.599 14.9452 141.689 14.9294C144.107 14.5173 146.572 14.9382 148.743 16.0669ZM143.334 17.2258C142.225 17.2295 141.195 17.4748 140.198 17.959C140.135 17.9894 140.072 18.0199 140.008 18.0513C139.205 18.4656 138.32 19.1497 137.817 19.9121C137.817 19.9524 137.817 19.9927 137.817 20.0342C137.777 20.0342 137.737 20.0342 137.695 20.0342C137.605 20.1664 137.605 20.1664 137.512 20.3394C137.49 20.376 137.469 20.4127 137.446 20.4505C137.313 20.6555 137.313 20.6555 137.268 20.8887C137.228 20.8887 137.188 20.8887 137.146 20.8887C137.119 20.951 137.093 21.0133 137.065 21.0775C137.004 21.222 136.94 21.3654 136.876 21.5086C136.103 23.297 135.967 25.6247 136.597 27.4805C136.616 27.5397 136.616 27.5397 136.635 27.6001C136.845 28.2421 137.171 28.8216 137.555 29.3742C137.633 29.4922 137.696 29.6113 137.756 29.7388C137.797 29.7388 137.837 29.7388 137.878 29.7388C137.901 29.79 137.901 29.79 137.923 29.8423C138.164 30.281 138.585 30.6554 138.977 30.9595C139.017 30.9595 139.058 30.9595 139.099 30.9595C139.099 30.9998 139.099 31.0401 139.099 31.0816C139.18 31.1017 139.26 31.1218 139.343 31.1426C139.343 31.1829 139.343 31.2232 139.343 31.2647C139.536 31.4042 139.746 31.5153 139.954 31.6309C140.001 31.6576 140.049 31.6844 140.098 31.7119C141.796 32.6139 143.958 32.7269 145.787 32.1956C146.441 31.9809 147.047 31.6646 147.644 31.3257C147.644 31.2854 147.644 31.2451 147.644 31.2036C147.687 31.1895 147.729 31.1755 147.773 31.161C147.985 31.0656 148.151 30.9369 148.327 30.7878C148.361 30.7585 148.396 30.7292 148.432 30.6989C148.796 30.3791 149.076 30.0122 149.353 29.6167C149.387 29.569 149.422 29.5214 149.457 29.4722C150.237 28.351 150.738 26.9621 150.757 25.5884C150.758 25.5349 150.759 25.4813 150.759 25.4262C150.774 24.377 150.766 23.4241 150.452 22.4146C150.432 22.3308 150.413 22.2469 150.394 22.1628C150.259 21.6087 149.981 21.0868 149.719 20.5835C149.679 20.5835 149.639 20.5835 149.597 20.5835C149.586 20.5293 149.586 20.5293 149.575 20.4739C149.514 20.2602 149.379 20.094 149.25 19.9159C149.224 19.8788 149.199 19.8417 149.172 19.8035C148.992 19.5523 148.802 19.3702 148.56 19.1797C148.514 19.1331 148.469 19.0865 148.422 19.0386C148.058 18.683 147.667 18.3793 147.217 18.1421C147.177 18.1185 147.137 18.0949 147.096 18.0706C145.919 17.3784 144.672 17.2321 143.334 17.2258Z" fill="#046EB4"/>
<path d="M160.583 14.9683C161.49 14.9683 162.396 14.9683 163.33 14.9683C163.332 15.5092 163.332 15.5092 163.334 16.0612C163.338 17.2546 163.343 18.4481 163.348 19.6416C163.351 20.3649 163.354 21.0883 163.356 21.8117C163.358 22.4426 163.36 23.0735 163.363 23.7043C163.365 24.038 163.366 24.3717 163.367 24.7054C163.368 25.0203 163.369 25.3351 163.371 25.65C163.371 25.7648 163.372 25.8796 163.372 25.9945C163.373 26.877 163.38 27.7896 163.658 28.6363C163.672 28.6792 163.685 28.7222 163.699 28.7664C163.738 28.8875 163.778 29.008 163.818 29.1284C163.838 29.1876 163.857 29.2468 163.877 29.3077C164.05 29.785 164.341 30.1791 164.669 30.5627C164.795 30.7153 164.795 30.7153 164.795 30.8374C164.875 30.8777 164.956 30.918 165.039 30.9595C165.039 30.9998 165.039 31.04 165.039 31.0815C165.073 31.0979 165.107 31.1143 165.142 31.1311C165.296 31.2103 165.444 31.2906 165.588 31.3867C165.588 31.427 165.588 31.4673 165.588 31.5088C165.649 31.5314 165.649 31.5314 165.71 31.5546C165.894 31.6309 165.894 31.6309 166.103 31.7415C167.739 32.558 169.843 32.6219 171.568 32.0482C171.915 31.9271 172.242 31.7887 172.566 31.6167C172.668 31.5698 172.668 31.5698 172.791 31.5698C172.791 31.5295 172.791 31.4893 172.791 31.4478C172.891 31.4276 172.992 31.4075 173.096 31.3867C173.096 31.3464 173.096 31.3062 173.096 31.2646C173.192 31.1833 173.192 31.1833 173.321 31.093C173.53 30.9411 173.711 30.7815 173.889 30.5933C173.936 30.5492 173.982 30.5051 174.03 30.4597C175.495 28.9269 175.787 26.8046 175.794 24.7659C175.794 24.6588 175.795 24.5517 175.796 24.4445C175.797 24.1553 175.799 23.8661 175.8 23.5768C175.801 23.274 175.803 22.9711 175.804 22.6682C175.807 22.0954 175.81 21.5226 175.813 20.9498C175.816 20.2974 175.819 19.645 175.823 18.9925C175.83 17.6511 175.836 16.3097 175.842 14.9683C176.749 14.9683 177.655 14.9683 178.589 14.9683C178.589 21.474 178.589 27.9797 178.589 34.6826C177.703 34.6826 176.816 34.6826 175.903 34.6826C175.883 33.6353 175.863 32.5879 175.842 31.5088C175.719 31.6628 175.596 31.8168 175.473 31.9713C175.049 32.5001 174.597 33.0428 174.011 33.4009C173.971 33.4009 173.931 33.4009 173.889 33.4009C173.889 33.4412 173.889 33.4814 173.889 33.523C173.788 33.5431 173.688 33.5632 173.584 33.584C173.584 33.6243 173.584 33.6646 173.584 33.7061C172.869 34.0637 172.869 34.0637 172.738 34.1289C172.651 34.1725 172.564 34.2164 172.478 34.2607C170.531 35.2516 167.752 35.1753 165.71 34.5338C165.567 34.4838 165.425 34.4318 165.283 34.3774C165.217 34.3529 165.151 34.3283 165.083 34.3031C164.725 34.1621 164.398 33.9931 164.072 33.7874C163.95 33.7117 163.826 33.6462 163.696 33.584C163.696 33.5437 163.696 33.5034 163.696 33.4619C163.651 33.4456 163.606 33.4292 163.559 33.4123C163.398 33.3427 163.278 33.2731 163.147 33.1567C163.147 33.1165 163.147 33.0762 163.147 33.0347C163.113 33.0208 163.079 33.007 163.044 32.9927C162.864 32.8903 162.737 32.7583 162.598 32.6074C162.532 32.5367 162.532 32.5367 162.465 32.4646C162.221 32.1987 161.991 31.9406 161.804 31.6309C161.776 31.588 161.748 31.5451 161.719 31.5009C161.499 31.1541 161.343 30.804 161.203 30.418C161.144 30.2573 161.078 30.1044 161.007 29.9486C160.886 29.6475 160.82 29.3384 160.755 29.0216C160.74 28.9486 160.74 28.9486 160.724 28.8741C160.559 28.0218 160.575 27.1546 160.577 26.2903C160.577 26.1663 160.577 26.0423 160.577 25.9183C160.577 25.5842 160.577 25.2501 160.577 24.916C160.578 24.5659 160.578 24.2157 160.578 23.8656C160.578 23.2038 160.578 22.5419 160.579 21.8801C160.58 21.1261 160.58 20.3721 160.58 19.6181C160.581 18.0682 160.582 16.5182 160.583 14.9683Z" fill="#046FB4"/>
<path d="M126.221 14.7852C126.221 15.6915 126.221 16.5979 126.221 17.5317C125.798 17.5317 125.375 17.5317 124.939 17.5317C124.403 17.5555 123.928 17.6285 123.413 17.7759C123.334 17.7966 123.334 17.7966 123.253 17.8178C122.662 17.9801 122.166 18.2705 121.658 18.6087C121.521 18.6914 121.521 18.6914 121.399 18.6914C121.383 18.7278 121.368 18.7643 121.351 18.8018C121.27 18.9486 121.191 19.0188 121.059 19.1225C120.246 19.8147 119.766 20.7411 119.446 21.7432C119.432 21.7814 119.418 21.8197 119.404 21.8591C119.28 22.2068 119.212 22.5451 119.164 22.9105C119.156 22.9614 119.149 23.0124 119.141 23.065C119.028 23.8839 119.009 24.7042 119.006 25.5294C119.005 25.6299 119.005 25.7305 119.004 25.831C119.003 26.101 119.001 26.3709 119 26.6408C118.999 26.924 118.997 27.2073 118.995 27.4905C118.992 28.0255 118.99 28.5604 118.987 29.0954C118.984 29.705 118.981 30.3147 118.977 30.9243C118.97 32.1771 118.964 33.4298 118.958 34.6826C118.051 34.6826 117.145 34.6826 116.211 34.6826C116.211 28.1769 116.211 21.6711 116.211 14.9683C117.097 14.9683 117.983 14.9683 118.896 14.9683C118.917 16.0962 118.937 17.2241 118.958 18.3862C119.203 18.0234 119.203 18.0234 119.431 17.65C119.468 17.5915 119.468 17.5915 119.507 17.5317C119.547 17.5317 119.587 17.5317 119.629 17.5317C119.644 17.4974 119.659 17.4631 119.675 17.4278C120.004 16.8219 120.631 16.3484 121.216 16.0059C121.263 15.9764 121.309 15.9469 121.358 15.9165C121.706 15.6991 122.05 15.5339 122.437 15.3955C122.5 15.371 122.564 15.3466 122.629 15.3214C123.781 14.9023 125.003 14.7852 126.221 14.7852Z" fill="#046FB4"/>
<path d="M228.333 33.5229C228.511 33.5866 228.571 33.6352 228.67 33.8C228.698 33.8621 228.727 33.9243 228.756 33.9883C228.859 34.2051 228.959 34.4138 229.092 34.614C229.466 35.2015 229.754 35.7382 229.736 36.4526C229.735 36.5282 229.734 36.6037 229.732 36.6815C229.606 37.121 229.32 37.3924 228.933 37.6178C228.653 37.7569 228.395 37.7758 228.088 37.7344C227.59 37.563 227.32 37.3224 227.062 36.8684C226.865 36.2366 227.033 35.7003 227.295 35.1099C227.406 34.8984 227.528 34.6981 227.661 34.4995C227.701 34.4378 227.742 34.3761 227.783 34.3126C227.844 34.2238 227.844 34.2238 227.905 34.1333C228.002 33.988 228.098 33.8426 228.194 33.6972C228.271 33.584 228.271 33.584 228.333 33.5229Z" fill="#046EB4"/>
</svg>
