<svg width="133" height="54" viewBox="0 0 133 54" fill="none" xmlns="http://www.w3.org/2000/svg">
<path d="M18.52 28.88L28.32 5.08C29.72 1.72 31.24 0.6 33.44 0H23.48C27.16 0.04 28.84 2.4 27.52 5.64L23.08 16.56C22.56 17.72 22.2 18.44 21.92 18.76C21.68 19.04 21.36 19.2 20.92 19.2C20.4 19.2 19.68 18.36 18.76 16.64C17.6 14.2 15.68 10.12 13.08 4.36C11.8 1.24 14.8 0.28 16.2 0.0799999L16.72 0H0.359985C3.03999 0 4.91999 1.12 5.99999 3.4L18.52 28.88ZM39.065 25.44C34.785 25.4 32.065 22.2 32.065 17.52H45.305C45.425 12.72 42.505 9.6 38.465 9.12C36.265 8.84 34.185 9.28 32.225 10.44C29.225 12.32 27.785 15.16 27.825 18.92C27.865 21.64 28.745 23.92 30.425 25.72C32.105 27.52 34.305 28.44 37.065 28.52C39.345 28.56 41.225 27.96 42.745 26.64C44.305 25.32 45.185 23.72 45.465 21.76C44.385 24.28 42.265 25.48 39.065 25.44ZM34.905 10.32C36.665 9.16 38.905 9 40.225 9.96C41.145 10.56 41.625 11.48 41.665 12.76C41.745 14 41.465 14.96 40.825 15.56C40.145 16.36 39.025 16.84 37.545 17.04C36.705 17.16 34.905 17.2 32.065 17.2C32.065 16.08 32.265 14.84 32.705 13.44C33.145 12.04 33.905 11 34.905 10.32ZM52.73 9.04L46.25 12.84C46.53 12.72 48.21 12.4 48.21 14.6V24.48C48.21 26.08 47.61 27.2 46.77 27.56C45.93 27.92 45.57 28 45.13 28H55.89C55.45 28 55.13 27.92 54.21 27.56C53.37 27.2 52.73 26.08 52.73 24.48V9.04ZM64.77 17.36V16.84C64.77 16 64.77 15.36 64.73 15C64.73 14.6 64.69 14.04 64.65 13.36C64.61 12.68 64.49 12.16 64.33 11.8C63.89 10.64 62.89 9.32 61.09 9.32C59.45 9.2 57.89 9.6 56.45 10.56C55.01 11.52 53.85 12.6 52.97 13.8C53.81 12.88 54.85 12.28 56.05 12C57.25 11.72 58.21 11.84 58.89 12.36C59.73 12.88 60.13 14.28 60.17 15.56C60.21 16.2 60.21 17.28 60.21 18.76V19.64V24.48C60.21 26.08 59.61 27.2 58.77 27.56C57.93 27.92 57.57 28 57.13 28H67.89C67.45 28 67.13 27.92 66.21 27.56C65.37 27.2 64.77 26.08 64.77 24.48V17.36ZM76.4231 26.16C73.8631 26 73.1431 24.28 73.1031 20.48V10.36H77.2631L77.6231 10H73.1031C73.1431 7.28 73.1431 4.68 73.1431 2.24L68.5431 5.12V10H66.5031L66.9831 10.36H68.5431V20.36C68.5431 25.6 70.2231 28.4 74.7031 28.44C76.5031 28.48 77.9031 27.92 78.8631 26.76C79.8231 25.6 80.4231 24.28 80.6231 22.76C79.9831 24.8 78.4631 26.32 76.4231 26.16ZM87.225 25.36C86.785 25.08 86.425 24.6 86.225 23.92C86.025 23.16 85.905 21.24 85.905 18.08V13.56V10.04H78.225C78.665 10.04 79.025 10.12 79.865 10.48C80.785 10.84 81.385 11.96 81.385 13.56V20.36V20.92V22.76L81.505 24.36C81.545 25.04 81.665 25.56 81.825 25.92C82.385 27.16 83.105 28.2 85.025 28.36C86.665 28.52 88.265 28.12 89.825 27.16C91.385 26.16 92.585 25.08 93.425 23.92C92.585 24.84 91.505 25.44 90.185 25.72C88.865 26 87.905 25.88 87.225 25.36ZM93.625 25.92V28.72L99.865 25.08C99.545 25.08 98.145 25.28 98.145 23.6V10.04H90.505C90.945 10.04 91.305 10.08 92.145 10.44C92.985 10.76 93.625 11.76 93.625 13.24V25.92ZM112.927 9.16C110.527 9.04 107.927 10.76 106.607 13.28V12.64V11.72V9.04L100.247 12.72C101.327 12.52 102.087 13.04 102.087 14.6V24.28V24.8C102.087 26.28 101.407 27.28 100.447 27.64C99.5269 27.96 99.1269 28 98.6869 28H110.047C109.607 28 109.207 27.96 108.247 27.64C107.287 27.28 106.607 26.28 106.607 24.8V13.84C107.927 11.88 109.247 11.36 110.567 12.32C110.847 12.52 111.487 13.52 112.127 13.96C112.487 14.16 112.927 14.28 113.487 14.28C114.927 14.24 115.607 13.08 115.607 11.84C115.607 10.6 114.807 9.2 112.927 9.16ZM126.026 25.44C121.746 25.4 119.026 22.2 119.026 17.52H132.266C132.386 12.72 129.466 9.6 125.426 9.12C123.226 8.84 121.146 9.28 119.186 10.44C116.186 12.32 114.746 15.16 114.786 18.92C114.826 21.64 115.706 23.92 117.386 25.72C119.066 27.52 121.266 28.44 124.026 28.52C126.306 28.56 128.186 27.96 129.706 26.64C131.266 25.32 132.146 23.72 132.426 21.76C131.346 24.28 129.226 25.48 126.026 25.44ZM121.866 10.32C123.626 9.16 125.866 9 127.186 9.96C128.106 10.56 128.586 11.48 128.626 12.76C128.706 14 128.426 14.96 127.786 15.56C127.106 16.36 125.986 16.84 124.506 17.04C123.666 17.16 121.866 17.2 119.026 17.2C119.026 16.08 119.226 14.84 119.666 13.44C120.106 12.04 120.866 11 121.866 10.32Z" fill="#2B3458"/>
<path d="M31 36.18H33.04C33.287 36.18 33.543 36.21 33.81 36.27C34.083 36.3233 34.33 36.42 34.55 36.56C34.777 36.7 34.96 36.8933 35.1 37.14C35.247 37.38 35.32 37.6833 35.32 38.05C35.32 38.37 35.26 38.6467 35.14 38.88C35.027 39.1133 34.87 39.3067 34.67 39.46C34.477 39.6067 34.25 39.7167 33.99 39.79C33.737 39.8633 33.47 39.9 33.19 39.9H31.66V43.26H31V36.18ZM31.66 39.3H33.16C33.347 39.3 33.53 39.28 33.71 39.24C33.89 39.1933 34.05 39.1233 34.19 39.03C34.33 38.93 34.443 38.8 34.53 38.64C34.617 38.48 34.66 38.2833 34.66 38.05C34.66 37.8233 34.613 37.63 34.52 37.47C34.433 37.31 34.317 37.18 34.17 37.08C34.03 36.9733 33.867 36.8967 33.68 36.85C33.493 36.8033 33.307 36.78 33.12 36.78H31.66V39.3ZM40.402 39.3H41.802C42.149 39.3 42.429 39.2567 42.642 39.17C42.862 39.0833 43.032 38.9767 43.152 38.85C43.272 38.7233 43.352 38.5867 43.392 38.44C43.439 38.2933 43.462 38.16 43.462 38.04C43.462 37.92 43.439 37.7867 43.392 37.64C43.352 37.4933 43.272 37.3567 43.152 37.23C43.032 37.1033 42.862 36.9967 42.642 36.91C42.429 36.8233 42.149 36.78 41.802 36.78H40.402V39.3ZM39.742 36.18H41.602C41.696 36.18 41.822 36.1833 41.982 36.19C42.142 36.1967 42.316 36.2167 42.502 36.25C42.689 36.2833 42.879 36.3367 43.072 36.41C43.266 36.4833 43.439 36.59 43.592 36.73C43.746 36.87 43.872 37.0467 43.972 37.26C44.072 37.4733 44.122 37.7333 44.122 38.04C44.122 38.38 44.062 38.66 43.942 38.88C43.829 39.1 43.682 39.28 43.502 39.42C43.329 39.5533 43.136 39.6533 42.922 39.72C42.709 39.7867 42.506 39.8333 42.312 39.86L44.372 43.26H43.622L41.632 39.9H40.402V43.26H39.742V36.18ZM48.21 39.72C48.21 39.18 48.3 38.6833 48.48 38.23C48.66 37.7767 48.91 37.3867 49.23 37.06C49.55 36.7267 49.933 36.4667 50.38 36.28C50.833 36.0933 51.33 36 51.87 36C52.41 36 52.903 36.0933 53.35 36.28C53.803 36.4667 54.19 36.7267 54.51 37.06C54.83 37.3867 55.08 37.7767 55.26 38.23C55.44 38.6833 55.53 39.18 55.53 39.72C55.53 40.26 55.44 40.76 55.26 41.22C55.08 41.6733 54.83 42.0667 54.51 42.4C54.19 42.7267 53.803 42.9833 53.35 43.17C52.903 43.35 52.41 43.44 51.87 43.44C51.33 43.44 50.833 43.35 50.38 43.17C49.933 42.9833 49.55 42.7267 49.23 42.4C48.91 42.0667 48.66 41.6733 48.48 41.22C48.3 40.76 48.21 40.26 48.21 39.72ZM48.87 39.72C48.87 40.16 48.94 40.57 49.08 40.95C49.22 41.33 49.42 41.66 49.68 41.94C49.94 42.22 50.253 42.44 50.62 42.6C50.993 42.76 51.41 42.84 51.87 42.84C52.33 42.84 52.743 42.76 53.11 42.6C53.483 42.44 53.8 42.22 54.06 41.94C54.32 41.66 54.52 41.33 54.66 40.95C54.8 40.57 54.87 40.16 54.87 39.72C54.87 39.28 54.8 38.87 54.66 38.49C54.52 38.11 54.32 37.78 54.06 37.5C53.8 37.22 53.483 37 53.11 36.84C52.743 36.68 52.33 36.6 51.87 36.6C51.41 36.6 50.993 36.68 50.62 36.84C50.253 37 49.94 37.22 49.68 37.5C49.42 37.78 49.22 38.11 49.08 38.49C48.94 38.87 48.87 39.28 48.87 39.72ZM60.01 36.18H62.05C62.296 36.18 62.553 36.21 62.82 36.27C63.093 36.3233 63.34 36.42 63.56 36.56C63.786 36.7 63.97 36.8933 64.11 37.14C64.256 37.38 64.33 37.6833 64.33 38.05C64.33 38.37 64.27 38.6467 64.15 38.88C64.036 39.1133 63.88 39.3067 63.68 39.46C63.486 39.6067 63.26 39.7167 63 39.79C62.746 39.8633 62.48 39.9 62.2 39.9H60.67V43.26H60.01V36.18ZM60.67 39.3H62.17C62.356 39.3 62.54 39.28 62.72 39.24C62.9 39.1933 63.06 39.1233 63.2 39.03C63.34 38.93 63.453 38.8 63.54 38.64C63.626 38.48 63.67 38.2833 63.67 38.05C63.67 37.8233 63.623 37.63 63.53 37.47C63.443 37.31 63.326 37.18 63.18 37.08C63.04 36.9733 62.876 36.8967 62.69 36.85C62.503 36.8033 62.316 36.78 62.13 36.78H60.67V39.3ZM68.752 36.18H73.082V36.78H69.412V39.3H72.852V39.9H69.412V42.66H73.242V43.26H68.752V36.18ZM78.34 39.3H79.74C80.086 39.3 80.366 39.2567 80.58 39.17C80.8 39.0833 80.97 38.9767 81.09 38.85C81.21 38.7233 81.29 38.5867 81.33 38.44C81.376 38.2933 81.4 38.16 81.4 38.04C81.4 37.92 81.376 37.7867 81.33 37.64C81.29 37.4933 81.21 37.3567 81.09 37.23C80.97 37.1033 80.8 36.9967 80.58 36.91C80.366 36.8233 80.086 36.78 79.74 36.78H78.34V39.3ZM77.68 36.18H79.54C79.633 36.18 79.76 36.1833 79.92 36.19C80.08 36.1967 80.253 36.2167 80.44 36.25C80.626 36.2833 80.816 36.3367 81.01 36.41C81.203 36.4833 81.376 36.59 81.53 36.73C81.683 36.87 81.81 37.0467 81.91 37.26C82.01 37.4733 82.06 37.7333 82.06 38.04C82.06 38.38 82 38.66 81.88 38.88C81.766 39.1 81.62 39.28 81.44 39.42C81.266 39.5533 81.073 39.6533 80.86 39.72C80.646 39.7867 80.443 39.8333 80.25 39.86L82.31 43.26H81.56L79.57 39.9H78.34V43.26H77.68V36.18ZM88.236 36.78H85.816V36.18H91.316V36.78H88.896V43.26H88.236V36.78ZM96.978 40.21L94.378 36.18H95.168L97.308 39.54L99.498 36.18H100.238L97.638 40.21V43.26H96.978V40.21Z" fill="#2B3458"/>
<path d="M17 46.18H17.99L20.57 52.12L23.15 46.18H24.09V53.26H23.43V47.02H23.41L20.71 53.26H20.42L17.68 47.02H17.66V53.26H17V46.18ZM31.127 46.18H31.807L34.787 53.26H34.047L33.277 51.38H29.527L28.727 53.26H28.037L31.127 46.18ZM31.437 46.9L29.787 50.78H33.037L31.437 46.9ZM38.802 46.18H39.652L43.962 52.38H43.982V46.18H44.642V53.26H43.792L39.482 47.06H39.462V53.26H38.802V46.18ZM51.756 46.18H52.436L55.416 53.26H54.676L53.906 51.38H50.156L49.356 53.26H48.666L51.756 46.18ZM52.066 46.9L50.416 50.78H53.666L52.066 46.9ZM65.271 52.8C64.858 53.0333 64.428 53.1967 63.981 53.29C63.541 53.39 63.091 53.44 62.631 53.44C62.091 53.44 61.595 53.35 61.141 53.17C60.695 52.9833 60.311 52.7267 59.991 52.4C59.671 52.0667 59.421 51.6733 59.241 51.22C59.061 50.76 58.971 50.26 58.971 49.72C58.971 49.18 59.061 48.6833 59.241 48.23C59.421 47.7767 59.671 47.3867 59.991 47.06C60.311 46.7267 60.695 46.4667 61.141 46.28C61.595 46.0933 62.091 46 62.631 46C63.685 46 64.535 46.3267 65.181 46.98L64.701 47.48C64.595 47.3533 64.461 47.2367 64.301 47.13C64.148 47.0167 63.978 46.9233 63.791 46.85C63.611 46.77 63.421 46.71 63.221 46.67C63.021 46.6233 62.825 46.6 62.631 46.6C62.171 46.6 61.755 46.68 61.381 46.84C61.015 47 60.701 47.22 60.441 47.5C60.181 47.78 59.981 48.11 59.841 48.49C59.701 48.87 59.631 49.28 59.631 49.72C59.631 50.16 59.701 50.57 59.841 50.95C59.981 51.33 60.181 51.66 60.441 51.94C60.701 52.22 61.015 52.44 61.381 52.6C61.755 52.76 62.171 52.84 62.631 52.84C63.011 52.84 63.368 52.81 63.701 52.75C64.035 52.69 64.338 52.58 64.611 52.42V50.04H62.911V49.44H65.271V52.8ZM70.215 46.18H74.545V46.78H70.875V49.3H74.315V49.9H70.875V52.66H74.705V53.26H70.215V46.18ZM79.072 46.18H80.062L82.642 52.12L85.222 46.18H86.162V53.26H85.502V47.02H85.482L82.782 53.26H82.492L79.752 47.02H79.732V53.26H79.072V46.18ZM91.029 46.18H95.359V46.78H91.689V49.3H95.129V49.9H91.689V52.66H95.519V53.26H91.029V46.18ZM99.957 46.18H100.807L105.117 52.38H105.137V46.18H105.797V53.26H104.947L100.637 47.06H100.617V53.26H99.957V46.18ZM112.31 46.78H109.89V46.18H115.39V46.78H112.97V53.26H112.31V46.78Z" fill="#2B3458"/>
</svg>
