<svg width="209" height="148" viewBox="0 0 209 148" fill="none" xmlns="http://www.w3.org/2000/svg">
<path d="M63.6051 0.398793C63.6788 0.402435 63.7526 0.406077 63.8286 0.409829C67.935 0.614822 72.6172 0.902437 75.6665 3.98731C75.7402 4.06004 75.814 4.13277 75.89 4.2077C76.4759 4.82094 76.8773 5.531 77.2614 6.27997C77.3416 6.43455 77.3416 6.43455 77.4234 6.59225C79.0677 10.0778 78.773 14.23 78.7672 17.9864C78.7666 18.443 78.7666 18.8996 78.7665 19.3562C78.7662 20.258 78.7654 21.1599 78.7645 22.0618C78.7633 23.1435 78.7628 24.2252 78.7622 25.307C78.7609 27.9193 78.7585 30.5317 78.7561 33.1441C78.7549 34.381 78.7539 35.618 78.7529 36.8549C78.7494 41.0934 78.7457 45.3319 78.7413 49.5705C78.741 49.8361 78.7407 50.1016 78.7405 50.3672C78.7402 50.6334 78.7399 50.8996 78.7396 51.1659C78.7391 51.633 78.7386 52.1002 78.7382 52.5673C78.738 52.701 78.7379 52.8347 78.7377 52.9684C78.7333 57.1967 78.73 61.425 78.7275 65.6534C78.7248 70.3341 78.721 75.0148 78.7159 79.6955C78.7154 80.1949 78.7148 80.6943 78.7143 81.1937C78.7141 81.3781 78.7141 81.3781 78.7139 81.5663C78.7118 83.5412 78.7107 85.5162 78.7099 87.4911C78.7091 89.4768 78.7072 91.4624 78.7041 93.4481C78.7024 94.6262 78.7014 95.8043 78.7017 96.9824C78.7018 97.771 78.7008 98.5597 78.6989 99.3483C78.6979 99.7965 78.6973 100.245 78.698 100.693C78.7047 105.149 78.4197 109.851 75.4671 113.437C75.3536 113.575 75.3536 113.575 75.2378 113.716C72.417 116.98 68.1303 117.84 64.0191 118.171C62.4892 118.272 60.9508 118.238 59.4185 118.222C59.3978 118.337 59.3771 118.452 59.3558 118.57C58.3058 124.207 55.895 129.568 52.6402 134.27C52.6015 134.327 52.5627 134.383 52.5229 134.441C51.1832 136.374 49.69 138.181 48.0911 139.905C47.9525 140.055 47.8151 140.206 47.6779 140.357C46.9149 141.198 46.1388 142.022 45.2743 142.76C45.0288 142.974 44.7918 143.195 44.5535 143.416C43.9753 143.943 43.3671 144.425 42.7469 144.901C42.5784 145.031 42.4113 145.163 42.2445 145.295C39.7156 147.291 39.7156 147.291 38.4045 147.484C37.9317 147.401 37.6429 147.184 37.308 146.849C37.0847 146.438 37.0379 146.125 37.1588 145.678C37.3787 145.039 37.612 144.406 37.8578 143.776C40.5347 136.903 42.3066 129.416 42.2863 122.016C42.2858 121.787 42.2863 121.558 42.287 121.329C42.2872 120.488 42.2651 119.65 42.2227 118.81C42.218 118.715 42.2133 118.619 42.2084 118.521C42.197 118.288 42.1854 118.056 42.1737 117.823C42.0725 117.826 41.9713 117.829 41.8671 117.832C37.2539 117.961 32.6387 117.938 28.0242 117.936C27.1118 117.935 26.1995 117.935 25.2871 117.936C24.3942 117.936 23.5013 117.936 22.6084 117.936C22.0805 117.936 21.5525 117.936 21.0246 117.936C15.4879 117.939 15.4879 117.939 13.6088 117.698C13.5072 117.686 13.4055 117.673 13.3008 117.66C9.90469 117.208 6.5983 116.167 4.09551 113.736C3.97311 113.625 3.97311 113.625 3.84825 113.511C1.8369 111.621 0.98662 109.003 0.58175 106.341C0.566692 106.243 0.551634 106.144 0.53612 106.043C0.186642 103.53 0.180357 101.018 0.187729 98.4872C0.189016 97.9655 0.189109 97.4437 0.189347 96.922C0.189912 96.0152 0.191182 95.1084 0.192931 94.2017C0.195481 92.8702 0.19677 91.5387 0.197725 90.2072C0.199217 88.1374 0.201281 86.0676 0.203809 83.9978C0.21037 78.6175 0.213115 73.2372 0.214103 67.8569C0.214165 67.5224 0.214231 67.188 0.214304 66.8536C0.216277 57.7328 0.190625 48.6128 0.0456419 32.8588C0.0163914 29.8642 -0.000626108 26.8699 1.76308e-05 23.8752C2.02664e-05 23.7908 2.09996e-05 23.7064 2.37149e-05 23.6194C0.00103128 8.21716 0.00103315 8.21716 3.74039 4.40472C9.73057 -1.37034 24.0358 0.164308 63.6051 0.398793Z" fill="#FEFEFE"/>
<path d="M63.6051 0.398793C63.6788 0.402435 63.7526 0.406077 63.8286 0.409829C67.935 0.614822 72.6172 0.902437 75.6665 3.98731C75.7402 4.06004 75.814 4.13277 75.89 4.2077C76.4759 4.82094 76.8773 5.531 77.2614 6.27997C77.3416 6.43455 77.3416 6.43455 77.4234 6.59225C79.0677 10.0778 78.773 14.23 78.7672 17.9864C78.7666 18.443 78.7666 18.8996 78.7665 19.3562C78.7662 20.258 78.7654 21.1599 78.7645 22.0618C78.7633 23.1435 78.7628 24.2252 78.7622 25.307C78.7609 27.9193 78.7585 30.5317 78.7561 33.1441C78.7549 34.381 78.7539 35.618 78.7529 36.8549C78.7494 41.0934 78.7457 45.3319 78.7413 49.5705C78.741 49.8361 78.7407 50.1016 78.7405 50.3672C78.7402 50.6334 78.7399 50.8996 78.7396 51.1659C78.7391 51.633 78.7386 52.1002 78.7382 52.5673C78.738 52.701 78.7379 52.8347 78.7377 52.9684C78.7333 57.1967 78.73 61.425 78.7275 65.6534C78.7248 70.3341 78.721 75.0148 78.7159 79.6955C78.7154 80.1949 78.7148 80.6943 78.7143 81.1937C78.7141 81.3781 78.7141 81.3781 78.7139 81.5663C78.7118 83.5412 78.7107 85.5162 78.7099 87.4911C78.7091 89.4768 78.7072 91.4624 78.7041 93.4481C78.7024 94.6262 78.7014 95.8043 78.7017 96.9824C78.7018 97.771 78.7008 98.5597 78.6989 99.3483C78.6979 99.7965 78.6973 100.245 78.698 100.693C78.7047 105.149 78.4197 109.851 75.4671 113.437C75.3536 113.575 75.3536 113.575 75.2378 113.716C72.417 116.98 68.1303 117.84 64.0191 118.171C62.4892 118.272 60.9508 118.238 59.4185 118.222C59.3978 118.337 59.3771 118.452 59.3558 118.57C58.3058 124.207 55.895 129.568 52.6402 134.27C52.6015 134.327 52.5627 134.383 52.5229 134.441C51.1832 136.374 49.69 138.181 48.0911 139.905C47.9525 140.055 47.8151 140.206 47.6779 140.357C46.9149 141.198 46.1388 142.022 45.2743 142.76C45.0288 142.974 44.7918 143.195 44.5535 143.416C43.9753 143.943 43.3671 144.425 42.7469 144.901C42.5784 145.031 42.4113 145.163 42.2445 145.295C39.7156 147.291 39.7156 147.291 38.4045 147.484C37.9317 147.401 37.6429 147.184 37.308 146.849C37.0847 146.438 37.0379 146.125 37.1588 145.678C37.3787 145.039 37.612 144.406 37.8578 143.776C40.5347 136.903 42.3066 129.416 42.2863 122.016C42.2858 121.787 42.2863 121.558 42.287 121.329C42.2872 120.488 42.2651 119.65 42.2227 118.81C42.218 118.715 42.2133 118.619 42.2084 118.521C42.197 118.288 42.1854 118.056 42.1737 117.823C42.0725 117.826 41.9713 117.829 41.8671 117.832C37.2539 117.961 32.6387 117.938 28.0242 117.936C27.1118 117.935 26.1995 117.935 25.2871 117.936C24.3942 117.936 23.5013 117.936 22.6084 117.936C22.0805 117.936 21.5525 117.936 21.0246 117.936C15.4879 117.939 15.4879 117.939 13.6088 117.698C13.5072 117.686 13.4055 117.673 13.3008 117.66C9.90469 117.208 6.5983 116.167 4.09551 113.736C3.97311 113.625 3.97311 113.625 3.84825 113.511C1.8369 111.621 0.98662 109.003 0.58175 106.341C0.566692 106.243 0.551634 106.144 0.53612 106.043C0.186642 103.53 0.180357 101.018 0.187729 98.4872C0.189016 97.9655 0.189109 97.4437 0.189347 96.922C0.189912 96.0152 0.191182 95.1084 0.192931 94.2017C0.195481 92.8702 0.19677 91.5387 0.197725 90.2072C0.199217 88.1374 0.201281 86.0676 0.203809 83.9978C0.21037 78.6175 0.213115 73.2372 0.214103 67.8569C0.214165 67.5224 0.214231 67.188 0.214304 66.8536C0.216277 57.7328 0.190625 48.6128 0.0456419 32.8588C0.0163914 29.8642 -0.000626108 26.8699 1.76308e-05 23.8752C2.02664e-05 23.7908 2.09996e-05 23.7064 2.37149e-05 23.6194C0.00103128 8.21716 0.00103315 8.21716 3.74039 4.40472C9.73057 -1.37034 24.0358 0.164308 63.6051 0.398793ZM64.6786 9.51449C64.2191 9.60596 63.7563 9.67679 63.2936 9.75012C62.2342 9.92163 61.1834 10.1295 60.132 10.3433C58.9433 10.5848 57.7523 10.8104 56.5589 11.0273C55.4587 11.2275 54.3612 11.4338 53.2676 11.668C52.4967 11.8323 51.7236 11.9839 50.9497 12.1331C49.0392 12.5017 47.1307 12.8799 45.2227 13.2611C44.8788 13.3298 44.535 13.3982 44.1911 13.4666C42.3346 13.8355 40.4814 14.2123 38.6351 14.6297C37.9869 14.7762 37.3366 14.9092 36.685 15.0394C35.4481 15.2909 34.22 15.5736 32.9926 15.8674C32.8512 15.9013 32.7099 15.9351 32.5685 15.9689C32.5007 15.9851 32.433 16.0013 32.3632 16.018C31.9334 16.1201 31.5027 16.2132 31.0697 16.3001C28.5618 16.8103 25.9616 17.6442 24.3892 19.7887C22.5108 22.7266 22.6748 26.7759 22.5818 30.1306C22.5797 30.2062 22.5776 30.2819 22.5754 30.3598C22.5225 32.299 22.5215 34.238 22.522 36.1777C22.522 36.708 22.5215 37.2384 22.521 37.7687C22.5202 38.8046 22.5199 39.8404 22.5198 40.8763C22.5198 41.724 22.5196 42.5718 22.5193 43.4195C22.5184 45.8466 22.5179 48.2736 22.518 50.7007C22.518 50.8309 22.518 50.9612 22.518 51.0954C22.518 51.2258 22.518 51.3562 22.518 51.4906C22.5181 53.5829 22.5171 55.6753 22.5157 57.7677C22.5143 59.9392 22.5136 62.1107 22.5137 64.2823C22.5137 65.492 22.5135 66.7016 22.5124 67.9113C22.508 72.919 22.5305 77.925 22.6189 82.932C22.625 83.2811 22.631 83.6302 22.6369 83.9793C22.6745 86.1618 22.7207 88.3443 22.8067 90.5255C22.8137 90.7077 22.8203 90.8899 22.8263 91.0722C22.9143 93.6945 23.3916 95.9569 25.3466 97.8405C27.0134 99.3033 29.0593 100.274 31.0179 101.276C31.433 101.488 31.8477 101.701 32.2624 101.915C32.4099 101.99 32.5574 102.066 32.7049 102.142C32.8155 102.199 32.8155 102.199 32.9283 102.257C33.153 102.373 33.3777 102.488 33.6025 102.604C34.6038 103.118 35.6044 103.635 36.6031 104.154C37.1812 104.455 37.7603 104.753 38.341 105.049C40.0084 105.898 41.6342 106.738 43.0708 107.955C43.1926 108.047 43.1926 108.047 43.3169 108.142C44.6944 109.298 45.3569 111.14 45.7622 112.839C45.7778 112.905 45.7935 112.97 45.8096 113.038C46.1991 114.723 46.1975 116.444 46.1921 118.166C46.1919 118.281 46.1918 118.396 46.1916 118.515C46.185 121.376 45.9893 124.179 45.4631 126.994C45.4382 127.13 45.4132 127.266 45.3883 127.402C44.9064 130.022 44.3516 132.619 43.5692 135.168C43.5063 135.385 43.444 135.603 43.3823 135.822C42.6403 138.425 41.7975 140.876 40.6784 143.341C40.6343 143.439 40.6343 143.439 40.5892 143.538C40.4532 143.838 40.3168 144.138 40.18 144.438C40.4717 144.305 40.6854 144.159 40.9167 143.938C40.9788 143.88 41.0409 143.821 41.1049 143.76C41.1697 143.698 41.2346 143.636 41.3014 143.572C41.4366 143.444 41.5718 143.316 41.7072 143.188C41.7713 143.127 41.8355 143.067 41.9016 143.004C42.0916 142.826 42.2865 142.656 42.4852 142.488C43.2728 141.809 44.0133 141.052 44.6859 140.259C44.872 140.044 45.0642 139.835 45.2578 139.627C45.8171 139.024 46.3484 138.404 46.8587 137.759C46.9099 137.695 46.9612 137.63 47.014 137.564C50.0726 133.707 52.5751 129.504 54.3347 124.9C54.3723 124.802 54.4098 124.704 54.4484 124.603C55.0386 123.04 55.453 121.443 55.83 119.817C55.8567 119.706 55.8567 119.706 55.884 119.593C56.205 118.263 56.2954 116.888 56.428 115.53C56.5545 115.518 56.5545 115.518 56.6836 115.506C57.0024 115.476 57.3212 115.445 57.64 115.414C57.7768 115.4 57.9137 115.387 58.0506 115.374C58.912 115.292 59.7627 115.184 60.6147 115.032C60.7311 115.014 60.8475 114.997 60.9674 114.979C62.82 114.662 64.6632 113.963 66.2965 113.038C66.3948 112.983 66.4931 112.929 66.5943 112.872C68.3755 111.811 69.5434 110.25 70.0962 108.26C70.2303 107.695 70.2566 107.126 70.2772 106.547C70.2818 106.417 70.2818 106.417 70.2866 106.285C70.2897 106.194 70.2929 106.104 70.2962 106.011C70.3008 105.878 70.3008 105.878 70.3056 105.743C70.3121 105.558 70.3187 105.372 70.3252 105.187C70.3547 104.346 70.3856 103.506 70.4212 102.666C70.63 97.6838 70.6175 92.7004 70.6227 87.7151C70.6237 86.8021 70.6251 85.889 70.6268 84.976C70.627 84.8768 70.627 84.8768 70.6272 84.7757C70.6277 84.5068 70.6282 84.2378 70.6287 83.9689C70.6337 81.3666 70.6376 78.7643 70.641 76.162C70.6437 74.0474 70.6468 71.9329 70.6502 69.8183C70.6506 69.5989 70.6509 69.3795 70.6513 69.1601C70.6515 69.0515 70.6515 69.0515 70.6517 68.9406C70.6518 68.8682 70.6519 68.7957 70.652 68.7211C70.6523 68.5748 70.6525 68.4284 70.6527 68.2821C70.6529 68.2096 70.653 68.1372 70.6531 68.0625C70.6533 67.9162 70.6536 67.7698 70.6538 67.6235C70.6654 60.5217 70.6744 53.4199 70.682 46.3181C70.6824 45.9606 70.6828 45.6031 70.6832 45.2456C70.6888 40.0783 70.6933 34.911 70.6945 29.7437C70.6947 28.9896 70.6949 28.2355 70.6953 27.4814C70.6961 25.8082 70.6964 24.135 70.6958 22.4617C70.6957 21.9773 70.6957 21.4929 70.696 21.0084C71.1417 15.0531 71.1417 15.0531 69.2869 9.76881C67.959 8.71187 66.2019 9.19629 64.6786 9.51449Z" fill="#003359"/>
<path d="M53.2777 3.45188C53.9483 3.48522 54.619 3.51356 55.2899 3.53915C57.4513 3.623 59.6106 3.7459 61.7697 3.87452C61.9894 3.88752 62.2092 3.90028 62.4289 3.91297C62.8404 3.93681 63.2518 3.96199 63.6631 3.98733C63.7865 3.99438 63.9098 4.00144 64.0369 4.00872C65.5233 4.10318 65.5233 4.10318 66.0971 4.48573C66.1034 4.71001 66.1034 4.71001 65.9974 4.98414C65.349 5.40318 64.5611 5.51624 63.8169 5.65698C63.5579 5.70817 63.299 5.75963 63.0401 5.81157C62.9728 5.82501 62.9054 5.83845 62.836 5.85231C62.0525 6.01012 61.2747 6.19226 60.4963 6.37344C59.3509 6.63924 58.2037 6.88875 57.0511 7.12105C55.7309 7.38719 54.4189 7.68235 53.1076 7.98923C52.0448 8.23778 50.9814 8.47469 49.9114 8.69102C48.9314 8.88923 47.9589 9.10813 46.9876 9.34547C46.2466 9.52622 45.5039 9.69743 44.7592 9.86228C44.6479 9.88691 44.5367 9.91154 44.422 9.93691C43.8218 10.0693 43.2212 10.1997 42.6203 10.3288C41.106 10.655 39.5986 11.0015 38.0944 11.3718C37.0371 11.632 35.9786 11.8815 34.9156 12.1176C32.8951 12.5678 30.8669 13.0331 28.8877 13.6431C28.6277 13.7224 28.3687 13.7977 28.1066 13.869C25.445 14.6 22.9824 15.7762 21.5592 18.2561C20.0865 21.0213 19.9639 24.3998 19.8922 27.4719C19.8903 27.5476 19.8884 27.6233 19.8865 27.7012C19.8175 30.4515 19.7875 33.2029 19.7517 35.9538C19.7506 36.0322 19.7496 36.1107 19.7486 36.1915C19.7147 38.7838 19.6832 41.3761 19.6527 43.9685C19.6469 44.462 19.641 44.9555 19.6351 45.449C19.5204 55.0685 19.438 64.6881 19.4164 79.233C19.4157 80.1844 19.4144 81.1358 19.4128 82.0872C19.4105 83.4092 19.4093 84.7312 19.41 86.0532C19.4103 86.6942 19.4101 87.3352 19.4087 87.9762C19.4075 88.5681 19.4077 89.16 19.4089 89.7519C19.4092 89.9649 19.4089 90.178 19.4081 90.3911C19.4029 91.7995 19.5116 93.1631 19.7115 94.5575C19.7534 94.8528 19.7895 95.1487 19.8264 95.4447C20.1355 97.1558 21.0174 98.6604 22.2375 99.8805C22.3097 99.9527 22.3819 100.025 22.4563 100.099C24.4793 102.013 27.0751 103.279 29.5142 104.565C30.0564 104.852 30.5984 105.138 31.1402 105.425C31.2078 105.461 31.2754 105.497 31.345 105.534C32.3857 106.085 33.416 106.653 34.4383 107.238C34.8374 107.467 35.239 107.69 35.6422 107.911C36.7707 108.531 37.8754 109.145 38.8842 109.948C38.9732 110.019 39.0623 110.09 39.154 110.163C40.7156 111.487 41.5345 113.104 41.775 115.132C36.4003 115.146 31.0257 115.13 25.6511 115.098C25.0717 115.095 24.4924 115.092 23.9131 115.09C23.1958 115.086 22.4785 115.082 21.7612 115.078C21.3906 115.075 21.02 115.073 20.6495 115.072C16.0201 115.054 11.3936 114.699 7.8834 111.344C5.51037 108.842 4.98082 105.122 4.78433 101.825C4.78019 101.756 4.77604 101.687 4.77177 101.616C4.67658 99.9898 4.65823 98.3633 4.64703 96.735C4.64626 96.6281 4.6455 96.5213 4.64472 96.4111C4.64229 96.0682 4.63991 95.7253 4.63754 95.3824C4.63596 95.1566 4.63439 94.9308 4.63281 94.7049C4.62681 93.8422 4.62088 92.9794 4.61496 92.1166C4.60444 90.5839 4.5936 89.0513 4.58156 87.5186C4.51612 79.1675 4.48569 70.8163 4.46541 49.0199C4.46525 48.456 4.46507 47.8922 4.4649 47.3283C4.46485 47.1668 4.4648 47.0053 4.46475 46.8438C4.46395 44.2189 4.46159 41.5939 4.45839 38.969C4.45496 36.1507 4.453 33.3325 4.45268 30.5143C4.45264 30.2052 4.45259 29.896 4.45253 29.5868C4.45252 29.5107 4.45251 29.4347 4.4525 29.3563C4.45227 28.1472 4.45072 26.938 4.44866 25.7288C4.44664 24.5194 4.4461 23.3099 4.44705 22.1005C4.44752 21.449 4.44733 20.7976 4.44537 20.1462C4.4182 10.563 4.4182 10.563 6.78691 7.57584C6.84717 7.49476 6.90744 7.41368 6.96953 7.33014C7.21435 7.04386 7.48457 6.81723 7.78372 6.59149C7.84064 6.54836 7.89757 6.50522 7.95621 6.46078C9.9389 4.98444 12.1508 4.47252 14.5558 4.18046C14.6583 4.16771 14.7607 4.15496 14.8663 4.14182C16.8125 3.90029 18.759 3.72312 20.7163 3.60262C20.9324 3.58917 21.1485 3.57505 21.3646 3.56071C22.5187 3.48505 23.6735 3.43438 24.8292 3.38924C24.9404 3.38476 25.0517 3.38029 25.1663 3.37568C33.3584 3.04953 41.6222 2.98784 53.2777 3.45188Z" fill="#F02C3E"/>
<path d="M121.003 84.4341C121.427 84.7933 121.706 85.257 122.006 85.7194C122.097 85.8589 122.097 85.8589 122.19 86.0012C123.825 88.5139 123.825 88.5139 123.713 89.6132C123.409 90.8989 122.377 91.6135 121.32 92.2807C121.088 92.4233 120.856 92.5638 120.623 92.7033C120.544 92.7503 120.466 92.7974 120.385 92.8458C118.426 94.0084 116.391 95.0351 114.343 96.0302C114.227 96.0866 114.112 96.143 113.993 96.2011C113.886 96.2524 113.78 96.3036 113.67 96.3565C113.576 96.4019 113.482 96.4473 113.385 96.4941C113.147 96.5909 113.147 96.5909 112.847 96.5909C113.004 96.1042 113.286 95.7496 113.595 95.3511C113.705 95.2077 113.814 95.0641 113.923 94.9205C114.005 94.8132 114.005 94.8132 114.088 94.7039C114.307 94.4126 114.519 94.1162 114.729 93.8185C115.124 93.2615 115.526 92.7105 115.931 92.1613C115.991 92.0812 116.05 92.0011 116.111 91.9185C116.228 91.7589 116.346 91.5993 116.464 91.4397C116.725 91.0866 116.986 90.7332 117.246 90.3795C117.289 90.3205 117.333 90.2616 117.378 90.2008C117.915 89.5131 117.915 89.5131 118.23 88.7161C116.085 88.8015 114.008 89.2012 111.906 89.607C111.459 89.693 111.011 89.7757 110.563 89.857C110.24 89.916 109.916 89.9767 109.593 90.0379C109.442 90.066 109.292 90.0935 109.141 90.1204C108.934 90.1575 108.728 90.1971 108.521 90.2374C108.348 90.2697 108.348 90.2697 108.171 90.3027C107.553 90.5198 107.235 91.0694 106.885 91.5944C106.788 91.738 106.691 91.8815 106.594 92.025C106.515 92.1409 106.515 92.1409 106.435 92.2591C106.135 92.7007 105.827 93.1377 105.521 93.5755C104.823 94.576 104.137 95.584 103.453 96.5941C103.374 96.7101 103.296 96.8261 103.217 96.9421C103.18 96.998 103.142 97.054 103.103 97.1116C102.697 97.7107 102.287 98.307 101.876 98.9026C101.744 99.0946 101.613 99.2877 101.484 99.4816C101.592 99.4471 101.592 99.4471 101.702 99.4119C106.647 97.9099 106.647 97.9099 108.331 98.6904C108.984 99.0869 109.401 99.5894 109.611 100.328C109.779 101.221 109.689 102.063 109.259 102.871C109.046 103.101 109.046 103.101 108.86 103.27C108.822 103.176 108.822 103.176 108.783 103.081C108.61 102.783 108.383 102.713 108.061 102.618C107.697 102.561 107.35 102.572 106.984 102.596C106.91 102.601 106.835 102.605 106.759 102.61C105.974 102.668 105.213 102.806 104.443 102.964C104.369 102.979 104.295 102.994 104.219 103.01C103.816 103.091 103.413 103.175 103.01 103.259C102.64 103.337 102.27 103.412 101.899 103.485C101.399 103.585 100.899 103.688 100.401 103.794C100.206 103.834 100.012 103.874 99.817 103.912C98.6169 104.099 98.6169 104.099 97.6648 104.775C97.5706 104.935 97.4814 105.098 97.3969 105.263C97.2799 105.445 97.1621 105.627 97.0438 105.808C95.7996 107.844 94.6711 109.908 94.1075 112.241C94.0824 112.343 94.0573 112.446 94.0315 112.552C93.8681 113.333 93.8463 114.137 93.8084 114.932C98.8796 114.547 104.065 111.554 108.428 109.095C108.507 109.05 108.586 109.006 108.667 108.96C108.768 108.903 108.768 108.903 108.87 108.845C109.06 108.752 109.06 108.752 109.262 108.723C109.475 108.672 109.475 108.672 109.547 108.47C109.567 108.39 109.586 108.311 109.605 108.229C109.711 107.827 109.828 107.434 109.962 107.041C109.999 106.932 110.037 106.822 110.075 106.709C110.114 106.595 110.153 106.48 110.194 106.362C110.257 106.177 110.32 105.992 110.382 105.808C110.492 105.487 110.601 105.166 110.711 104.846C110.883 104.34 111.056 103.834 111.228 103.328C111.268 103.212 111.307 103.097 111.348 102.978C111.776 101.718 112.172 100.495 111.58 99.2091C111.371 98.8414 111.125 98.5097 110.854 98.1858C112.491 98.5333 115.214 99.1442 116.274 100.553C116.67 101.346 116.595 102.131 116.343 102.963C115.803 104.514 114.987 105.954 114.228 107.406C113.927 107.984 113.635 108.567 113.346 109.151C113.944 108.448 114.515 107.734 115.065 106.993C115.455 106.469 115.853 105.952 116.255 105.438C116.709 104.856 117.157 104.272 117.598 103.681C118.357 102.667 119.127 101.662 119.925 100.678C119.993 100.591 120.062 100.503 120.132 100.413C120.403 100.082 120.618 99.9088 121.051 99.8484C121.651 99.8211 122.04 99.9176 122.517 100.279C122.58 100.324 122.642 100.368 122.707 100.414C123.143 100.748 123.313 101.029 123.414 101.575C123.433 101.905 123.419 102.23 123.401 102.56C123.396 102.658 123.392 102.756 123.387 102.858C123.307 104.224 123.121 105.58 122.943 106.936C122.896 107.298 122.85 107.659 122.804 108.021C122.736 108.55 122.668 109.079 122.599 109.607C122.578 109.775 122.578 109.775 122.556 109.946C122.532 110.129 122.508 110.312 122.484 110.495C122.441 110.824 122.404 111.147 122.404 111.479C122.403 111.587 122.403 111.587 122.403 111.698C122.404 111.77 122.404 111.842 122.404 111.917C122.404 111.991 122.404 112.065 122.403 112.141C122.404 112.49 122.423 112.802 122.517 113.138C123.364 112.701 124.087 111.829 124.61 111.045C124.655 110.79 124.655 110.79 124.674 110.5C124.683 110.391 124.693 110.281 124.703 110.168C124.719 109.991 124.719 109.991 124.734 109.811C125.061 106.596 126.333 103.871 128.597 101.575C128.684 101.487 128.771 101.398 128.861 101.307C129.539 100.655 130.256 100.202 131.089 99.7807C131.18 99.734 131.271 99.6874 131.364 99.6393C132.034 99.3312 132.6 99.3069 133.296 99.5587C134.357 100.081 135.253 101.04 136.092 101.855C136.146 101.907 136.2 101.958 136.255 102.011C136.614 102.368 136.797 102.694 136.97 103.17C138.369 100.859 138.369 100.859 138.565 98.2855C139.53 98.6031 140.363 98.9245 140.958 99.7807C141.31 100.537 141.191 101.225 140.958 101.992C140.936 102.065 140.914 102.137 140.892 102.212C140.55 103.343 140.179 104.465 139.811 105.587C139.752 105.767 139.752 105.767 139.692 105.95C139.18 107.514 138.658 109.075 138.11 110.627C138.083 110.705 138.056 110.783 138.027 110.863C137.593 112.092 137.593 112.092 137.469 112.34C138.007 112.028 138.543 111.713 139.076 111.392C139.421 111.184 139.766 110.988 140.126 110.807C140.796 110.458 140.796 110.458 141.238 109.868C141.322 109.569 141.367 109.271 141.408 108.963C141.532 108.039 141.811 107.189 142.11 106.31C142.136 106.232 142.163 106.154 142.19 106.074C143.045 103.563 144.051 101.152 145.244 98.7839C145.294 98.6828 145.345 98.5817 145.397 98.4776C146.599 96.0791 147.98 93.7959 149.53 91.6068C149.586 91.5279 149.641 91.4489 149.699 91.3676C150.859 89.7247 152.078 88.1236 153.418 86.6228C153.474 86.5599 153.53 86.4971 153.587 86.4323C156.163 83.5618 156.163 83.5618 157.634 83.4092C157.715 83.4068 157.795 83.4044 157.878 83.4018C157.958 83.3981 158.038 83.3944 158.12 83.3905C158.85 83.5005 159.448 83.987 160.022 84.4236C160.091 84.4746 160.16 84.5257 160.231 84.5784C160.697 84.9297 161.102 85.2546 161.292 85.8253C161.359 86.7208 161.242 87.5245 161.006 88.3859C160.959 88.5594 160.959 88.5594 160.912 88.7365C159.223 94.8081 155.498 100.012 151.092 104.418C150.925 104.584 150.76 104.752 150.594 104.92C149.938 105.579 149.263 106.18 148.533 106.758C148.425 106.85 148.317 106.943 148.209 107.037C147.496 107.658 146.752 108.222 145.977 108.766C145.278 109.267 145.032 109.711 144.783 110.534C144.75 110.636 144.75 110.636 144.717 110.74C144.584 111.173 144.499 111.591 144.446 112.041C145.063 111.779 145.491 111.443 145.979 110.986C146.234 110.752 146.495 110.533 146.764 110.316C147.194 109.968 147.616 109.612 148.035 109.25C148.444 108.898 148.855 108.55 149.275 108.21C149.841 107.75 150.392 107.271 150.942 106.791C151.19 106.576 151.438 106.362 151.688 106.149C151.747 106.099 151.805 106.049 151.866 105.998C151.982 105.899 152.099 105.8 152.215 105.7C152.544 105.42 152.863 105.132 153.177 104.835C154.791 103.315 154.791 103.315 155.629 103.132C156.434 103.212 157.162 103.674 157.704 104.266C157.992 104.754 157.952 105.27 157.816 105.808C157.776 105.928 157.735 106.049 157.693 106.173C157.67 106.24 157.648 106.307 157.625 106.377C157.552 106.597 157.477 106.816 157.402 107.035C157.35 107.188 157.299 107.342 157.248 107.495C157.113 107.896 156.977 108.298 156.841 108.699C156.701 109.109 156.564 109.519 156.426 109.93C156.155 110.734 155.883 111.537 155.611 112.34C156.356 111.844 156.981 111.185 157.61 110.552C157.687 110.477 157.763 110.401 157.841 110.323C158.315 109.849 158.764 109.361 159.199 108.852C159.299 108.737 159.398 108.622 159.497 108.507C159.646 108.335 159.793 108.163 159.939 107.989C160.174 107.711 160.408 107.444 160.665 107.185C161.264 106.559 161.376 106.074 161.433 105.24C161.551 103.522 162.556 102.015 163.74 100.824C163.883 100.679 164.022 100.532 164.161 100.383C166.157 98.2749 169.118 96.2758 172.097 96.0765C172.662 96.1035 172.975 96.4105 173.354 96.7902C173.606 97.0911 173.836 97.4056 174.064 97.7248C174.123 97.8057 174.183 97.8867 174.244 97.9701C175.416 99.5845 175.416 99.5845 175.347 100.379C175.055 101.426 174.057 101.937 173.176 102.446C171.508 103.369 171.508 103.369 170.762 103.369C170.936 102.965 171.203 102.641 171.472 102.298C171.519 102.238 171.566 102.178 171.614 102.116C171.728 101.968 171.843 101.822 171.958 101.675C169.958 102.051 167.902 103.129 166.376 104.466C166.26 104.561 166.26 104.561 166.141 104.658C165.535 105.165 165.037 105.748 164.682 106.459C164.765 106.466 164.848 106.473 164.934 106.48C165.323 106.514 165.713 106.548 166.102 106.584C166.172 106.59 166.242 106.597 166.315 106.603C167.276 106.693 168.22 106.814 169.161 107.039C169.986 107.231 170.503 107.017 171.227 106.647C171.311 106.605 171.394 106.563 171.479 106.52C171.745 106.386 172.011 106.252 172.276 106.117C172.449 106.029 172.623 105.942 172.796 105.855C173.737 105.381 174.674 104.899 175.602 104.4C176.027 104.174 176.454 103.97 176.899 103.785C178.036 103.279 178.365 102.256 178.814 101.165C178.989 100.753 179.192 100.361 179.403 99.9676C179.443 99.8932 179.482 99.8188 179.523 99.7422C179.659 99.4887 179.796 99.2359 179.933 98.9832C179.991 98.8766 180.048 98.7699 180.108 98.66C181.037 96.9471 181.999 95.259 183.023 93.6005C183.082 93.5042 183.142 93.408 183.203 93.3088C184.355 91.4496 185.605 89.6948 187.01 88.0183C187.085 87.929 187.085 87.929 187.161 87.8378C190.438 83.9199 190.438 83.9199 192.194 83.732C193.655 83.6739 194.665 84.5926 195.696 85.5185C196.24 86.035 196.549 86.5673 196.6 87.3237C196.638 90.1648 194.94 92.4013 193.091 94.3979C193 94.4988 192.909 94.5997 192.819 94.7008C192.372 95.1985 191.923 95.6796 191.41 96.11C191.196 96.2924 190.991 96.4825 190.786 96.6747C190.152 97.2674 189.487 97.8063 188.799 98.3345C188.593 98.4942 188.388 98.6561 188.184 98.8185C187.441 99.4069 186.691 99.9758 185.907 100.51C185.831 100.562 185.754 100.615 185.675 100.669C185.221 100.978 184.761 101.273 184.292 101.561C182.896 102.434 181.989 103.266 181.179 104.702C180.981 105.048 180.766 105.38 180.549 105.714C179.628 107.141 178.847 108.605 178.139 110.148C178.507 109.974 178.762 109.76 179.061 109.481C179.137 109.41 179.137 109.41 179.215 109.337C179.327 109.233 179.439 109.128 179.55 109.023C179.746 108.84 179.942 108.657 180.138 108.475C180.754 107.901 181.365 107.326 181.955 106.726C182.135 106.55 182.321 106.386 182.512 106.223C182.83 105.949 183.127 105.661 183.422 105.363C183.763 105.018 184.111 104.691 184.48 104.377C184.743 104.144 184.996 103.903 185.251 103.661C187.143 101.865 187.143 101.865 187.968 101.843C188.704 101.938 189.424 102.201 190.001 102.671C190.295 103.113 190.263 103.447 190.2 103.967C190.079 104.525 189.91 105.07 189.746 105.615C189.606 106.08 189.471 106.546 189.335 107.012C189.307 107.107 189.28 107.202 189.251 107.3C188.993 108.185 188.748 109.073 188.513 109.964C188.471 110.121 188.429 110.277 188.387 110.434C187.691 112.68 187.691 112.68 187.814 114.945C187.998 115.161 187.998 115.161 188.299 115.165C188.829 115.149 189.316 114.961 189.814 114.789C189.919 114.753 190.024 114.717 190.132 114.681C191.856 114.083 193.511 113.327 195.116 112.461C195.204 112.421 195.292 112.382 195.383 112.34C195.449 112.373 195.515 112.406 195.583 112.44C194.921 113.184 194.25 113.888 193.489 114.533C193.41 114.602 193.41 114.602 193.329 114.672C192.483 115.401 191.594 116.053 190.667 116.677C190.569 116.743 190.47 116.81 190.368 116.879C189.026 117.767 187.473 118.461 185.828 118.171C184.839 117.956 184.05 117.534 183.422 116.726C182.813 115.723 182.586 114.793 182.593 113.63C182.594 113.539 182.594 113.448 182.595 113.354C182.628 111.368 183.33 109.596 184.138 107.811C184.263 107.535 184.387 107.259 184.51 106.983C184.552 106.892 184.552 106.892 184.595 106.798C184.791 106.359 184.91 105.93 185.017 105.462C184.503 105.966 184 106.471 183.532 107.018C183.237 107.354 182.93 107.678 182.624 108.004C182.208 108.449 181.795 108.894 181.398 109.356C181.184 109.601 180.963 109.84 180.743 110.079C180.419 110.434 180.108 110.794 179.808 111.169C179.43 111.636 179.036 112.085 178.631 112.527C178.546 112.622 178.546 112.622 178.46 112.718C177.979 113.237 177.477 113.674 176.768 113.805C176.093 113.759 175.369 113.38 174.919 112.887C174.525 112.312 174.56 111.615 174.65 110.945C175.111 108.867 176.153 106.786 177.042 104.864C175.288 105.757 173.547 106.664 171.843 107.65C171.717 107.722 171.59 107.79 171.46 107.855C171.518 107.901 171.576 107.947 171.635 107.994C172.284 108.536 172.904 109.183 173.055 110.048C173.148 111.176 172.954 112.047 172.238 112.933C170.03 115.451 166.265 117.072 162.94 117.345C161.54 117.375 160.142 116.977 159.112 116.004C158.536 115.381 157.875 114.533 157.903 113.636C158.132 113.09 158.534 112.922 159.039 112.673C159.123 112.631 159.206 112.588 159.293 112.544C159.56 112.409 159.828 112.275 160.096 112.141C160.267 112.055 160.437 111.969 160.607 111.882C161.125 111.62 161.645 111.36 162.165 111.101C162.256 111.055 162.347 111.009 162.442 110.962C163.566 110.401 164.692 109.845 165.828 109.307C166.749 108.871 167.659 108.414 168.569 107.955C168.339 107.839 168.214 107.844 167.958 107.848C167.872 107.849 167.787 107.85 167.699 107.851C167.56 107.853 167.56 107.853 167.418 107.856C167.221 107.857 167.023 107.859 166.826 107.861C166.516 107.864 166.205 107.867 165.895 107.872C164.473 107.892 163.248 107.82 161.891 107.356C161.819 107.44 161.748 107.523 161.674 107.609C161.134 108.241 160.592 108.872 160.046 109.5C159.245 110.423 158.449 111.35 157.66 112.284C157.099 112.949 156.532 113.607 155.959 114.262C155.822 114.42 155.685 114.58 155.55 114.739C155.435 114.872 155.435 114.872 155.318 115.007C155.253 115.083 155.189 115.158 155.122 115.236C154.588 115.733 154.071 115.788 153.369 115.771C152.534 115.672 151.565 115.299 150.926 114.733C150.536 114.171 150.545 113.703 150.627 113.038C150.758 112.457 150.964 111.898 151.162 111.337C151.217 111.18 151.271 111.022 151.325 110.864C151.799 109.487 152.3 108.119 152.82 106.758C152.369 107.1 151.976 107.488 151.577 107.888C151.471 107.993 151.471 107.993 151.363 108.101C151.214 108.25 151.065 108.4 150.916 108.549C150.691 108.775 150.464 109.001 150.238 109.227C150.093 109.372 149.947 109.518 149.802 109.663C149.702 109.763 149.702 109.763 149.599 109.865C149.216 110.251 148.851 110.647 148.496 111.059C148.133 111.474 147.74 111.861 147.351 112.251C147.2 112.403 147.051 112.555 146.901 112.708C145.365 114.261 145.365 114.261 144.278 114.371C143.388 114.343 142.568 113.86 141.954 113.238C141.683 112.857 141.465 112.458 141.257 112.041C141.197 112.079 141.138 112.116 141.077 112.155C140.895 112.269 140.714 112.383 140.533 112.497C140.318 112.631 140.105 112.767 139.892 112.904C139.34 113.255 138.801 113.575 138.207 113.85C136.342 114.747 135.77 115.948 135.037 117.785C134.767 118.461 134.451 119.104 134.111 119.748C134.032 119.897 134.032 119.897 133.953 120.049C133.154 121.55 132.271 122.99 131.189 124.302C131.147 124.354 131.105 124.406 131.062 124.459C129.954 125.831 128.729 127.052 127.301 128.09C127.247 128.13 127.193 128.17 127.138 128.211C124.305 130.291 120.675 131.923 117.095 131.448C116.289 131.302 115.511 131.067 114.841 130.582C114.765 130.527 114.688 130.472 114.609 130.415C113.902 129.85 113.53 129.141 113.246 128.289C113.179 127.38 113.206 126.613 113.645 125.797C113.686 125.716 113.727 125.634 113.77 125.55C115.509 122.363 120.278 120.817 123.428 119.4C124.621 118.863 125.804 118.307 126.986 117.746C127.134 117.676 127.282 117.605 127.431 117.535C127.503 117.501 127.575 117.466 127.65 117.431C128.144 117.197 128.639 116.966 129.134 116.737C129.2 116.707 129.266 116.676 129.333 116.645C129.64 116.503 129.946 116.362 130.253 116.221C130.413 116.148 130.413 116.148 130.576 116.073C130.714 116.009 130.714 116.009 130.856 115.944C131.357 115.697 131.473 115.489 131.679 114.978C131.705 114.914 131.731 114.85 131.758 114.785C131.841 114.581 131.923 114.376 132.005 114.172C132.061 114.034 132.117 113.895 132.174 113.757C132.312 113.418 132.448 113.079 132.584 112.739C132.241 112.902 131.997 113.096 131.712 113.35C130.595 114.276 129.315 114.877 127.849 114.826C126.966 114.738 126.232 114.361 125.607 113.736C125.425 113.478 125.262 113.213 125.108 112.939C124.692 113.336 124.338 113.766 123.981 114.216C123.167 115.224 122.484 116.006 121.221 116.427C120.197 116.525 119.208 116.369 118.386 115.717C117.553 114.906 117.314 113.794 117.295 112.67C117.299 110.638 117.685 108.721 118.202 106.762C118.231 106.65 118.261 106.538 118.291 106.423C118.318 106.324 118.344 106.225 118.372 106.123C118.444 105.841 118.444 105.841 118.43 105.462C118.179 105.769 117.928 106.075 117.678 106.382C117.578 106.503 117.478 106.625 117.379 106.747C116.736 107.532 116.101 108.323 115.485 109.13C115.09 109.648 114.685 110.158 114.282 110.669C114.098 110.902 113.915 111.136 113.732 111.369C113.641 111.485 113.55 111.601 113.458 111.717C113.227 112.011 112.996 112.305 112.766 112.6C112.538 112.891 112.309 113.182 112.08 113.472C111.995 113.58 111.91 113.689 111.825 113.797C110.891 114.995 110.891 114.995 110.156 115.225C109.533 115.238 109.099 114.842 108.661 114.434C108.183 113.758 108.198 113.045 108.262 112.241C108.36 111.733 108.508 111.239 108.661 110.746C108.586 110.801 108.51 110.857 108.433 110.915C107.347 111.709 106.212 112.424 105.072 113.138C104.986 113.192 104.9 113.247 104.811 113.303C103.449 114.161 102.063 114.971 100.665 115.769C100.436 115.901 100.209 116.035 99.9828 116.173C97.7166 117.534 94.8962 118.416 92.2571 117.761C90.82 117.367 89.6455 116.529 88.8777 115.242C87.8747 113.213 87.9041 110.976 88.5884 108.855C89.0492 107.515 89.7575 106.255 90.5189 105.064C90.449 105.048 90.3791 105.032 90.3071 105.016C89.2134 104.747 88.4917 104.295 87.8276 103.369C87.3234 102.446 87.1955 101.416 87.2295 100.379C87.3652 100.514 87.3652 100.514 87.5036 100.653C88.8613 101.807 91.048 101.604 92.7119 101.575C92.7357 101.507 92.7595 101.438 92.784 101.368C92.9371 101.017 93.1386 100.712 93.3536 100.397C93.3977 100.332 93.4418 100.267 93.4873 100.2C93.5805 100.062 93.674 99.9246 93.7677 99.7872C93.9019 99.5904 94.0353 99.393 94.1686 99.1954C95.2693 97.5714 96.4375 96.0027 97.696 94.4976C97.7476 94.4355 97.7993 94.3734 97.8526 94.3095C98.4976 93.5367 99.1623 92.803 99.889 92.1052C99.2083 92.1639 98.541 92.2568 97.8689 92.3786C97.6731 92.4132 97.4774 92.4479 97.2817 92.4825C96.9799 92.5364 96.6782 92.5905 96.3766 92.6446C92.3686 93.3616 92.3686 93.3616 90.8118 93.3388C90.7071 93.3378 90.6024 93.3368 90.4945 93.3357C89.0613 93.307 87.7282 92.9941 86.6438 91.9931C85.5999 90.8641 85.313 89.4882 85.3044 87.9996C85.3038 87.9073 85.3033 87.8149 85.3027 87.7197C85.3089 87.1273 85.3877 86.5987 85.5349 86.0247C85.622 86.0752 85.622 86.0752 85.7109 86.1267C85.7926 86.1712 85.8743 86.2156 85.9585 86.2614C86.0372 86.3054 86.1158 86.3493 86.1968 86.3946C87.4092 86.8598 88.7678 86.7622 90.0455 86.7598C90.1568 86.7598 90.2682 86.7597 90.383 86.7597C92.8028 86.7543 95.1911 86.5756 97.5963 86.3237C97.7965 86.3032 97.9967 86.2827 98.1969 86.2622C103.949 85.6675 109.667 84.7767 115.365 83.7967C119.212 83.1367 119.212 83.1367 121.003 84.4341ZM158.75 87.8334C158.323 88.2732 157.933 88.7357 157.549 89.2129C157.337 89.4742 157.121 89.731 156.902 89.9866C156.368 90.6111 155.858 91.2517 155.362 91.9072C155.188 92.1365 155.013 92.3646 154.837 92.5927C152.685 95.3926 150.699 98.317 148.932 101.376C148.887 101.454 148.841 101.532 148.795 101.613C148.266 102.534 147.77 103.473 147.277 104.413C147.214 104.534 147.15 104.655 147.086 104.776C146.997 104.946 146.908 105.116 146.82 105.287C146.768 105.386 146.716 105.484 146.663 105.586C146.546 105.847 146.483 106.077 146.44 106.36C146.987 105.966 147.491 105.547 147.979 105.082C148.046 105.019 148.114 104.955 148.183 104.889C148.707 104.391 149.223 103.885 149.736 103.375C149.804 103.307 149.873 103.239 149.944 103.169C150.334 102.777 150.706 102.375 151.067 101.957C151.276 101.715 151.493 101.48 151.711 101.245C152.113 100.803 152.499 100.351 152.873 99.8846C153.051 99.6646 153.231 99.4473 153.414 99.2313C155.924 96.2408 157.874 92.7042 159 88.9653C159.021 88.8967 159.041 88.8281 159.063 88.7574C159.164 88.4029 159.222 88.0882 159.199 87.7193C158.908 87.6891 158.908 87.6891 158.75 87.8334ZM193.608 88.7502C193.548 88.8119 193.487 88.8736 193.425 88.9373C193.324 89.0398 193.324 89.0398 193.221 89.1444C193.151 89.2169 193.081 89.2893 193.01 89.364C192.941 89.4334 192.873 89.5028 192.802 89.5743C192.349 90.0375 191.918 90.5174 191.496 91.0087C191.392 91.1286 191.287 91.2484 191.183 91.3681C190.245 92.4469 189.31 93.5244 188.433 94.6525C188.077 95.1088 187.713 95.5576 187.347 96.0053C186.865 96.5951 186.398 97.1924 185.947 97.8063C185.783 98.0289 185.616 98.2498 185.449 98.4708C185.319 98.6437 185.19 98.8166 185.06 98.9895C184.997 99.0726 184.934 99.1558 184.869 99.2415C184.811 99.3199 184.752 99.3982 184.692 99.4789C184.639 99.5491 184.587 99.6192 184.532 99.6915C184.393 99.8863 184.393 99.8863 184.418 100.179C185.452 99.3886 186.466 98.5847 187.445 97.7283C187.6 97.5945 187.758 97.4643 187.917 97.335C188.752 96.6507 189.517 95.9001 190.281 95.1393C190.334 95.0864 190.388 95.0335 190.443 94.9789C191.14 94.2873 191.785 93.5758 192.393 92.803C192.478 92.6987 192.563 92.5945 192.649 92.4903C193.373 91.5652 194.367 90.1529 194.25 88.9217C194.219 88.7706 194.219 88.7706 194.187 88.6164C193.804 88.5769 193.804 88.5769 193.608 88.7502ZM132.285 104.665C132.182 104.756 132.079 104.847 131.976 104.938C131.407 105.445 130.874 105.967 130.391 106.559C130.302 106.665 130.212 106.771 130.122 106.877C128.976 108.25 127.448 110.118 127.553 112.009C127.592 112.269 127.592 112.269 127.8 112.559C128.189 112.794 128.461 112.837 128.896 112.739C130.754 112.095 132.31 110.249 133.481 108.752C133.563 108.65 133.644 108.549 133.727 108.444C135.008 106.913 135.008 106.913 135.575 105.064C135.581 104.969 135.581 104.969 135.587 104.873C135.599 104.658 135.606 104.444 135.612 104.229C135.616 104.126 135.616 104.126 135.62 104.02C135.621 103.684 135.596 103.498 135.398 103.222C134.512 102.616 132.906 104.106 132.285 104.665ZM169.696 108.709C169.601 108.765 169.506 108.821 169.409 108.878C169.307 108.939 169.204 109 169.099 109.063C168.88 109.193 168.66 109.323 168.441 109.452C168.273 109.552 168.273 109.552 168.102 109.653C167.702 109.889 167.301 110.122 166.9 110.355C166.392 110.65 165.886 110.947 165.379 111.244C165.316 111.281 165.252 111.318 165.187 111.357C164.773 111.6 164.359 111.843 163.945 112.089C163.81 112.169 163.674 112.249 163.538 112.329C163.347 112.44 163.158 112.553 162.969 112.666C162.859 112.73 162.75 112.795 162.637 112.862C162.362 113.021 162.362 113.021 162.289 113.337C162.843 113.282 163.35 113.18 163.878 113.001C163.991 112.963 163.991 112.963 164.107 112.923C167.731 111.689 167.731 111.689 170.563 109.25C170.6 108.929 170.608 108.742 170.463 108.453C170.113 108.453 169.993 108.532 169.696 108.709ZM129.155 118.596C129.09 118.625 129.024 118.654 128.957 118.684C128.814 118.748 128.672 118.811 128.529 118.875C128.145 119.047 127.759 119.218 127.374 119.389C127.294 119.424 127.214 119.46 127.132 119.496C126.364 119.836 125.591 120.166 124.818 120.495C123.375 121.109 121.939 121.735 120.523 122.408C120.433 122.451 120.344 122.493 120.252 122.537C119.164 123.057 118.121 123.608 117.134 124.302C117.042 124.366 116.95 124.431 116.855 124.497C116.104 125.057 115.435 125.789 115.14 126.695C115.057 127.288 115.115 127.797 115.412 128.32C115.681 128.677 116.021 128.849 116.436 128.987C119.307 129.229 122.12 127.45 124.247 125.683C124.435 125.523 124.623 125.362 124.809 125.199C124.867 125.149 124.925 125.1 124.984 125.048C126.714 123.545 128.002 121.728 129.208 119.792C129.291 119.658 129.291 119.658 129.376 119.522C129.453 119.396 129.453 119.396 129.532 119.267C129.578 119.192 129.624 119.118 129.671 119.042C129.8 118.808 129.898 118.571 129.993 118.321C129.68 118.321 129.44 118.469 129.155 118.596Z" fill="#003258"/>
<path d="M125.706 46.9498C126.824 47.3806 127.932 47.8361 129.028 48.3176C129.155 48.3729 129.282 48.4278 129.409 48.482C130.365 48.892 131.287 49.3277 131.719 50.3304C132.039 51.3087 131.811 52.2798 131.488 53.2297C131.668 53.1856 131.668 53.1856 131.852 53.1405C139.793 51.2009 148.213 49.1609 158.9 50.339C160.14 51.0994 160.827 52.2915 161.174 53.6783C161.391 54.79 161.384 56.0004 161.193 57.1173C160.779 57.5315 160.056 57.4407 159.498 57.4475C159.384 57.4518 159.384 57.4518 159.268 57.4562C157.986 57.4699 156.833 56.92 155.698 56.3821C153.708 55.4612 151.639 54.8064 149.43 54.7249C149.359 54.7222 149.287 54.7195 149.214 54.7167C144.524 54.5659 139.77 55.4753 135.2 56.4158C134.498 56.5588 133.796 56.6867 133.09 56.8056C132.608 56.8884 132.128 56.9793 131.648 57.0718C131.42 57.1139 131.192 57.1527 130.963 57.1878C129.962 57.3429 129.094 57.4849 128.459 58.3327C128.149 58.8109 127.89 59.3078 127.644 59.8214C127.416 60.2772 127.141 60.7014 126.865 61.1295C126.093 62.3719 125.348 63.6297 124.61 64.8924C124.576 64.95 124.542 65.0076 124.508 65.067C121.844 69.1574 121.844 69.1574 120.704 73.7453C120.704 73.8344 120.705 73.9234 120.706 74.0152C120.721 74.2432 120.758 74.4423 120.822 74.6612C121.507 74.6074 121.81 74.4046 122.254 73.8886C122.338 73.7811 122.421 73.6731 122.504 73.5647C122.551 73.5047 122.597 73.4447 122.645 73.3829C123.553 72.2038 124.439 71.0076 125.32 69.8079C125.921 68.9894 126.534 68.1806 127.154 67.3761C127.291 67.1978 127.428 67.0192 127.565 66.8405C129.287 64.5935 131.044 62.3719 132.983 60.3071C133.059 60.2248 133.134 60.1426 133.212 60.0579C133.947 59.2856 134.824 58.5818 135.918 58.4813C136.901 58.5688 138.075 59.3235 138.705 60.0746C139.033 60.5459 139.104 60.9359 139.064 61.5033C138.966 61.7544 138.867 61.9724 138.74 62.2073C138.705 62.2747 138.67 62.3421 138.634 62.4115C138.273 63.1003 137.895 63.7803 137.521 64.4617C137.185 65.0736 136.86 65.6894 136.547 66.3129C136.509 66.3883 136.47 66.4637 136.431 66.5414C136.24 66.8958 136.24 66.8958 136.173 67.2848C136.513 66.8038 136.853 66.3224 137.192 65.8408C137.363 65.5984 137.535 65.3564 137.707 65.1144C138.889 63.4427 140.011 61.7369 141.056 59.9761C142.127 58.1772 142.127 58.1772 142.851 57.8151C143.768 57.6917 144.459 58.0039 145.182 58.5502C145.657 59.0253 145.864 59.3845 145.904 60.0517C145.862 61.2079 145.248 62.298 144.786 63.3386C144.281 64.4878 143.944 65.6534 144.347 66.886C144.618 66.6144 144.71 66.2912 144.845 65.9391C146.084 62.8312 148.323 59.5159 151.449 58.1133C152.699 57.7027 154.513 58.5557 155.638 59.1039C155.988 59.3204 156.225 59.6418 156.408 60.008C156.492 60.7351 156.364 61.2703 156.009 61.902C155.938 62.0296 155.938 62.0296 155.866 62.1598C155.445 62.8662 154.927 63.4598 154.358 64.0474C154.22 64.1901 154.083 64.3345 153.946 64.4789C152.492 65.9846 150.421 67.5603 148.328 67.995C148.012 68.0902 147.942 68.1716 147.759 68.456C147.599 68.7917 147.465 69.1286 147.337 69.4777C147.303 69.5566 147.269 69.6355 147.234 69.7168C146.94 70.4495 146.899 71.2982 147.175 72.0383C147.331 72.2741 147.331 72.2741 147.536 72.4682C148.433 72.5758 149.016 72.1008 149.686 71.5773C150.327 71.0672 150.945 70.5307 151.562 69.9913C153.632 68.1819 153.632 68.1819 154.016 68.1819C154.022 68.127 154.028 68.0722 154.035 68.0156C154.47 65.0581 156.057 62.4261 158.103 60.3071C158.182 60.221 158.262 60.1349 158.344 60.0462C159.518 58.8128 161.101 57.6647 162.838 57.4786C164.315 57.5298 166.055 58.2701 167.109 59.3044C167.494 59.7855 167.601 60.2785 167.579 60.8865C167.324 62.5745 165.884 63.9202 164.582 64.8924C164.501 64.9573 164.42 65.0222 164.336 65.089C162.74 66.3264 160.192 67.6835 158.103 67.6835C158.075 67.7692 158.047 67.8549 158.019 67.9432C157.907 68.2706 157.783 68.5897 157.654 68.9108C157.342 69.7288 157.189 70.412 157.174 71.2907C157.173 71.3583 157.171 71.4258 157.169 71.4954C157.17 71.9593 157.257 72.276 157.505 72.6675C157.82 72.8775 157.928 72.9 158.29 72.8315C159.312 72.5209 160.168 71.7657 161 71.1222C161.175 70.987 161.35 70.853 161.527 70.7195C162.333 70.1065 163.119 69.47 163.902 68.8286C164.061 68.6988 164.22 68.5696 164.379 68.4404C165.422 67.5945 166.438 66.721 167.427 65.8133C167.645 65.6148 167.866 65.421 168.089 65.2288C168.153 65.1726 168.216 65.1163 168.281 65.0583C168.406 64.9484 168.534 64.8419 168.664 64.739C169.431 64.0779 169.771 63.1109 170.164 62.201C170.054 62.1648 170.054 62.1648 169.941 62.1278C169.63 61.9854 169.473 61.8337 169.248 61.578C169.147 61.4662 169.147 61.4662 169.045 61.3522C168.707 60.8784 168.64 60.4251 168.638 59.8523C168.636 59.7432 168.634 59.6341 168.633 59.5217C168.673 59.174 168.755 58.988 168.968 58.7122C169.116 58.6628 169.116 58.6628 169.267 58.6125C169.27 58.776 169.27 58.776 169.273 58.9427C169.328 59.3255 169.328 59.3255 169.628 59.4972C170.235 59.7052 170.924 59.6853 171.56 59.709C171.614 59.5282 171.614 59.5282 171.67 59.3438C171.886 58.6971 172.188 58.0926 172.482 57.4786C173.519 55.4771 173.519 55.4771 173.965 53.3142C173.965 53.2368 173.965 53.1594 173.966 53.0796C173.965 52.9996 173.965 52.9197 173.964 52.8372C173.965 52.7576 173.965 52.678 173.966 52.596C173.965 52.196 173.952 51.8258 173.852 51.4355C174.283 51.4949 174.658 51.5992 175.063 51.7567C175.179 51.8018 175.295 51.8469 175.415 51.8933C175.597 51.9658 175.597 51.9658 175.784 52.0398C175.846 52.0645 175.908 52.0891 175.972 52.1145C179.109 53.3615 179.109 53.3615 179.621 54.5069C180.048 55.8417 179.416 57.0872 178.82 58.2582C178.774 58.3501 178.727 58.4419 178.679 58.5366C178.566 58.7614 178.452 58.9861 178.338 59.2106C184.625 58.6279 184.625 58.6279 190.898 57.9147C191.046 57.8962 191.194 57.8777 191.342 57.8592C191.458 57.8447 191.575 57.8301 191.695 57.8151C191.695 57.8808 191.695 57.9466 191.695 58.0144C189.502 59.0079 187.287 59.9023 185.017 60.7058C184.951 60.729 184.886 60.7522 184.819 60.7761C183.327 61.306 181.823 61.7768 180.294 62.1886C180.223 62.208 180.151 62.2274 180.078 62.2474C179.251 62.4704 178.454 62.6328 177.6 62.7166C176.67 62.7924 176.67 62.7924 175.93 63.3006C175.695 63.6497 175.533 64.0258 175.372 64.4128C175.153 64.9074 174.883 65.3749 174.622 65.8483C174.458 66.1491 174.298 66.4521 174.137 66.7552C174.105 66.816 174.073 66.8769 174.04 66.9395C173.472 68.0146 172.91 69.0928 172.357 70.1755C172.325 70.2386 172.293 70.3016 172.259 70.3666C172.056 70.7651 171.853 71.164 171.652 71.5635C171.587 71.6905 171.523 71.8174 171.459 71.9442C170.616 73.5771 170.616 73.5771 170.264 75.3589C170.762 75.3045 171.155 75.1401 171.591 74.9041C171.663 74.8656 171.734 74.8271 171.808 74.7874C173.505 73.8565 175.109 72.7465 176.696 71.6427C176.966 71.4553 177.236 71.2686 177.506 71.082C178.691 70.2622 179.866 69.4309 181.029 68.5806C181.104 68.526 181.179 68.4713 181.256 68.415C182.187 67.7358 183.109 67.0476 184.026 66.3502C184.11 66.2863 184.194 66.2223 184.281 66.1564C184.865 65.7103 185.441 65.2542 186.013 64.7927C186.079 64.8256 186.145 64.8585 186.213 64.8924C184.376 67.3812 182.391 69.7168 180.207 71.9075C180.16 71.9548 180.113 72.0021 180.064 72.0508C179.507 72.6109 178.943 73.1553 178.338 73.6643C178.278 73.7152 178.218 73.766 178.156 73.8184C176.547 75.1664 174.849 76.3635 173.055 77.4522C172.987 77.4933 172.92 77.5343 172.851 77.5766C171.587 78.3402 170.338 78.8892 168.836 78.5803C167.73 78.2706 166.947 77.7108 166.339 76.7334C165.344 74.9036 165.518 72.7133 166.077 70.7736C166.343 69.9116 166.707 69.0955 167.094 68.2823C167.131 68.2051 167.167 68.1278 167.205 68.0482C167.294 67.8601 167.383 67.6721 167.473 67.4841C167.402 67.555 167.331 67.6259 167.259 67.6989C166.59 68.3693 165.922 69.0395 165.253 69.7094C164.909 70.0538 164.565 70.3982 164.221 70.7429C163.889 71.0759 163.557 71.4088 163.225 71.7414C163.099 71.8679 162.972 71.9945 162.846 72.1211C161.575 73.3978 161.575 73.3978 160.894 73.9634C160.835 74.0121 160.776 74.0609 160.716 74.1111C160.561 74.2386 160.404 74.363 160.246 74.4867C160.194 74.5286 160.143 74.5705 160.09 74.6136C159.421 75.1362 158.764 75.3145 157.922 75.3028C157.843 75.302 157.765 75.3011 157.684 75.3001C156.538 75.2663 155.664 74.8284 154.813 74.0631C154.124 73.269 153.701 72.2169 153.707 71.1641C153.707 71.0713 153.708 70.9785 153.708 70.8828C153.709 70.7871 153.71 70.6915 153.71 70.5929C153.711 70.4953 153.711 70.3977 153.712 70.2972C153.713 70.0573 153.715 69.8173 153.717 69.5774C152.796 70.3952 151.969 71.2559 151.162 72.1878C150.379 73.0831 149.576 73.9589 148.33 74.0966C147.078 74.1121 145.957 73.7084 145.018 72.8634C144.181 71.9857 143.929 71.0217 143.936 69.8329C143.935 69.7593 143.935 69.6857 143.934 69.6099C143.935 69.1895 143.965 68.7954 144.048 68.3812C143.992 68.3666 143.937 68.352 143.879 68.3369C142.892 68.0465 142.131 67.4426 141.618 66.5473C140.889 65.0681 140.795 63.4103 141.057 61.8023C140.139 63.0504 139.333 64.3443 138.565 65.6899C138.522 65.7655 138.478 65.8411 138.434 65.919C137.345 67.823 136.346 69.7767 135.419 71.7642C135.39 71.826 135.361 71.8878 135.332 71.9515C135 72.6634 134.685 73.377 134.404 74.1108C134.266 74.3889 134.115 74.5594 133.88 74.7608C133.201 74.9503 132.574 74.6822 131.983 74.3586C131.151 73.8073 130.449 73.0485 130.132 72.0877C129.895 70.8011 130.203 69.5997 130.591 68.3812C130.62 68.2903 130.648 68.1994 130.678 68.1057C131.393 65.8897 132.386 63.8522 133.481 61.8023C132.415 62.6163 131.598 63.7327 130.79 64.7927C130.721 64.882 130.721 64.882 130.651 64.9732C128.995 67.1279 127.513 69.398 126.073 71.7015C123.439 75.9137 123.439 75.9137 121.819 76.4554C120.838 76.5871 120.169 76.3485 119.382 75.7814C118.535 75.0921 118.154 74.2394 118.031 73.1659C117.608 68.4054 120.804 62.6686 122.716 58.4131C122.622 58.3985 122.528 58.3838 122.431 58.3688C121.196 58.153 119.991 57.7916 119.227 56.7186C118.863 55.9879 118.863 55.256 119.102 54.4851C119.171 54.297 119.248 54.1119 119.327 53.9275C119.526 54.2265 119.526 54.2265 119.663 54.5754C119.823 54.9186 119.899 55.0463 120.224 55.2234C121.265 55.5602 122.486 55.2858 123.533 55.0894C123.912 55.024 123.912 55.024 124.311 55.024C124.348 54.9033 124.385 54.7827 124.423 54.6584C124.676 53.8992 125.028 53.1801 125.36 52.4535C126.036 50.9597 126.557 49.603 126.012 47.9778C125.958 47.8415 125.958 47.8415 125.903 47.7025C125.807 47.452 125.752 47.2136 125.706 46.9498ZM153.318 61.1045C151.627 62.4137 150.375 64.2718 149.131 65.9889C149.164 66.0547 149.197 66.1205 149.231 66.1883C150.635 65.4346 151.855 64.596 153.019 63.4969C153.09 63.4313 153.161 63.3658 153.234 63.2983C153.875 62.6853 154.494 61.9416 154.813 61.1045C154.794 60.8754 154.794 60.8754 154.714 60.7058C154.172 60.5106 153.774 60.818 153.318 61.1045ZM161.193 63.1605C160.218 64.1361 159.459 65.2806 158.8 66.4873C160.966 66.1918 162.711 64.9597 164.222 63.4565C164.363 63.3165 164.509 63.1799 164.654 63.044C165.195 62.5334 165.799 61.9283 165.914 61.1633C165.92 60.9227 165.92 60.9227 165.878 60.6061C164.036 60.6061 162.438 61.9511 161.193 63.1605Z" fill="#003258"/>
<path d="M120.025 0C120.244 0.360105 120.284 0.722598 120.324 1.13387C120.332 1.21416 120.34 1.29444 120.348 1.37716C121.083 9.33133 121.666 18.6987 117.805 31.4011C117.748 31.4664 117.691 31.5316 117.632 31.5989C117.579 31.66 117.526 31.7212 117.472 31.7842C116.473 32.8587 114.983 33.5257 113.518 33.6047C111.59 33.6653 109.756 33.5891 108.231 32.2593C108.073 32.1076 107.917 31.954 107.764 31.7982C107.67 31.7063 107.67 31.7063 107.575 31.6125C104.802 28.6898 104.736 23.7017 104.773 19.9362C104.702 20.0377 104.631 20.1392 104.557 20.2438C102.906 22.5909 101.212 24.9052 99.4664 27.183C99.3152 27.3805 99.1645 27.5783 99.014 27.7764C98.4572 28.5065 97.8823 29.2203 97.3011 29.9312C97.0559 30.2314 96.8145 30.5344 96.5745 30.8388C96.2383 31.2607 95.8824 31.6614 95.5185 32.0595C95.3239 32.2742 95.1359 32.493 94.9485 32.7141C93.8278 33.9883 92.407 34.7597 90.7183 34.988C89.2161 35.0766 87.9513 34.8284 86.7061 33.9663C85.6207 32.8809 85.3054 31.5945 85.3041 30.1099C85.3174 29.2343 85.4736 28.4449 85.7342 27.6116C85.7663 27.5073 85.7663 27.5073 85.7991 27.4008C87.8516 20.9315 92.4286 15.0632 96.3717 9.62311C96.5898 9.32209 96.8071 9.02044 97.0235 8.7182C97.5606 7.96918 98.1048 7.22775 98.6678 6.49796C99.0581 5.99072 99.4446 5.4817 99.8142 4.95913C99.8846 4.85993 99.955 4.76073 100.028 4.65853C100.185 4.39182 100.25 4.19237 100.288 3.88756C99.5787 4.03221 98.9155 4.18628 98.2648 4.50862C98.0947 4.58533 98.0947 4.58533 97.8953 4.58533C97.8953 4.51954 97.8953 4.45375 97.8953 4.38596C98.0417 4.24189 98.0417 4.24189 98.2442 4.07446C98.5399 3.82351 98.8199 3.56642 99.0915 3.28947C99.3386 3.03852 99.5893 2.80095 99.8578 2.57302C100.238 2.24764 100.585 1.8954 100.936 1.53883C102.236 0.222819 102.236 0.222819 103.114 0.184955C104.218 0.228715 105.242 0.68971 106.244 1.12141C106.347 1.1654 106.451 1.20938 106.558 1.2547C107.488 1.66715 108.447 2.11424 108.86 3.09011C109.037 3.89394 108.672 4.67915 108.258 5.35221C107.748 6.13224 107.154 6.84314 106.546 7.54811C106.116 8.05023 105.713 8.57472 105.307 9.09692C105.176 9.2648 105.044 9.43184 104.912 9.59858C103.735 11.0818 102.608 12.6007 101.525 14.1536C101.391 14.3448 101.255 14.5346 101.118 14.724C99.5822 16.8568 98.1547 19.0811 96.7988 21.3317C96.746 21.4192 96.6932 21.5067 96.6387 21.5968C95.2649 23.8776 93.8825 26.222 92.9113 28.7081C93.6213 28.2611 94.2632 27.7524 94.9049 27.2129C95.009 27.1264 95.113 27.04 95.2172 26.9536C96.4372 25.9363 97.585 24.8489 98.7059 23.7239C98.8813 23.548 99.0572 23.3726 99.2332 23.1973C99.8054 22.6254 100.363 22.0496 100.886 21.4314C100.99 21.3126 101.094 21.194 101.199 21.0755C101.921 20.2518 102.615 19.413 103.278 18.5407C103.334 18.4676 103.389 18.3946 103.447 18.3194C105.203 16.1272 105.203 16.1272 106.169 13.5566C107.608 13.0824 109.35 13.0348 110.742 13.6921C111.342 14.031 111.781 14.4041 112.05 15.0518C112.135 15.9446 112.002 16.8266 111.857 17.7058C111.642 19.0483 111.528 20.3519 111.527 21.7118C111.527 21.7839 111.527 21.8561 111.526 21.9305C111.53 24.2309 111.864 26.316 112.847 28.4091C112.859 28.3523 112.87 28.2955 112.882 28.2369C113.032 27.4959 113.188 26.7562 113.346 26.0167C113.38 25.8575 113.38 25.8575 113.414 25.6951C114.183 22.0992 115.28 18.5737 116.349 15.0581C117.765 10.4006 119.14 5.75643 119.873 0.93687C119.921 0.624102 119.972 0.311994 120.025 0Z" fill="#003258"/>
<path d="M115.296 40.5357C115.537 40.6691 115.781 40.7962 116.028 40.9215C120.109 43.0002 120.109 43.0002 120.775 45.0022C121.277 47.6999 119.605 50.5021 118.147 52.6546C116.665 54.8045 114.876 56.8813 112.816 58.5008C112.571 58.6943 112.334 58.8946 112.097 59.0984C111.279 59.8033 110.421 60.4553 109.558 61.1045C109.525 61.0058 109.492 60.9072 109.458 60.8055C109.596 60.5621 109.596 60.5621 109.813 60.251C112.309 56.5235 114.788 51.1608 114.642 46.5511C114.529 46.4165 114.529 46.4165 114.231 46.4265C111.626 46.4728 109.044 48.0031 106.966 49.4418C106.91 49.4811 106.853 49.5204 106.794 49.5609C105.546 50.428 104.343 51.3565 103.178 52.3326C103.101 52.3968 103.023 52.4611 102.942 52.5273C101.5 53.7549 100.167 55.5406 99.9485 57.4716C99.9261 58.2473 100.04 58.8168 100.456 59.4785C101.059 60.0816 101.78 60.3382 102.587 60.5687C102.698 60.6015 102.81 60.6342 102.926 60.668C104.334 61.0675 105.763 61.3866 107.19 61.7081C110.418 62.4392 113.881 63.4998 115.838 66.3876C116.483 67.5471 116.743 68.7294 116.417 70.0384C116.128 70.9758 115.666 71.7193 115.04 72.4682C114.995 72.5274 114.949 72.5866 114.901 72.6477C114.457 73.2045 113.906 73.6282 113.346 74.0631C113.263 74.1288 113.18 74.1946 113.094 74.2624C109.6 76.9291 104.98 78.0824 100.686 78.5487C100.511 78.5684 100.511 78.5684 100.332 78.5884C96.0116 78.9793 91.0931 78.4421 87.6208 75.614C85.427 73.6955 85.427 73.6955 85.3118 72.5262C85.2847 71.5176 85.6024 70.9471 86.2813 70.2168C89.4615 67.1602 93.908 65.4178 97.9803 63.9459C98.118 63.896 98.2556 63.8459 98.3931 63.7955C98.5849 63.7254 98.7771 63.6569 98.9696 63.5888C99.135 63.5295 99.135 63.5295 99.3037 63.4691C99.5872 63.3979 99.72 63.3935 99.9886 63.4969C99.8674 63.5892 99.8674 63.5892 99.7437 63.6834C98.752 64.4408 97.7785 65.2125 96.8569 66.0551C96.6501 66.2421 96.4408 66.4246 96.2296 66.6065C95.064 67.6247 93.947 68.7421 93.011 69.9761C92.9233 70.0873 92.8354 70.1982 92.7474 70.3091C92.0009 71.1408 92.0009 71.1408 91.7463 72.1567C91.7802 72.2615 91.7802 72.2615 91.8148 72.3685C92.3288 72.5378 92.7906 72.5973 93.333 72.5943C93.4107 72.5946 93.4884 72.5949 93.5685 72.5952C93.8208 72.5956 94.0731 72.5943 94.3255 72.5928C94.4123 72.5925 94.499 72.5921 94.5884 72.5918C99.64 72.5708 105.968 72.221 109.894 68.5993C110.501 67.9578 111.214 66.9809 111.264 66.0761C111.201 65.5874 111.096 65.266 110.754 64.8924C109.192 63.7565 107.243 63.4923 105.387 63.183C97.2536 61.8274 97.2536 61.8274 94.9727 59.0521C94.1105 57.8151 93.8644 56.5933 94.1137 55.1237C94.5741 52.8107 96.1044 50.8045 97.5963 49.0431C97.6439 48.9865 97.6915 48.9299 97.7406 48.8716C98.7662 47.6531 98.7662 47.6531 99.3356 47.104C99.5009 46.9392 99.6507 46.7663 99.8017 46.5885C100.642 45.6179 101.569 44.7497 102.58 43.9594C102.689 43.8717 102.798 43.7838 102.906 43.6958C104.271 42.5954 105.717 41.6901 107.265 40.8693C107.367 40.8149 107.367 40.8149 107.471 40.7594C110.343 39.2396 112.383 38.9008 115.296 40.5357Z" fill="#003258"/>
<path d="M149.007 0.573205C149.157 0.610983 149.157 0.610983 149.309 0.649524C150.098 0.85833 150.65 1.09908 151.125 1.7943C152.082 3.75798 151.073 6.73201 150.436 8.65812C149.064 12.6096 146.97 16.1938 144.347 19.4378C144.265 19.5387 144.184 19.6396 144.1 19.7435C143.47 20.5171 143.47 20.5171 143.299 20.6589C142.645 21.2547 142.691 22.1694 142.621 22.9952C142.606 23.1548 142.59 23.3144 142.574 23.4739C142.537 23.8551 142.503 24.2365 142.47 24.6181C142.455 24.7995 142.438 24.9808 142.421 25.1621C142.362 25.8193 142.332 26.4721 142.328 27.132C142.326 27.2236 142.324 27.3153 142.322 27.4098C142.318 28.0558 142.354 28.7669 142.8 29.2752C143.06 29.4997 143.281 29.545 143.623 29.5407C144.128 29.4622 144.587 29.2261 145.044 29.0072C145.145 28.9608 145.145 28.9608 145.247 28.9134C145.56 28.7423 145.639 28.6192 145.743 28.2776C145.875 27.6922 145.972 27.0996 146.073 26.5082C146.118 26.249 146.163 25.9898 146.209 25.7306C146.226 25.6303 146.226 25.6303 146.244 25.528C147.062 20.8485 147.062 20.8485 147.736 18.7401C147.772 18.6244 147.808 18.5088 147.846 18.3896C149.316 13.7569 151.529 9.28172 154.714 5.58218C154.785 5.49878 154.856 5.41539 154.929 5.32947C155.802 4.33137 156.698 3.36892 158.009 3.00566C158.579 2.9836 159.045 3.16343 159.579 3.35181C159.682 3.38612 159.784 3.42043 159.89 3.45578C160.958 3.82174 161.999 4.19995 162.62 5.19436C163.135 6.26341 162.982 7.4872 162.614 8.57443C162.542 8.7744 162.466 8.97269 162.389 9.17069C162.342 9.29186 162.295 9.41303 162.246 9.53788C161.076 12.4 159.381 15.0267 157.604 17.5439C157.553 17.617 157.501 17.6901 157.448 17.7655C156.123 19.6364 154.734 21.4723 153.276 23.2421C153.218 23.313 153.159 23.3839 153.099 23.4569C152.987 23.5932 152.874 23.7291 152.761 23.8646C152.081 24.6896 151.838 25.3567 151.661 26.4093C151.64 26.5306 151.619 26.6519 151.597 26.7769C151.538 27.1214 151.481 27.4662 151.424 27.811C151.399 27.953 151.373 28.095 151.348 28.237C151.043 30.1953 150.852 32.743 151.898 34.5084C152.267 35.0003 152.739 35.2936 153.318 35.4865C155.685 35.697 157.874 34.2227 159.623 32.7701C159.884 32.5494 160.14 32.3247 160.395 32.0973C160.469 32.0318 160.544 31.9663 160.62 31.8988C161.93 30.7323 163.215 29.5052 164.283 28.1101C164.383 27.9854 164.483 27.8609 164.583 27.7367C165.065 27.1405 165.537 26.5444 165.977 25.9171C166.094 26.2662 166.065 26.3075 165.914 26.6262C165.876 26.7084 165.837 26.7906 165.797 26.8753C165.754 26.9641 165.711 27.0529 165.666 27.1444C165.599 27.283 165.599 27.283 165.531 27.4244C164.214 30.0974 162.502 32.6487 160.546 34.8966C160.305 35.1768 160.076 35.464 159.847 35.7544C158.284 37.6601 155.883 39.0669 153.418 39.374C151.272 39.4798 149.486 39.2913 147.796 37.8403C146 36.0389 145.537 33.478 145.53 31.0258C145.533 30.8845 145.537 30.7433 145.543 30.6021C145.45 30.6418 145.357 30.6815 145.261 30.7224C143.573 31.4309 141.838 31.8612 140.054 31.2263C138.683 30.6365 137.759 29.6768 137.179 28.2937C137.092 28.0657 137.011 27.8367 136.933 27.6055C136.909 27.535 136.885 27.4645 136.861 27.392C136.466 26.1395 136.435 24.9 136.441 23.5995C136.441 23.511 136.441 23.4225 136.441 23.3313C136.447 21.9141 136.515 20.5355 136.771 19.1388C136.791 19.0279 136.811 18.9169 136.831 18.8027C137.76 13.7086 139.71 8.60608 142.752 4.386C142.821 4.28922 142.821 4.28922 142.893 4.19049C143.569 3.25765 144.281 2.35842 145.044 1.49525C145.109 1.42227 145.173 1.34928 145.24 1.27409C146.322 0.118044 147.572 0.18306 149.007 0.573205ZM148.135 3.17504C145.176 6.34218 143.281 14.7785 143.138 19.008C143.142 19.084 143.146 19.1601 143.151 19.2385C143.532 18.8746 143.851 18.494 144.16 18.0672C144.207 18.0021 144.254 17.937 144.303 17.8699C147.038 14.0654 149.546 9.47748 149.549 4.67882C149.55 4.58367 149.551 4.48852 149.552 4.39048C149.554 3.85153 149.522 3.39684 149.331 2.89079C149.265 2.825 149.199 2.75921 149.131 2.69143C148.62 2.69143 148.496 2.83852 148.135 3.17504ZM159.897 8.37325C158.669 9.65605 157.625 11.144 156.707 12.6595C156.66 12.7369 156.613 12.8143 156.565 12.894C154.971 15.5454 153.411 18.5876 152.72 21.6308C152.753 21.7295 152.786 21.8282 152.82 21.9299C155.798 18.8496 159.827 12.9506 160.009 8.57261C160.005 8.50682 160.001 8.44103 159.997 8.37325C159.964 8.37325 159.931 8.37325 159.897 8.37325ZM143.051 19.2385C143.151 19.4378 143.151 19.4378 143.151 19.4378L143.051 19.2385ZM152.62 21.9299C152.72 22.1292 152.72 22.1292 152.72 22.1292L152.62 21.9299Z" fill="#003258"/>
<path d="M132.788 18.6746C133.088 18.9442 133.339 19.2286 133.581 19.5499C133.624 19.6062 133.666 19.6625 133.71 19.7205C134.749 21.1238 134.749 21.1238 134.665 21.7491C134.636 21.8417 134.608 21.9342 134.578 22.0295C133.998 22.1866 133.998 22.1866 133.688 22.0353C133.555 21.9463 133.424 21.856 133.293 21.7647C132.36 21.1702 131.159 21.1154 130.105 21.338C128.156 21.8775 126.807 23.7097 125.852 25.3901C125.208 26.3995 125.208 26.3995 124.909 27.512C124.964 27.4563 125.019 27.4006 125.076 27.3432C125.601 26.8149 126.125 26.287 126.651 25.7597C126.921 25.4887 127.191 25.2175 127.46 24.9458C127.721 24.683 127.982 24.4206 128.243 24.1586C128.342 24.0593 128.441 23.9598 128.54 23.8601C130.313 22.0676 130.313 22.0676 131.102 22.0046C132.207 22.0759 133.105 22.6784 133.837 23.4936C134.245 23.9823 134.309 24.4599 134.298 25.0822C134.297 25.2784 134.297 25.2784 134.296 25.4786C134.288 25.7894 134.262 26.0947 134.229 26.4038C134.16 27.132 134.157 27.8601 134.155 28.5911C134.154 28.8337 134.151 29.0761 134.148 29.3187C134.147 29.4749 134.147 29.6312 134.147 29.7875C134.145 29.8947 134.145 29.8947 134.143 30.004C134.145 30.5157 134.247 30.8532 134.478 31.2998C134.679 31.5252 134.679 31.5252 134.977 31.5989C135.661 31.5779 136.195 31.2777 136.671 30.8014C136.923 30.4806 137.151 30.1492 137.369 29.8046C137.652 30.5323 137.185 31.6588 136.887 32.3395C136.291 33.6061 135.664 34.3712 134.354 34.9257C133.196 35.1186 132.128 35.0345 131.114 34.4273C130.108 33.7067 129.699 32.4635 129.482 31.292C129.142 29.1303 129.383 26.7586 129.938 24.6504C130.004 24.4126 130.004 24.4126 129.993 24.1228C129.275 25.0349 128.566 25.952 127.881 26.8889C127.305 27.6749 126.719 28.4498 126.105 29.2065C126.056 29.2676 126.007 29.3287 125.956 29.3916C124.434 31.2751 124.434 31.2751 123.209 31.4244C122.515 31.4628 121.952 31.2805 121.418 30.8318C120.708 30.0946 120.567 29.1925 120.579 28.1973C120.58 28.1064 120.581 28.0155 120.581 27.9219C120.648 25.2183 122.143 22.8751 123.912 20.933C124.017 20.8162 124.121 20.6994 124.226 20.5826C124.755 19.9964 125.293 19.4387 125.906 18.9394C126.02 18.8397 126.02 18.8397 126.137 18.7381C128.177 17.0122 130.694 17.0602 132.788 18.6746Z" fill="#003258"/>
<path d="M207.332 84.2546C208.091 84.8806 208.656 85.642 208.84 86.6228C208.922 87.8987 208.854 88.996 208.012 90.0275C207.188 90.9244 206.311 91.4259 205.089 91.5294C203.823 91.5708 202.73 91.1453 201.788 90.2986C200.896 89.3555 200.71 88.245 200.733 87.0099C200.786 85.8819 201.348 85.0776 202.162 84.3302C203.688 83.0656 205.743 83.1216 207.332 84.2546ZM202.187 85.3955C201.624 86.0724 201.388 86.8686 201.426 87.7434C201.547 88.6252 201.923 89.3894 202.56 90.012C203.416 90.653 204.285 90.9243 205.351 90.8094C206.345 90.5714 207.061 90.1251 207.632 89.2768C208.106 88.4772 208.266 87.6907 208.096 86.7712C207.862 85.8645 207.319 85.1567 206.548 84.6292C204.94 83.7632 203.427 84.113 202.187 85.3955Z" fill="#003258"/>
<path d="M158.8 96.591C159.61 96.483 160.196 96.9144 160.842 97.3596C161.375 97.7769 161.375 97.7769 161.443 98.2104C161.377 98.6927 161.192 98.9604 160.906 99.3447C160.857 99.4136 160.807 99.4825 160.756 99.5536C160.654 99.6949 160.551 99.8357 160.447 99.9759C160.307 100.165 160.169 100.355 160.032 100.547C159.298 101.558 158.545 102.256 157.305 102.572C156.938 102.597 156.938 102.597 156.707 102.572C156.766 101.95 156.957 101.41 157.177 100.827C157.214 100.728 157.25 100.629 157.288 100.527C157.405 100.212 157.524 99.8965 157.642 99.5814C157.72 99.3696 157.799 99.1578 157.878 98.946C157.953 98.7424 158.029 98.5389 158.105 98.3354C158.14 98.2409 158.175 98.1464 158.212 98.049C158.396 97.5572 158.589 97.0718 158.8 96.591Z" fill="#003258"/>
<path d="M203.159 85.1277C205.685 85.1277 205.685 85.1277 206.292 85.6261C206.597 86.0157 206.598 86.4465 206.548 86.9219C206.359 87.384 206.061 87.5542 205.651 87.8191C205.684 87.8729 205.717 87.9267 205.751 87.9822C205.901 88.2246 206.05 88.4673 206.199 88.71C206.251 88.7947 206.303 88.8795 206.357 88.9668C206.407 89.0474 206.456 89.128 206.507 89.2111C206.553 89.2858 206.599 89.3604 206.646 89.4373C206.747 89.6133 206.747 89.6133 206.747 89.713C206.352 89.713 205.958 89.713 205.551 89.713C205.401 89.4516 205.251 89.1899 205.102 88.928C205.059 88.8536 205.017 88.7792 204.973 88.7026C204.932 88.6313 204.892 88.5599 204.85 88.4865C204.812 88.4207 204.775 88.3549 204.736 88.2872C204.654 88.1181 204.654 88.1181 204.654 87.9188C204.456 87.9188 204.259 87.9188 204.056 87.9188C204.056 88.5109 204.056 89.103 204.056 89.713C203.76 89.713 203.464 89.713 203.159 89.713C203.159 88.1999 203.159 86.6867 203.159 85.1277ZM204.056 85.9251C204.056 86.3199 204.056 86.7146 204.056 87.1213C204.228 87.1254 204.401 87.1295 204.579 87.1338C204.676 87.1361 204.773 87.1384 204.873 87.1408C205.159 87.1209 205.317 87.0839 205.551 86.9219C205.659 86.6319 205.659 86.6319 205.651 86.3239C205.472 86.0655 205.355 86.0261 205.052 85.9251C204.88 85.9184 204.708 85.9167 204.535 85.9189C204.298 85.922 204.298 85.922 204.056 85.9251Z" fill="#003259"/>
</svg>
