<svg xmlns:xlink="http://www.w3.org/1999/xlink" xmlns="http://www.w3.org/2000/svg" fill="none" viewBox="0 0 81 81" width="81"  height="81" ><path fill="#fff" d="M0 0h81v81H0z"/><path fill="#000" d="M57.957 25.733c-.66.104-1.327.19-2.004.257-.103 0 0 .158-.103.158-5.128.61-10.301-.924-15.426-1.41.103.417-1.034-.057-1.605-.005-.31-.314.104.104.26 0 .103 0 .207.053.31-.052-.725-.263-1.344-.317-2.121-.216.205.366.828.108 1.188.266-5.179-.019-11.182-.717-14.252 4.13-.26.206-.258-.107-.31-.212l.315-1.146c.315-1.514.735-3.184 2.343-3.962 2.956-1.557 5.905-.554 9.27-.803 6.678.703 13.147 2.498 20.032 2.732a21.565 21.565 0 0 0 2.066-.136c.553-.085 1.832-.408 2.348-.647.124-.053.526-.026-.005.228-.53.25-1.655.726-2.306.818ZM24.605 47.344c-.058-.249.445-.53.824-.643-.239.174-.418.597-.824.643ZM23.81 48.168c.211-.142.547-.21.27-.539-.166.261-1.427.77-.41.71.002-.02.017-.033.027-.051.028.027.08.03.125-.021.078-.086.029-.084-.012-.099Z"/><path fill="#000" d="M31.64 41.163c1.7-1.15 2.971-2.71 4.619-3.994-.059.14.145.174.207.034.112-.008.133-.056.171-.148-.583-.307.36-.453.5-.783.212.15.26-.22.432-.367.77-.774 1.788-1.224 2.44-2.107-.344-.095-.034-.181.087-.073.211-.63.989-.904 1.51-1.344 2.191-2.049 4.605-4.223 6.865-6.3l1.707-1.034c3.064-2.28 6.746-4.073 10.385-4.993.613-.011.472.705.892.886.077.978-.557 1.427-1.153 2.056-1.98 1.028-4.246 2.211-5.862 3.677l-3.536 2.743c-.91.715-1.78 1.337-2.623 2.025-3.537 2.354-6.667 5.44-10.238 8-.073-.086.285-.153.074-.299-1.155.383-.092-.043.198-.473.062-.138.087-.46.361-.454.757-.225 1.78-.559 2.391-1.35.83-.527 1.755-1.405 2.506-2.133-.046-.021-.046-.021-.072-.09-.657.38-1.13.846-1.84 1.092.226-.402.935-.65.976-1.13-1.136 1.115-2.665 1.34-3.225 2.654-1.913 1.781-4.007 3.205-5.854 4.957l-1.364 1.13c-.896.168-1.322 1.037-2.046 1.445-.033-.57-.617-.103-.79.047-.088.072.058.315.083.382-1.53.929-5.363 4.091-7.237 5.547 0 .005-.005.009-.006.017-1.888 1.846-4.2 3.01-5.755 5.11.011.229.41.066.153.289-.772-.002-.64-.442-1.205-.8.03-.32-.23-.49.135-.83 1.707-1.424 3.35-2.823 4.973-4.175.328-.21 1.22-.99 1.892-1.437a.706.706 0 0 1 .08-.092c.015.004.026.01.038.016.218-.139.405-.231.532-.244-.546.762-1.602.898-2 1.838-.733.293-1.833 1.529-2.585 1.87.99-.128-.187.307-.287.541.2.307-.856.46-.517.83-.126.05.85-.78 2.236-1.933-.012 0-.023.002-.036 0 .13-.147.333-.279.532-.413.583-.486 1.216-1.008 1.86-1.54-.018-.012-.036-.024-.06-.034.04-.092.212-.17.264-.135 2.677-2.214 5.444-4.487 5.262-4.395-.013.157.087.048.178.08-.972.81-4.803 4.038-5.724 4.806.13.147.5-.336.753-.296 1.558-1.198 2.752-2.2 4.501-3.712.027-.323 4-2.727 3.093-3.089-.657-.006-.354.535-.977.71.105.267.038.292-.2.469-.577-.197-.74.668-1.284.654-.214-.15-2.193 1.542-2.417 1.556.431-.757 4.195-3.219 4.746-4.256l1.26-1.008Zm-3.749 4.166h.009c.316-.268.265-.228-.009 0Zm-11.318 8.957c-.189.25-.538.682-.163.762-.015-.34 1.08-.783.163-.762ZM37.33 37.254c-.277.266-.818.37-.924.878-.776.274-.268.412-1.003.594-.128.555-.73.634-1.05.996-1.44.928-.23.13-1.718 1.039.092.43-.817.368-.399.549-.02.047.1.155.033.183.139.06.305.186.485.152 2.312-1.938 1.497-1.172 3.758-3.246-.384-.39.64-.724.818-1.145Z"/><path fill="#000" d="M36.345 37.96c.33-.018.67-.184 1.032-.156.799-.171 1.63-.04 2.422-.257.202-.032.444.031.597-.076.3.118.671-.06 1.019.01.17-.083.427.003.645 0 .413-.085.897-.023 1.332-.1a20.2 20.2 0 0 0 3.022.109c-.139.006-.188-.132-.325-.126.137-.07.283.03.42.025-.023.058-.023.184.105.133-.007-.044-.049-.075-.033-.114.097-.102.138.056.226.038.066.038.292.073.396.016.583.151 1.203-.044 1.817.094l.024-.057c.478.145.88.08 1.373.125-2.368-.259-4.517-.712-6.867-.881-.13-.01-.354.078-.517-.05.154-.042.373-.113.09-.146-.008-.107-.194-.048-.315-.082-1.398-.003-2.764-.082-4.169-.133-.323.193-.727.002-1.106.074-.921-.05-1.865.021-2.752-.042-1.681.094-3.32.346-5.007.266.154.145-.137.133-.104.312.22.504.367 1.05.53 1.56.112-.078.299-.072.379.057.759-.142 1.56.004 2.351-.089l3.415-.51ZM27.495 51.833c-4.183-.798-8.3-1.428-12.465-.813-.378.33-.728.254-1.012-.023.12-.247-.072-.417-.002-.666 4.19-.431 9.075-.255 13.481.163 1.343.142 4.564.747 7.19 1.595 4.854 1.542 11.222 3.291 16.053 5.11.791.266 1.727.641 2.624.86.047.056-.498-.14-.359.076 4.475 1.917 10.849 1.418 14.22-2.373.45-.632.613-1.49.526-2.364.418.54.203 1.396.112 1.952-.373.228-.305.692-.532 1.035-.553 1.337-1.676 1.408-2.5 2.32-.756.609-1.926.675-2.632 1.288-6.111 2.461-13.82-.555-19.606-2.567-2.411-.967-5.676-2.02-8.156-3.026-1.958-.798-4.497-2.07-6.942-2.567Z"/></svg>