<svg width="65" height="49" viewBox="0 0 65 49" fill="none" xmlns="http://www.w3.org/2000/svg">
<path d="M52.676 6.79097C51.886 6.91597 51.086 7.01997 50.276 7.09897C50.152 7.09897 50.276 7.28697 50.152 7.28697C44.006 8.01697 37.807 6.18297 31.665 5.59997C31.789 6.09997 30.426 5.53297 29.742 5.59497C29.372 5.21897 29.867 5.71997 30.052 5.59497C30.177 5.59497 30.302 5.65897 30.425 5.53297C29.556 5.21797 28.815 5.15397 27.883 5.27497C28.13 5.71297 28.875 5.40497 29.307 5.59297C23.101 5.57097 15.907 4.73597 12.227 10.533C11.917 10.779 11.919 10.404 11.855 10.278L12.235 8.90797C12.612 7.09797 13.115 5.09997 15.041 4.16897C18.584 2.30697 22.118 3.50697 26.151 3.20897C34.154 4.04897 41.905 6.19797 50.157 6.47697C50.991 6.46197 51.817 6.40797 52.632 6.31497C53.295 6.21297 54.828 5.82597 55.446 5.54097C55.596 5.47697 56.076 5.50997 55.44 5.81297C54.804 6.11297 53.457 6.68097 52.676 6.79097ZM12.709 32.637C12.639 32.339 13.241 32.003 13.696 31.867C13.41 32.076 13.196 32.581 12.709 32.637ZM11.756 33.622C12.008 33.452 12.411 33.372 12.078 32.978C11.88 33.29 10.368 33.899 11.588 33.828C11.591 33.802 11.608 33.788 11.62 33.766C11.653 33.798 11.716 33.802 11.77 33.74C11.863 33.638 11.805 33.64 11.756 33.622Z" fill="#821C1C"/>
<path d="M21.14 25.244C23.177 23.869 24.7 22.004 26.674 20.468C26.604 20.636 26.848 20.676 26.922 20.508C27.057 20.499 27.082 20.442 27.128 20.331C26.428 19.964 27.559 19.79 27.727 19.395C27.981 19.574 28.038 19.132 28.245 18.957C29.168 18.03 30.387 17.493 31.168 16.437C30.756 16.323 31.128 16.22 31.272 16.349C31.526 15.597 32.457 15.269 33.082 14.742C35.709 12.292 38.601 9.69199 41.309 7.20899L43.355 5.97099C47.027 3.24399 51.439 1.09999 55.8 -1.33456e-05C56.535 -0.0140133 56.365 0.841987 56.868 1.05899C56.961 2.22899 56.201 2.76499 55.487 3.51699C53.115 4.74699 50.398 6.16199 48.462 7.91499L44.225 11.195C43.135 12.05 42.092 12.795 41.081 13.617C36.843 16.432 33.091 20.122 28.813 23.183C28.725 23.082 29.154 23.001 28.901 22.827C27.517 23.285 28.791 22.775 29.138 22.261C29.212 22.095 29.242 21.71 29.571 21.718C30.478 21.448 31.704 21.05 32.436 20.104C33.432 19.473 34.54 18.424 35.439 17.553C35.384 17.528 35.384 17.528 35.353 17.446C34.565 17.9 33.999 18.456 33.148 18.751C33.419 18.27 34.269 17.974 34.318 17.399C32.956 18.734 31.125 19.003 30.453 20.574C28.161 22.704 25.651 24.407 23.437 26.502L21.803 27.852C20.73 28.053 20.219 29.092 19.351 29.581C19.312 28.899 18.611 29.458 18.404 29.637C18.299 29.723 18.474 30.014 18.504 30.094C16.669 31.204 12.078 34.987 9.831 36.727C9.831 36.734 9.826 36.738 9.824 36.748C7.562 38.956 4.792 40.347 2.927 42.86C2.941 43.133 3.42 42.939 3.111 43.205C2.185 43.203 2.345 42.676 1.667 42.249C1.703 41.865 1.392 41.663 1.828 41.255C3.875 39.552 5.842 37.88 7.788 36.263C8.181 36.011 9.249 35.079 10.056 34.544C10.0848 34.5046 10.1169 34.4678 10.152 34.434C10.169 34.439 10.182 34.446 10.197 34.452C10.459 34.287 10.683 34.177 10.835 34.162C10.181 35.072 8.915 35.235 8.437 36.359C7.56 36.71 6.241 38.187 5.341 38.595C6.527 38.442 5.116 38.962 4.996 39.243C5.236 39.61 3.97 39.793 4.376 40.235C4.226 40.295 5.395 39.304 7.056 37.923C7.042 37.923 7.028 37.926 7.013 37.923C7.169 37.748 7.411 37.59 7.651 37.43C8.349 36.849 9.108 36.225 9.88 35.588C9.858 35.574 9.836 35.559 9.807 35.547C9.855 35.437 10.061 35.344 10.124 35.385C13.331 32.738 16.648 30.02 16.43 30.13C16.414 30.318 16.534 30.187 16.643 30.225C15.478 31.195 10.887 35.055 9.783 35.972C9.939 36.149 10.383 35.572 10.686 35.619C12.553 34.187 13.984 32.988 16.08 31.18C16.112 30.794 20.873 27.918 19.786 27.486C18.999 27.478 19.363 28.126 18.616 28.334C18.741 28.654 18.661 28.684 18.376 28.895C17.684 28.66 17.489 29.695 16.837 29.678C16.581 29.498 14.209 31.522 13.941 31.538C14.457 30.633 18.968 27.69 19.628 26.449L21.139 25.243L21.14 25.244ZM16.647 30.227H16.657C17.035 29.907 16.975 29.954 16.647 30.227ZM3.083 40.939C2.858 41.239 2.438 41.754 2.888 41.849C2.87 41.442 4.182 40.913 3.083 40.939ZM27.96 20.57C27.628 20.888 26.98 21.011 26.853 21.62C25.923 21.948 26.532 22.113 25.65 22.33C25.497 22.994 24.776 23.088 24.392 23.521C22.668 24.631 24.118 23.677 22.333 24.763C22.445 25.279 21.355 25.203 21.856 25.42C21.832 25.476 21.976 25.605 21.895 25.639C22.061 25.711 22.261 25.861 22.476 25.821C25.247 23.503 24.271 24.419 26.979 21.938C26.519 21.472 27.747 21.074 27.96 20.57Z" fill="#821C1C"/>
<path d="M26.777 21.414C27.172 21.392 27.58 21.194 28.015 21.228C28.971 21.023 29.968 21.18 30.916 20.92C31.158 20.882 31.448 20.958 31.632 20.829C31.991 20.97 32.436 20.759 32.853 20.842C33.057 20.742 33.365 20.845 33.627 20.841C34.121 20.739 34.701 20.814 35.222 20.723C36.394 20.85 37.692 20.906 38.844 20.852C38.678 20.86 38.619 20.694 38.454 20.702C38.619 20.617 38.794 20.738 38.958 20.731C38.93 20.801 38.93 20.951 39.084 20.89C39.074 20.837 39.024 20.8 39.044 20.754C39.16 20.632 39.21 20.821 39.314 20.799C39.394 20.844 39.664 20.887 39.789 20.819C40.488 20.999 41.231 20.765 41.967 20.93C41.977 20.906 41.987 20.885 41.995 20.863C42.568 21.036 43.051 20.959 43.641 21.013C40.803 20.703 38.228 20.161 35.412 19.959C35.257 19.948 34.987 20.052 34.792 19.899C34.976 19.849 35.239 19.764 34.9 19.724C34.89 19.597 34.668 19.667 34.523 19.627C32.847 19.623 31.21 19.527 29.527 19.467C29.14 19.697 28.655 19.47 28.201 19.556C27.097 19.495 25.967 19.581 24.903 19.506C22.888 19.617 20.924 19.919 18.903 19.823C19.087 19.997 18.74 19.983 18.779 20.196C19.041 20.799 19.218 21.451 19.413 22.062C19.548 21.969 19.771 21.976 19.867 22.13C20.777 21.96 21.737 22.135 22.686 22.024L26.777 21.414ZM16.172 38.004C11.16 37.05 6.225 36.296 1.234 37.032C0.780997 37.427 0.361997 37.336 0.0209971 37.005C0.164997 36.709 -0.0650029 36.505 0.0189971 36.207C5.04 35.692 10.894 35.903 16.175 36.403C17.785 36.573 21.643 37.296 24.791 38.311C30.607 40.155 38.238 42.246 44.028 44.421C44.976 44.739 46.098 45.188 47.173 45.451C47.229 45.517 46.576 45.283 46.743 45.541C52.105 47.833 59.743 47.236 63.783 42.703C64.323 41.947 64.518 40.921 64.413 39.876C64.915 40.522 64.657 41.546 64.548 42.21C64.101 42.483 64.183 43.038 63.91 43.448C63.248 45.048 61.902 45.132 60.914 46.222C60.008 46.95 58.606 47.03 57.76 47.762C50.437 50.706 41.199 47.099 34.265 44.692C31.375 43.536 27.463 42.277 24.491 41.075C22.144 40.119 19.102 38.597 16.171 38.005L16.172 38.004Z" fill="#821C1C"/>
</svg>
